Pretension2[wght].glyphspackage
{
glyphname = exclam;
layers = (
{
layerId = "5004196B-162C-4C82-BCAB-67337630B14F";
shapes = (
{
closed = 1;
nodes = (
(206,466,l),
(176,1490,l),
(600,1490,l),
(570,466,l)
);
},
{
closed = 1;
nodes = (
(184,0,l),
(184,351,l),
(592,351,l),
(592,0,l)
);
}
);
width = 776;
},
{
layerId = "B1312A1D-33BE-4648-8D8B-BF9AFD6F3133";
shapes = (
{
closed = 1;
nodes = (
(187,479,l),
(175,1490,l),
(379,1490,l),
(366,479,l)
);
},
{
closed = 1;
nodes = (
(160,0,l),
(160,232,l),
(394,232,l),
(394,0,l)
);
}
);
width = 554;
},
{
layerId = "3CB5008A-C4A1-41CB-9BE0-5E5E5E92B0B4";
shapes = (
{
closed = 1;
nodes = (
(246,434,l),
(246,1490,l),
(292,1490,l),
(292,434,l)
);
},
{
closed = 1;
nodes = (
(224,0,l),
(224,90,l),
(314,90,l),
(314,0,l)
);
}
);
width = 538;
}
);
unicode = 33;
}
{
glyphname = numbersign;
layers = (
{
layerId = "D8A92F70-7B12-4FFB-B168-20459808C763";
shapes = (
{
closed = 1;
nodes = (
(672,0,l),
(916,1490,l),
(1208,1490,l),
(962,0,l)
);
},
{
closed = 1;
nodes = (
(12,340,l),
(62,632,l),
(1260,632,l),
(1210,340,l)
);
},
{
closed = 1;
nodes = (
(148,0,l),
(392,1490,l),
(684,1490,l),
(440,0,l)
);
},
{
closed = 1;
nodes = (
(96,858,l),
(146,1150,l),
(1344,1150,l),
(1294,858,l)
);
}
);
width = 1356;
},
{
layerId = "F2144881-BF72-4154-AA19-0D7773A1BBB5";
shapes = (
{
closed = 1;
nodes = (
(711,0,l),
(957,1490,l),
(1108,1490,l),
(864,0,l)
);
},
{
closed = 1;
nodes = (
(34,411,l),
(59,561,l),
(1175,561,l),
(1150,411,l)
);
},
{
closed = 1;
nodes = (
(189,0,l),
(433,1490,l),
(584,1490,l),
(340,0,l)
);
},
{
closed = 1;
nodes = (
(122,927,l),
(147,1079,l),
(1261,1079,l),
(1238,927,l)
);
}
);
width = 1297;
},
{
layerId = "6534D9E7-D8F5-49CB-AE3D-9F113790C5C9";
shapes = (
{
closed = 1;
nodes = (
(766,0,l),
(1010,1490,l),
(1056,1490,l),
(812,0,l)
);
},
{
closed = 1;
nodes = (
(46,462,l),
(56,510,l),
(1166,510,l),
(1158,462,l)
);
},
{
closed = 1;
nodes = (
(242,0,l),
(486,1490,l),
(532,1490,l),
(288,0,l)
);
},
{
closed = 1;
nodes = (
(130,980,l),
(140,1026,l),
(1250,1026,l),
(1242,980,l)
);
}
);
width = 1298;
}
);
unicode = 35;
}
{
glyphname = dollar;
layers = (
{
anchors = (
{
name = m.uni0326;
position = "{761, 0}";
},
{
name = m.uni030F_1;
position = "{761, 1490}";
},
{
name = m.uni0327_3;
position = "{754, 0}";
}
);
layerId = "AA18C446-7083-4EE4-9FA4-5ED387604317";
shapes = (
{
closed = 1;
nodes = (
(640,-186,l),
(640,1676,l),
(760,1676,l),
(760,-186,l)
);
},
{
closed = 1;
nodes = (
(573,-18,o),
(460,1,o),
(364,40,cs),
(171,116,o),
(59,275,o),
(58,524,c),
(442,524,l),
(445,479,o),
(456,440,o),
(477,409,c),
(517,346,o),
(592,314,o),
(696,314,cs),
(739,314,o),
(776,319,o),
(805,330,cs),
(864,351,o),
(894,391,o),
(894,440,cs),
(894,463,o),
(887,483,o),
(873,500,cs),
(844,534,o),
(781,561,o),
(670,584,cs),
(520,616,ls),
(389,644,o),
(285,692,o),
(210,760,cs),
(134,827,o),
(96,919,o),
(96,1036,cs),
(96,1131,o),
(122,1214,o),
(173,1285,cs),
(276,1427,o),
(462,1510,o),
(698,1510,cs),
(819,1510,o),
(923,1490,o),
(1011,1450,cs),
(1186,1369,o),
(1285,1219,o),
(1286,1024,c),
(898,1024,l),
(895,1073,o),
(877,1111,o),
(845,1138,cs),
(812,1165,o),
(763,1178,o),
(698,1178,cs),
(657,1178,o),
(623,1173,o),
(596,1164,c),
(543,1144,o),
(518,1108,o),
(518,1064,cs),
(518,1041,o),
(525,1020,o),
(539,1003,c),
(552,985,o),
(574,970,o),
(604,957,cs),
(633,944,o),
(671,932,o),
(718,922,cs),
(840,896,ls),
(1004,861,o),
(1121,803,o),
(1197,727,cs),
(1272,650,o),
(1306,553,o),
(1306,440,cs),
(1306,342,o),
(1282,259,o),
(1234,191,cs),
(1137,54,o),
(954,-18,o),
(702,-18,cs)
);
}
);
width = 1364;
},
{
anchors = (
{
name = m.uni0326;
position = "{786, 0}";
},
{
name = m.uni030F_1;
position = "{793, 1490}";
},
{
name = m.uni0327_3;
position = "{779, 0}";
}
);
layerId = "83678DE6-86A5-4DC1-9516-590C67EEE957";
shapes = (
{
closed = 1;
nodes = (
(597,-218,l),
(597,1708,l),
(717,1708,l),
(717,-218,l)
);
},
{
closed = 1;
nodes = (
(550,-26,o),
(457,-9,o),
(378,26,cs),
(220,95,o),
(128,223,o),
(116,390,c),
(311,390,l),
(316,334,o),
(335,288,o),
(368,252,cs),
(433,179,o),
(541,144,o),
(657,144,cs),
(724,144,o),
(785,155,o),
(839,177,cs),
(946,221,o),
(1013,304,o),
(1013,409,cs),
(1013,457,o),
(1000,496,o),
(973,526,cs),
(919,586,o),
(825,622,o),
(718,651,cs),
(538,702,ls),
(418,736,o),
(325,785,o),
(258,848,cs),
(191,911,o),
(158,992,o),
(158,1091,cs),
(158,1175,o),
(181,1249,o),
(226,1312,cs),
(317,1438,o),
(478,1510,o),
(670,1510,cs),
(768,1510,o),
(855,1493,o),
(930,1458,cs),
(1081,1389,o),
(1173,1265,o),
(1178,1114,c),
(992,1114,l),
(983,1187,o),
(949,1243,o),
(888,1283,cs),
(827,1322,o),
(753,1342,o),
(664,1342,cs),
(600,1342,o),
(544,1332,o),
(496,1311,cs),
(399,1269,o),
(343,1193,o),
(343,1100,cs),
(343,1048,o),
(359,1006,o),
(392,975,c),
(424,943,o),
(462,918,o),
(507,901,c),
(551,883,o),
(591,869,o),
(627,859,cs),
(776,818,ls),
(856,797,o),
(959,762,o),
(1047,700,cs),
(1135,638,o),
(1198,545,o),
(1198,406,cs),
(1198,325,o),
(1177,251,o),
(1135,186,cs),
(1050,55,o),
(886,-26,o),
(657,-26,cs)
);
}
);
width = 1314;
},
{
anchors = (
{
name = m.uni0326;
position = "{712, 0}";
},
{
name = m.uni030F_1;
position = "{737, 1490}";
},
{
name = m.uni0327_3;
position = "{705, 0}";
}
);
layerId = "011F2186-E3F6-4CD7-BC01-D546573589F3";
shapes = (
{
closed = 1;
nodes = (
(610,-186,l),
(610,1676,l),
(656,1676,l),
(656,-186,l)
);
},
{
closed = 1;
nodes = (
(531,-24,o),
(452,-8,o),
(385,24,cs),
(249,87,o),
(167,203,o),
(158,350,c),
(204,350,l),
(209,285,o),
(229,229,o),
(264,180,cs),
(335,82,o),
(459,24,o),
(622,24,cs),
(708,24,o),
(783,39,o),
(847,69,cs),
(975,128,o),
(1050,238,o),
(1050,378,cs),
(1050,431,o),
(1038,478,o),
(1015,519,cs),
(968,599,o),
(871,661,o),
(710,710,cs),
(542,762,ls),
(425,799,o),
(337,847,o),
(279,908,cs),
(221,969,o),
(192,1042,o),
(192,1128,cs),
(192,1201,o),
(211,1267,o),
(250,1325,cs),
(326,1441,o),
(465,1512,o),
(634,1512,cs),
(719,1512,o),
(794,1495,o),
(859,1461,cs),
(987,1393,o),
(1067,1271,o),
(1076,1118,c),
(1030,1118,l),
(1023,1219,o),
(984,1303,o),
(913,1368,cs),
(842,1433,o),
(749,1466,o),
(634,1466,cs),
(559,1466,o),
(491,1452,o),
(431,1423,cs),
(311,1365,o),
(238,1259,o),
(238,1128,cs),
(238,1078,o),
(249,1033,o),
(272,993,cs),
(295,952,o),
(329,917,o),
(376,887,cs),
(423,856,o),
(481,830,o),
(552,808,cs),
(722,756,ls),
(850,716,o),
(944,667,o),
(1005,606,cs),
(1066,545,o),
(1096,470,o),
(1096,378,cs),
(1096,301,o),
(1076,232,o),
(1037,171,c),
(957,50,o),
(811,-24,o),
(622,-24,cs)
);
}
);
width = 1254;
}
);
leftKerningGroup = public.kern2.S2;
rightKerningGroup = public.kern1.S;
unicode = 36;
}
{
glyphname = percent;
layers = (
{
layerId = "83678DE6-86A5-4DC1-9516-590C67EEE957";
shapes = (
{
closed = 1;
nodes = (
(208,1212,ls),
(208,1267,o),
(219,1317,o),
(242,1363,cs),
(287,1454,o),
(376,1514,o),
(501,1514,cs),
(565,1514,o),
(619,1500,o),
(662,1473,cs),
(748,1417,o),
(792,1321,o),
(792,1212,cs),
(792,1134,ls),
(792,1079,o),
(781,1029,o),
(759,983,cs),
(714,891,o),
(628,831,o),
(501,831,cs),
(438,831,o),
(384,845,o),
(341,873,cs),
(253,928,o),
(208,1025,o),
(208,1134,cs)
);
},
{
closed = 1;
nodes = (
(361,1134,ls),
(361,1089,o),
(372,1050,o),
(393,1015,cs),
(414,980,o),
(450,962,o),
(501,962,cs),
(552,962,o),
(587,980,o),
(608,1015,cs),
(629,1050,o),
(639,1089,o),
(639,1134,cs),
(639,1212,ls),
(639,1256,o),
(629,1296,o),
(609,1331,cs),
(589,1366,o),
(553,1384,o),
(501,1384,cs),
(451,1384,o),
(415,1366,o),
(394,1331,cs),
(372,1296,o),
(361,1256,o),
(361,1212,cs)
);
},
{
closed = 1;
nodes = (
(1121,352,ls),
(1121,407,o),
(1132,457,o),
(1155,503,cs),
(1200,594,o),
(1289,654,o),
(1414,654,cs),
(1478,654,o),
(1532,640,o),
(1575,613,cs),
(1662,557,o),
(1705,461,o),
(1705,352,cs),
(1705,274,ls),
(1705,219,o),
(1694,169,o),
(1672,123,cs),
(1627,31,o),
(1541,-29,o),
(1414,-29,cs),
(1351,-29,o),
(1297,-15,o),
(1254,13,cs),
(1166,68,o),
(1121,165,o),
(1121,274,cs)
);
},
{
closed = 1;
nodes = (
(1274,274,ls),
(1274,229,o),
(1285,190,o),
(1306,155,cs),
(1327,120,o),
(1363,102,o),
(1414,102,cs),
(1465,102,o),
(1500,120,o),
(1521,155,cs),
(1542,190,o),
(1552,229,o),
(1552,274,cs),
(1552,352,ls),
(1552,396,o),
(1542,436,o),
(1522,471,cs),
(1502,506,o),
(1466,524,o),
(1414,524,cs),
(1364,524,o),
(1328,506,o),
(1307,471,cs),
(1285,436,o),
(1274,396,o),
(1274,352,cs)
);
},
{
closed = 1;
nodes = (
(360,0,l),
(1384,1490,l),
(1553,1490,l),
(529,0,l)
);
}
);
width = 1913;
},
{
layerId = "AA18C446-7083-4EE4-9FA4-5ED387604317";
shapes = (
{
closed = 1;
nodes = (
(132,1162,ls),
(132,1226,o),
(146,1285,o),
(174,1338,cs),
(229,1445,o),
(336,1514,o),
(484,1514,cs),
(561,1514,o),
(626,1498,o),
(679,1466,cs),
(783,1402,o),
(838,1290,o),
(838,1162,cs),
(838,1084,ls),
(838,1020,o),
(824,962,o),
(797,909,cs),
(742,803,o),
(636,734,o),
(484,734,cs),
(408,734,o),
(344,750,o),
(292,782,cs),
(187,846,o),
(132,959,o),
(132,1084,cs)
);
},
{
closed = 1;
nodes = (
(388,1084,ls),
(388,1055,o),
(395,1027,o),
(408,1001,cs),
(421,975,o),
(447,962,o),
(484,962,cs),
(524,962,o),
(550,975,o),
(563,1001,cs),
(576,1027,o),
(582,1055,o),
(582,1084,cs),
(582,1162,ls),
(582,1191,o),
(576,1220,o),
(564,1247,cs),
(552,1274,o),
(525,1288,o),
(484,1288,cs),
(445,1288,o),
(420,1274,o),
(407,1246,cs),
(394,1217,o),
(388,1189,o),
(388,1162,cs)
);
},
{
closed = 1;
nodes = (
(1126,404,ls),
(1126,468,o),
(1140,527,o),
(1168,580,cs),
(1223,687,o),
(1330,756,o),
(1478,756,cs),
(1555,756,o),
(1620,740,o),
(1673,708,cs),
(1777,644,o),
(1832,532,o),
(1832,404,cs),
(1832,326,ls),
(1832,262,o),
(1818,204,o),
(1791,151,cs),
(1736,45,o),
(1630,-24,o),
(1478,-24,cs),
(1402,-24,o),
(1338,-8,o),
(1286,24,cs),
(1181,88,o),
(1126,201,o),
(1126,326,cs)
);
},
{
closed = 1;
nodes = (
(1382,326,ls),
(1382,297,o),
(1389,269,o),
(1402,243,cs),
(1415,217,o),
(1441,204,o),
(1478,204,cs),
(1518,204,o),
(1544,217,o),
(1557,243,cs),
(1570,269,o),
(1576,297,o),
(1576,326,cs),
(1576,404,ls),
(1576,433,o),
(1570,462,o),
(1558,489,cs),
(1546,516,o),
(1519,530,o),
(1478,530,cs),
(1439,530,o),
(1414,516,o),
(1401,488,cs),
(1388,459,o),
(1382,431,o),
(1382,404,cs)
);
},
{
closed = 1;
nodes = (
(350,0,l),
(1374,1490,l),
(1614,1490,l),
(590,0,l)
);
}
);
width = 1964;
},
{
layerId = "011F2186-E3F6-4CD7-BC01-D546573589F3";
shapes = (
{
closed = 1;
nodes = (
(186,1214,ls),
(186,1273,o),
(197,1324,o),
(219,1368,cs),
(262,1455,o),
(339,1506,o),
(431,1506,cs),
(477,1506,o),
(518,1494,o),
(555,1470,cs),
(628,1421,o),
(675,1331,o),
(675,1214,cs),
(675,1168,ls),
(675,1111,o),
(664,1060,o),
(643,1017,cs),
(599,929,o),
(523,878,o),
(431,878,cs),
(385,878,o),
(344,890,o),
(307,915,cs),
(233,963,o),
(186,1053,o),
(186,1168,cs)
);
},
{
closed = 1;
nodes = (
(232,1168,ls),
(232,1094,o),
(251,1035,o),
(290,991,cs),
(328,946,o),
(375,924,o),
(431,924,cs),
(486,924,o),
(533,946,o),
(572,991,cs),
(610,1035,o),
(629,1094,o),
(629,1168,cs),
(629,1214,ls),
(629,1289,o),
(610,1348,o),
(572,1393,cs),
(533,1438,o),
(486,1460,o),
(431,1460,cs),
(375,1460,o),
(328,1438,o),
(290,1393,cs),
(251,1348,o),
(232,1289,o),
(232,1214,cs)
);
},
{
closed = 1;
nodes = (
(1043,320,ls),
(1043,379,o),
(1054,430,o),
(1076,474,cs),
(1119,561,o),
(1196,612,o),
(1288,612,cs),
(1334,612,o),
(1375,600,o),
(1412,576,cs),
(1485,527,o),
(1532,437,o),
(1532,320,cs),
(1532,274,ls),
(1532,217,o),
(1521,166,o),
(1500,123,cs),
(1456,35,o),
(1380,-16,o),
(1288,-16,cs),
(1242,-16,o),
(1201,-4,o),
(1164,21,cs),
(1090,69,o),
(1043,159,o),
(1043,274,cs)
);
},
{
closed = 1;
nodes = (
(1089,274,ls),
(1089,200,o),
(1108,141,o),
(1147,97,cs),
(1185,52,o),
(1232,30,o),
(1288,30,cs),
(1343,30,o),
(1390,52,o),
(1429,97,cs),
(1467,141,o),
(1486,200,o),
(1486,274,cs),
(1486,320,ls),
(1486,395,o),
(1467,454,o),
(1429,499,cs),
(1390,544,o),
(1343,566,o),
(1288,566,cs),
(1232,566,o),
(1185,544,o),
(1147,499,cs),
(1108,454,o),
(1089,395,o),
(1089,320,cs)
);
},
{
closed = 1;
nodes = (
(321,0,l),
(1341,1490,l),
(1397,1490,l),
(375,0,l)
);
}
);
width = 1718;
}
);
unicode = 37;
}
{
glyphname = ampersand;
layers = (
{
layerId = "83678DE6-86A5-4DC1-9516-590C67EEE957";
shapes = (
{
closed = 1;
nodes = (
(482,-20,o),
(397,-2,o),
(326,34,cs),
(255,70,o),
(200,119,o),
(162,182,cs),
(123,245,o),
(104,316,o),
(104,396,cs),
(104,457,o),
(117,511,o),
(144,558,cs),
(197,651,o),
(295,729,o),
(414,817,cs),
(635,980,ls),
(675,1009,o),
(708,1039,o),
(733,1070,cs),
(758,1100,o),
(771,1139,o),
(771,1188,cs),
(771,1225,o),
(755,1262,o),
(723,1297,cs),
(690,1332,o),
(647,1349,o),
(594,1349,cs),
(557,1349,o),
(525,1340,o),
(497,1321,cs),
(440,1284,o),
(406,1222,o),
(406,1161,cs),
(406,1126,o),
(416,1091,o),
(435,1056,cs),
(473,984,o),
(536,912,o),
(601,832,cs),
(1287,0,l),
(1070,0,l),
(505,678,ls),
(454,740,o),
(407,797,o),
(364,848,cs),
(321,899,o),
(288,950,o),
(263,1001,cs),
(238,1051,o),
(225,1105,o),
(225,1163,cs),
(225,1230,o),
(240,1290,o),
(271,1341,c),
(331,1444,o),
(443,1504,o),
(588,1504,cs),
(663,1504,o),
(728,1490,o),
(783,1461,cs),
(891,1403,o),
(952,1302,o),
(952,1189,cs),
(952,1118,o),
(934,1056,o),
(898,1004,cs),
(862,951,o),
(814,903,o),
(754,858,cs),
(456,637,ls),
(392,590,o),
(348,543,o),
(325,498,cs),
(301,452,o),
(289,418,o),
(289,397,cs),
(289,352,o),
(301,309,o),
(325,270,cs),
(373,190,o),
(461,137,o),
(577,137,cs),
(688,137,o),
(799,187,o),
(885,278,cs),
(971,369,o),
(1026,498,o),
(1026,658,c),
(1199,658,l),
(1199,559,o),
(1188,478,o),
(1165,415,cs),
(1142,352,o),
(1117,302,o),
(1088,265,cs),
(1059,228,o),
(1034,201,o),
(1015,182,c),
(1002,167,o),
(991,152,o),
(979,137,c),
(930,84,o),
(870,45,o),
(797,19,cs),
(724,-7,o),
(651,-20,o),
(580,-20,cs)
);
}
);
width = 1319;
},
{
layerId = "AA18C446-7083-4EE4-9FA4-5ED387604317";
shapes = (
{
closed = 1;
nodes = (
(471,-24,o),
(379,-5,o),
(302,33,cs),
(225,71,o),
(165,122,o),
(124,186,cs),
(83,249,o),
(62,319,o),
(62,396,cs),
(62,452,o),
(73,501,o),
(94,544,cs),
(137,629,o),
(217,699,o),
(318,768,c),
(656,978,ls),
(690,999,o),
(713,1021,o),
(726,1044,c),
(738,1067,o),
(744,1087,o),
(744,1106,cs),
(744,1129,o),
(735,1150,o),
(718,1169,c),
(700,1187,o),
(673,1196,o),
(636,1196,cs),
(613,1196,o),
(594,1192,o),
(578,1184,cs),
(545,1167,o),
(526,1135,o),
(526,1094,cs),
(526,1065,o),
(534,1036,o),
(551,1006,cs),
(583,946,o),
(643,879,o),
(714,794,c),
(1436,0,l),
(1034,0,l),
(430,640,ls),
(400,672,o),
(367,711,o),
(332,757,cs),
(296,802,o),
(265,854,o),
(239,912,cs),
(213,969,o),
(200,1032,o),
(200,1100,cs),
(200,1176,o),
(218,1245,o),
(255,1308,cs),
(327,1432,o),
(461,1512,o),
(636,1512,cs),
(719,1512,o),
(791,1495,o),
(852,1461,cs),
(972,1392,o),
(1040,1273,o),
(1040,1134,cs),
(1040,1065,o),
(1023,1001,o),
(989,941,cs),
(955,880,o),
(906,827,o),
(842,782,cs),
(534,564,ls),
(511,547,o),
(490,528,o),
(473,507,c),
(455,486,o),
(446,458,o),
(446,424,cs),
(446,396,o),
(453,372,o),
(466,352,cs),
(493,312,o),
(542,290,o),
(606,290,cs),
(706,290,o),
(810,340,o),
(892,428,cs),
(974,515,o),
(1028,636,o),
(1028,776,c),
(1346,776,l),
(1346,690,o),
(1337,607,o),
(1319,527,cs),
(1301,447,o),
(1272,374,o),
(1233,308,cs),
(1193,241,o),
(1141,185,o),
(1076,140,c),
(1035,119,o),
(997,102,o),
(956,82,c),
(897,43,o),
(835,16,o),
(770,0,cs),
(705,-16,o),
(641,-24,o),
(578,-24,cs)
);
}
);
width = 1424;
},
{
layerId = "011F2186-E3F6-4CD7-BC01-D546573589F3";
shapes = (
{
closed = 1;
nodes = (
(471,-20,o),
(400,-3,o),
(337,33,cs),
(274,68,o),
(223,115,o),
(186,174,cs),
(149,233,o),
(130,299,o),
(130,372,cs),
(130,417,o),
(138,459,o),
(155,499,cs),
(187,578,o),
(259,655,o),
(386,750,cs),
(606,915,ls),
(675,967,o),
(725,1016,o),
(755,1061,cs),
(785,1106,o),
(800,1156,o),
(800,1209,cs),
(800,1283,o),
(777,1344,o),
(730,1392,cs),
(683,1440,o),
(623,1464,o),
(552,1464,cs),
(502,1464,o),
(457,1452,o),
(416,1428,cs),
(335,1380,o),
(282,1296,o),
(282,1196,cs),
(282,1159,o),
(289,1126,o),
(304,1096,cs),
(333,1035,o),
(392,967,o),
(483,852,cs),
(1156,0,l),
(1097,0,l),
(446,824,ls),
(401,882,o),
(362,931,o),
(331,970,cs),
(300,1009,o),
(276,1046,o),
(260,1081,cs),
(244,1115,o),
(236,1153,o),
(236,1196,cs),
(236,1255,o),
(250,1308,o),
(279,1355,c),
(335,1450,o),
(435,1510,o),
(552,1510,cs),
(609,1510,o),
(659,1497,o),
(703,1471,cs),
(791,1418,o),
(846,1324,o),
(846,1208,cs),
(846,1148,o),
(830,1093,o),
(798,1042,cs),
(765,991,o),
(710,936,o),
(633,878,cs),
(415,714,ls),
(326,647,o),
(264,589,o),
(229,538,cs),
(194,487,o),
(176,432,o),
(176,372,cs),
(176,308,o),
(193,250,o),
(226,198,cs),
(293,93,o),
(410,26,o),
(550,26,cs),
(695,26,o),
(812,79,o),
(899,171,cs),
(986,263,o),
(1043,391,o),
(1068,542,c),
(1114,536,l),
(1107,494,o),
(1098,452,o),
(1085,411,cs),
(1072,370,o),
(1056,331,o),
(1038,294,cs),
(1020,257,o),
(1000,223,o),
(978,192,c),
(974,187,o),
(969,182,o),
(965,175,c),
(927,126,o),
(873,82,o),
(804,41,cs),
(735,0,o),
(650,-20,o),
(550,-20,cs)
);
}
);
width = 1196;
}
);
unicode = 38;
}
{
glyphname = quotesingle;
layers = (
{
layerId = "C940992A-BC26-484D-9AD3-39561C0256D5";
shapes = (
{
closed = 1;
nodes = (
(233,824,l),
(196,1490,l),
(566,1490,l),
(529,824,l)
);
}
);
width = 762;
},
{
layerId = "9514E43D-89D9-4083-9B59-14FFE90A8056";
shapes = (
{
closed = 1;
nodes = (
(232,923,l),
(210,1490,l),
(404,1490,l),
(382,923,l)
);
}
);
width = 614;
},
{
layerId = "F1B44250-5A04-4AFC-8A77-A7E8F224F396";
shapes = (
{
closed = 1;
nodes = (
(261,1040,l),
(256,1490,l),
(307,1490,l),
(302,1040,l)
);
}
);
width = 563;
}
);
leftKerningGroup = public.kern2.quotedbl2;
rightKerningGroup = public.kern1.quotedbl;
unicode = 39;
}
{
glyphname = parenleft;
layers = (
{
layerId = "AA18C446-7083-4EE4-9FA4-5ED387604317";
shapes = (
{
closed = 1;
nodes = (
(128,719,o),
(139,835,o),
(161,955,cs),
(183,1075,o),
(213,1190,o),
(252,1299,cs),
(291,1408,o),
(335,1502,o),
(386,1581,c),
(752,1581,l),
(707,1479,o),
(669,1372,o),
(637,1261,cs),
(573,1038,o),
(538,812,o),
(538,607,cs),
(538,520,o),
(545,434,o),
(559,348,cs),
(573,262,o),
(596,169,o),
(627,68,cs),
(658,-33,o),
(700,-148,o),
(752,-279,c),
(386,-279,l),
(217,-6,o),
(128,302,o),
(128,607,cs)
);
}
);
width = 794;
},
{
layerId = "83678DE6-86A5-4DC1-9516-590C67EEE957";
shapes = (
{
closed = 1;
nodes = (
(218,716,o),
(229,830,o),
(252,949,cs),
(274,1068,o),
(304,1182,o),
(343,1293,cs),
(382,1403,o),
(426,1499,o),
(476,1581,c),
(651,1581,l),
(600,1476,o),
(555,1367,o),
(518,1254,cs),
(442,1027,o),
(401,802,o),
(401,607,cs),
(401,518,o),
(410,429,o),
(428,338,cs),
(445,247,o),
(473,152,o),
(510,51,cs),
(547,-51,o),
(594,-160,o),
(651,-279,c),
(476,-279,l),
(307,10,o),
(218,315,o),
(218,607,cs)
);
}
);
width = 747;
},
{
layerId = "011F2186-E3F6-4CD7-BC01-D546573589F3";
shapes = (
{
closed = 1;
nodes = (
(239,755,o),
(247,861,o),
(264,966,cs),
(280,1071,o),
(304,1176,o),
(336,1279,cs),
(368,1382,o),
(407,1483,o),
(454,1582,c),
(504,1582,l),
(456,1481,o),
(416,1379,o),
(384,1276,cs),
(319,1068,o),
(286,858,o),
(286,650,cs),
(286,545,o),
(294,441,o),
(311,336,cs),
(327,231,o),
(351,128,o),
(384,25,cs),
(416,-79,o),
(456,-180,o),
(504,-280,c),
(454,-280,l),
(314,19,o),
(239,339,o),
(238,650,c)
);
}
);
width = 646;
}
);
leftKerningGroup = public.kern2.parenleft2;
rightKerningGroup = public.kern1.parenleft;
unicode = 40;
}
{
glyphname = parenright;
layers = (
{
layerId = "C940992A-BC26-484D-9AD3-39561C0256D5";
shapes = (
{
closed = 1;
nodes = (
(42,-279,l),
(95,-148,o),
(137,-33,o),
(168,68,cs),
(199,169,o),
(221,262,o),
(235,348,cs),
(249,434,o),
(256,520,o),
(256,607,cs),
(256,710,o),
(248,817,o),
(231,928,cs),
(197,1150,o),
(133,1377,o),
(42,1581,c),
(408,1581,l),
(459,1502,o),
(503,1408,o),
(542,1299,cs),
(581,1190,o),
(611,1075,o),
(633,955,cs),
(655,835,o),
(666,719,o),
(666,607,cs),
(666,302,o),
(577,-6,o),
(408,-279,c)
);
}
);
width = 794;
},
{
layerId = "9514E43D-89D9-4083-9B59-14FFE90A8056";
shapes = (
{
closed = 1;
nodes = (
(96,-279,l),
(155,-157,o),
(203,-45,o),
(240,57,cs),
(277,158,o),
(304,254,o),
(321,344,cs),
(338,434,o),
(346,522,o),
(346,607,cs),
(346,704,o),
(336,808,o),
(316,919,cs),
(276,1139,o),
(200,1372,o),
(96,1581,c),
(271,1581,l),
(321,1499,o),
(366,1403,o),
(405,1293,cs),
(444,1182,o),
(474,1067,o),
(496,948,cs),
(518,829,o),
(529,715,o),
(529,607,cs),
(529,310,o),
(438,5,o),
(271,-279,c)
);
}
);
width = 747;
},
{
layerId = "F1B44250-5A04-4AFC-8A77-A7E8F224F396";
shapes = (
{
closed = 1;
nodes = (
(142,-279,l),
(190,-179,o),
(230,-78,o),
(263,26,cs),
(295,129,o),
(319,232,o),
(336,337,cs),
(352,442,o),
(360,546,o),
(360,651,cs),
(360,755,o),
(352,859,o),
(336,964,cs),
(303,1173,o),
(239,1382,o),
(142,1583,c),
(192,1583,l),
(239,1484,o),
(278,1383,o),
(310,1280,cs),
(342,1177,o),
(366,1072,o),
(383,967,cs),
(400,862,o),
(408,756,o),
(408,651,cs),
(408,340,o),
(332,20,o),
(192,-279,c)
);
}
);
width = 646;
}
);
leftKerningGroup = public.kern2.parenright2;
rightKerningGroup = public.kern1.parenright;
unicode = 41;
}
{
glyphname = asterisk;
layers = (
{
layerId = "DF515781-E436-4A88-B51E-316BD4FA0343";
shapes = (
{
closed = 1;
nodes = (
(506,652,l),
(530,908,l),
(318,760,l),
(200,962,l),
(434,1070,l),
(200,1178,l),
(318,1382,l),
(530,1234,l),
(506,1490,l),
(738,1490,l),
(716,1234,l),
(928,1382,l),
(1044,1178,l),
(812,1070,l),
(1044,962,l),
(928,760,l),
(716,908,l),
(738,652,l)
);
}
);
width = 1246;
},
{
layerId = "6C060D37-EA61-4F06-B959-8B1B04C15508";
shapes = (
{
closed = 1;
nodes = (
(441,652,l),
(454,969,l),
(186,798,l),
(114,924,l),
(396,1070,l),
(114,1216,l),
(186,1344,l),
(454,1173,l),
(441,1490,l),
(585,1490,l),
(573,1173,l),
(840,1344,l),
(912,1216,l),
(630,1070,l),
(912,924,l),
(840,798,l),
(573,969,l),
(585,652,l)
);
}
);
width = 1026;
},
{
layerId = "D5D2BA9E-C9D4-4EBC-A272-0297FDC83579";
shapes = (
{
closed = 1;
nodes = (
(488,652,l),
(488,1030,l),
(160,840,l),
(136,882,l),
(466,1070,l),
(136,1260,l),
(160,1300,l),
(488,1112,l),
(488,1490,l),
(536,1490,l),
(536,1112,l),
(864,1300,l),
(888,1260,l),
(558,1070,l),
(888,882,l),
(864,840,l),
(536,1030,l),
(536,652,l)
);
}
);
width = 1024;
}
);
rightKerningGroup = public.kern1.degree;
unicode = 42;
}
{
glyphname = plus;
layers = (
{
layerId = "6E2892C3-3C02-46A0-9D36-E256ACFD9F2E";
shapes = (
{
closed = 1;
nodes = (
(547,66,l),
(547,1144,l),
(873,1144,l),
(873,66,l)
);
},
{
closed = 1;
nodes = (
(172,450,l),
(172,760,l),
(1248,760,l),
(1248,450,l)
);
}
);
width = 1420;
},
{
layerId = "F267B978-EB02-4A9B-884E-61DA4654DD4B";
shapes = (
{
closed = 1;
nodes = (
(593,100,l),
(593,1066,l),
(762,1066,l),
(762,100,l)
);
},
{
closed = 1;
nodes = (
(195,504,l),
(195,663,l),
(1160,663,l),
(1160,504,l)
);
}
);
width = 1355;
},
{
layerId = "5994B614-1BA3-4C22-AA0B-9CE5DDB3E1DA";
shapes = (
{
closed = 1;
nodes = (
(629,160,l),
(629,1004,l),
(675,1004,l),
(675,160,l)
);
},
{
closed = 1;
nodes = (
(230,559,l),
(230,605,l),
(1074,605,l),
(1074,559,l)
);
}
);
width = 1304;
}
);
leftKerningGroup = public.kern2.plus2;
rightKerningGroup = public.kern1.plus;
unicode = 43;
}
{
glyphname = hyphen;
layers = (
{
layerId = "C940992A-BC26-484D-9AD3-39561C0256D5";
shapes = (
{
closed = 1;
nodes = (
(835,744,l),
(835,442,l),
(137,442,l),
(137,744,l)
);
}
);
width = 972;
},
{
layerId = "9514E43D-89D9-4083-9B59-14FFE90A8056";
shapes = (
{
closed = 1;
nodes = (
(798,719,l),
(798,553,l),
(144,553,l),
(144,719,l)
);
}
);
width = 942;
},
{
layerId = "F1B44250-5A04-4AFC-8A77-A7E8F224F396";
shapes = (
{
closed = 1;
nodes = (
(728,662,l),
(728,616,l),
(172,616,l),
(172,662,l)
);
}
);
width = 898;
}
);
rightKerningGroup = public.kern1.plus;
unicode = 45;
}
{
glyphname = period;
layers = (
{
layerId = "980E6A92-2867-40CE-A48E-C7FE9FEAD785";
shapes = (
{
closed = 1;
nodes = (
(178,0,l),
(178,384,l),
(586,384,l),
(586,0,l)
);
}
);
width = 764;
},
{
layerId = "2C2418C1-41DF-4EE0-8E81-595C00A08566";
shapes = (
{
closed = 1;
nodes = (
(178,0,l),
(178,232,l),
(412,232,l),
(412,0,l)
);
}
);
width = 590;
},
{
layerId = "6C81FF26-15E7-4A5E-89E1-0A5A89E23E00";
shapes = (
{
closed = 1;
nodes = (
(232,0,l),
(232,90,l),
(322,90,l),
(322,0,l)
);
}
);
width = 554;
}
);
rightKerningGroup = comma;
unicode = (46,58026);
}
{
glyphname = slash;
layers = (
{
layerId = "D8A92F70-7B12-4FFB-B168-20459808C763";
shapes = (
{
closed = 1;
nodes = (
(832,1560,l),
(352,-224,l),
(12,-224,l),
(492,1560,l)
);
}
);
width = 844;
},
{
layerId = "F2144881-BF72-4154-AA19-0D7773A1BBB5";
shapes = (
{
closed = 1;
nodes = (
(692,1560,l),
(212,-224,l),
(46,-224,l),
(526,1560,l)
);
}
);
width = 738;
},
{
layerId = "6534D9E7-D8F5-49CB-AE3D-9F113790C5C9";
shapes = (
{
closed = 1;
nodes = (
(596,1560,l),
(116,-224,l),
(66,-224,l),
(546,1560,l)
);
}
);
width = 662;
}
);
unicode = 47;
}
{
glyphname = zero;
layers = (
{
anchors = (
{
name = m.uni030F_1;
position = "{798, 1490}";
}
);
layerId = "5004196B-162C-4C82-BCAB-67337630B14F";
shapes = (
{
closed = 1;
nodes = (
(590,-20,o),
(472,10,o),
(374,71,cs),
(178,192,o),
(70,423,o),
(70,744,cs),
(70,905,o),
(96,1042,o),
(149,1157,cs),
(253,1385,o),
(452,1510,o),
(728,1510,cs),
(866,1510,o),
(984,1480,o),
(1083,1419,cs),
(1279,1297,o),
(1386,1065,o),
(1386,744,cs),
(1386,583,o),
(1360,446,o),
(1308,333,cs),
(1204,105,o),
(1005,-20,o),
(728,-20,cs)
);
},
{
closed = 1;
nodes = (
(779,308,o),
(823,325,o),
(858,358,cs),
(929,425,o),
(966,556,o),
(966,744,cs),
(966,839,o),
(957,919,o),
(939,984,cs),
(902,1115,o),
(831,1184,o),
(728,1184,cs),
(651,1184,o),
(593,1146,o),
(552,1070,cs),
(511,994,o),
(490,885,o),
(490,744,cs),
(490,650,o),
(499,571,o),
(517,506,cs),
(553,376,o),
(625,308,o),
(728,308,cs)
);
}
);
width = 1456;
},
{
anchors = (
{
name = m.uni030F_1;
position = "{816, 1490}";
}
);
layerId = "B1312A1D-33BE-4648-8D8B-BF9AFD6F3133";
shapes = (
{
closed = 1;
nodes = (
(535,-20,o),
(441,10,o),
(363,70,cs),
(207,190,o),
(122,420,o),
(122,744,cs),
(122,905,o),
(143,1043,o),
(185,1157,cs),
(268,1385,o),
(426,1510,o),
(646,1510,cs),
(756,1510,o),
(850,1480,o),
(929,1419,cs),
(1085,1298,o),
(1170,1067,o),
(1170,744,cs),
(1170,583,o),
(1150,445,o),
(1109,331,cs),
(1027,103,o),
(869,-20,o),
(646,-20,cs)
);
},
{
closed = 1;
nodes = (
(719,146,o),
(780,170,o),
(831,217,cs),
(932,312,o),
(987,492,o),
(987,744,cs),
(987,871,o),
(974,979,o),
(947,1069,cs),
(894,1248,o),
(791,1345,o),
(646,1345,cs),
(537,1345,o),
(453,1292,o),
(394,1187,cs),
(335,1081,o),
(305,933,o),
(305,744,cs),
(305,618,o),
(318,511,o),
(345,422,cs),
(398,244,o),
(501,146,o),
(646,146,cs)
);
}
);
width = 1292;
},
{
anchors = (
{
name = m.uni030F_1;
position = "{706, 1490}";
}
);
layerId = "3CB5008A-C4A1-41CB-9BE0-5E5E5E92B0B4";
shapes = (
{
closed = 1;
nodes = (
(511,-20,o),
(430,11,o),
(361,73,cs),
(224,196,o),
(148,429,o),
(148,744,cs),
(148,903,o),
(166,1039,o),
(203,1154,cs),
(276,1382,o),
(417,1510,o),
(606,1510,cs),
(701,1510,o),
(782,1479,o),
(850,1418,cs),
(986,1294,o),
(1062,1061,o),
(1062,744,cs),
(1062,587,o),
(1044,451,o),
(1007,337,cs),
(934,108,o),
(795,-20,o),
(606,-20,cs)
);
},
{
closed = 1;
nodes = (
(691,26,o),
(764,55,o),
(825,113,cs),
(947,228,o),
(1016,447,o),
(1016,744,cs),
(1016,894,o),
(999,1023,o),
(966,1130,cs),
(899,1345,o),
(775,1464,o),
(606,1464,cs),
(479,1464,o),
(378,1400,o),
(305,1273,cs),
(231,1145,o),
(194,969,o),
(194,744,cs),
(194,595,o),
(211,467,o),
(244,360,cs),
(311,145,o),
(437,26,o),
(606,26,cs)
);
}
);
width = 1210;
}
);
leftKerningGroup = six;
rightKerningGroup = zero;
unicode = 48;
}
{
glyphname = one.ss01;
layers = (
{
layerId = "DF515781-E436-4A88-B51E-316BD4FA0343";
shapes = (
{
closed = 1;
nodes = (
(434,0,l),
(434,1061,l),
(507,950,l),
(94,950,l),
(94,1228,l),
(169,1228,ls),
(402,1228,o),
(506,1333,o),
(506,1490,c),
(838,1490,l),
(838,0,l)
);
}
);
width = 934;
},
{
layerId = "6C060D37-EA61-4F06-B959-8B1B04C15508";
shapes = (
{
closed = 1;
nodes = (
(499,0,l),
(499,1253,l),
(583,1120,l),
(126,1120,l),
(126,1266,l),
(228,1266,ls),
(443,1266,o),
(536,1333,o),
(536,1490,c),
(686,1490,l),
(686,0,l)
);
}
);
width = 866;
},
{
layerId = "D5D2BA9E-C9D4-4EBC-A272-0297FDC83579";
shapes = (
{
closed = 1;
nodes = (
(407,0,l),
(407,1330,l),
(437,1278,l),
(116,1278,l),
(116,1318,l),
(184,1318,ls),
(358,1318,o),
(417,1361,o),
(417,1490,c),
(453,1490,l),
(453,0,l)
);
}
);
width = 685;
}
);
leftKerningGroup = public.kern2.one;
unicode = 49;
}
{
glyphname = two;
layers = (
{
anchors = (
{
name = m.uni030F_1;
position = "{739, 1490}";
}
);
layerId = "C940992A-BC26-484D-9AD3-39561C0256D5";
shapes = (
{
closed = 1;
nodes = (
(98,0,l),
(98,290,l),
(654,750,ls),
(691,781,o),
(722,810,o),
(749,837,cs),
(776,864,o),
(796,891,o),
(811,920,c),
(825,949,o),
(832,981,o),
(832,1016,cs),
(832,1054,o),
(824,1087,o),
(808,1114,cs),
(775,1168,o),
(717,1198,o),
(642,1198,cs),
(605,1198,o),
(572,1191,o),
(544,1176,cs),
(487,1146,o),
(454,1088,o),
(454,1004,c),
(70,1004,l),
(70,1109,o),
(94,1199,o),
(141,1274,cs),
(235,1425,o),
(411,1510,o),
(642,1510,cs),
(761,1510,o),
(865,1491,o),
(952,1453,cs),
(1127,1377,o),
(1226,1235,o),
(1226,1050,cs),
(1226,993,o),
(1214,936,o),
(1191,880,cs),
(1167,823,o),
(1124,761,o),
(1063,692,cs),
(1002,623,o),
(914,542,o),
(800,448,cs),
(660,332,l),
(660,322,l),
(1242,322,l),
(1242,0,l)
);
}
);
width = 1324;
},
{
anchors = (
{
name = m.uni030F_1;
position = "{798, 1490}";
}
);
layerId = "9514E43D-89D9-4083-9B59-14FFE90A8056";
shapes = (
{
closed = 1;
nodes = (
(154,0,l),
(154,137,l),
(649,674,ls),
(704,734,o),
(750,787,o),
(787,832,cs),
(824,877,o),
(851,921,o),
(870,962,cs),
(889,1003,o),
(898,1046,o),
(898,1092,cs),
(898,1144,o),
(886,1189,o),
(861,1227,cs),
(812,1303,o),
(725,1345,o),
(618,1345,cs),
(561,1345,o),
(512,1334,o),
(471,1311,cs),
(387,1265,o),
(340,1179,o),
(340,1067,c),
(158,1067,l),
(158,1155,o),
(178,1232,o),
(219,1299,cs),
(300,1432,o),
(446,1510,o),
(623,1510,cs),
(712,1510,o),
(790,1492,o),
(859,1455,cs),
(995,1381,o),
(1078,1250,o),
(1078,1094,cs),
(1078,1040,o),
(1068,988,o),
(1049,937,cs),
(1030,886,o),
(996,828,o),
(947,763,cs),
(898,698,o),
(830,619,o),
(742,526,cs),
(416,179,l),
(416,167,l),
(1103,167,l),
(1103,0,l)
);
}
);
width = 1249;
},
{
anchors = (
{
name = m.uni030F_1;
position = "{876, 1490}";
}
);
layerId = "F1B44250-5A04-4AFC-8A77-A7E8F224F396";
shapes = (
{
closed = 1;
nodes = (
(190,0,l),
(190,38,l),
(666,602,ls),
(741,691,o),
(799,765,o),
(841,824,cs),
(882,883,o),
(912,935,o),
(929,982,cs),
(946,1029,o),
(954,1077,o),
(954,1126,cs),
(954,1191,o),
(939,1249,o),
(910,1300,c),
(850,1401,o),
(743,1464,o),
(610,1464,cs),
(541,1464,o),
(481,1448,o),
(429,1417,cs),
(324,1354,o),
(262,1245,o),
(262,1118,c),
(216,1118,l),
(216,1190,o),
(233,1256,o),
(266,1315,cs),
(333,1434,o),
(455,1510,o),
(610,1510,cs),
(685,1510,o),
(752,1493,o),
(811,1460,cs),
(928,1393,o),
(1000,1274,o),
(1000,1126,cs),
(1000,1071,o),
(991,1019,o),
(973,969,cs),
(955,919,o),
(924,863,o),
(881,802,cs),
(838,740,o),
(778,664,o),
(702,574,cs),
(262,52,l),
(262,46,l),
(1088,46,l),
(1088,0,l)
);
}
);
width = 1272;
}
);
unicode = 50;
}
{
glyphname = three.ss01;
layers = (
{
anchors = (
{
name = m.uni030F_1;
position = "{749, 1490}";
}
);
layerId = "5004196B-162C-4C82-BCAB-67337630B14F";
shapes = (
{
closed = 1;
nodes = (
(561,-20,o),
(455,0,o),
(364,41,cs),
(183,122,o),
(79,270,o),
(76,454,c),
(482,454,l),
(483,425,o),
(493,400,o),
(511,378,cs),
(547,333,o),
(609,306,o),
(684,306,cs),
(723,306,o),
(756,313,o),
(784,328,c),
(840,356,o),
(872,411,o),
(872,486,cs),
(872,519,o),
(863,549,o),
(845,576,cs),
(809,630,o),
(743,664,o),
(660,664,cs),
(464,664,l),
(464,912,l),
(766,1158,l),
(766,1166,l),
(152,1166,l),
(152,1490,l),
(1238,1490,l),
(1238,1198,l),
(723,780,l),
(723,873,l),
(836,891,o),
(936,883,o),
(1023,850,cs),
(1110,817,o),
(1178,765,o),
(1227,696,cs),
(1276,626,o),
(1300,545,o),
(1300,452,cs),
(1300,354,o),
(1273,270,o),
(1219,200,cs),
(1164,129,o),
(1091,75,o),
(998,37,cs),
(905,-1,o),
(800,-20,o),
(684,-20,cs)
);
}
);
width = 1382;
},
{
anchors = (
{
name = m.uni030F_1;
position = "{795, 1490}";
}
);
layerId = "B1312A1D-33BE-4648-8D8B-BF9AFD6F3133";
shapes = (
{
closed = 1;
nodes = (
(572,-20,o),
(489,-4,o),
(414,27,cs),
(263,90,o),
(164,209,o),
(152,376,c),
(346,376,l),
(351,327,o),
(369,285,o),
(398,251,cs),
(456,182,o),
(552,147,o),
(664,147,cs),
(725,147,o),
(779,157,o),
(828,178,cs),
(925,219,o),
(986,301,o),
(986,421,cs),
(986,474,o),
(974,524,o),
(949,569,cs),
(899,660,o),
(792,721,o),
(612,721,cs),
(490,721,l),
(490,872,l),
(867,1311,l),
(867,1323,l),
(226,1323,l),
(226,1490,l),
(1117,1490,l),
(1117,1351,l),
(647,810,l),
(647,841,l),
(756,852,o),
(849,840,o),
(928,803,cs),
(1007,766,o),
(1068,714,o),
(1111,647,cs),
(1154,579,o),
(1175,503,o),
(1175,420,cs),
(1175,335,o),
(1153,259,o),
(1109,193,cs),
(1065,126,o),
(1005,74,o),
(928,37,cs),
(851,-1,o),
(762,-20,o),
(661,-20,cs)
);
}
);
width = 1319;
},
{
anchors = (
{
name = m.uni030F_1;
position = "{761, 1490}";
}
);
layerId = "3CB5008A-C4A1-41CB-9BE0-5E5E5E92B0B4";
shapes = (
{
closed = 1;
nodes = (
(552,-20,o),
(477,-3,o),
(410,31,cs),
(276,98,o),
(192,221,o),
(192,372,c),
(238,372,l),
(238,305,o),
(256,246,o),
(291,194,cs),
(361,90,o),
(485,26,o),
(636,26,cs),
(720,26,o),
(792,44,o),
(851,80,cs),
(969,152,o),
(1032,277,o),
(1032,414,cs),
(1032,496,o),
(1011,566,o),
(970,625,cs),
(887,741,o),
(739,805,o),
(558,805,cs),
(502,805,l),
(502,850,l),
(975,1443,l),
(975,1444,l),
(254,1444,l),
(254,1490,l),
(1040,1490,l),
(1040,1452,l),
(533,817,l),
(533,839,l),
(642,846,o),
(738,833,o),
(820,798,cs),
(901,763,o),
(965,713,o),
(1010,647,cs),
(1055,580,o),
(1078,503,o),
(1078,414,cs),
(1078,335,o),
(1060,263,o),
(1025,197,cs),
(989,131,o),
(938,78,o),
(872,39,cs),
(806,0,o),
(727,-20,o),
(636,-20,cs)
);
}
);
width = 1258;
}
);
unicode = (51,57453);
}
{
glyphname = four.ss01;
leftMetricsKey = "=120";
rightMetricsKey = "=118";
layers = (
{
layerId = "980E6A92-2867-40CE-A48E-C7FE9FEAD785";
leftMetricsKey = "=84";
rightMetricsKey = "=70";
shapes = (
{
closed = 1;
nodes = (
(84,251,l),
(84,565,l),
(640,1490,l),
(1032,1490,l),
(485,571,l),
(485,562,l),
(1368,562,l),
(1368,251,l)
);
},
{
closed = 1;
nodes = (
(810,0,l),
(810,345,l),
(820,485,l),
(820,929,l),
(1189,929,l),
(1189,0,l)
);
}
);
width = 1438;
},
{
layerId = "2C2418C1-41DF-4EE0-8E81-595C00A08566";
shapes = (
{
closed = 1;
nodes = (
(120,326,l),
(120,474,l),
(759,1490,l),
(942,1490,l),
(317,494,l),
(317,486,l),
(1227,486,l),
(1227,326,l)
);
},
{
closed = 1;
nodes = (
(842,0,l),
(842,370,l),
(842,440,l),
(842,930,l),
(1014,930,l),
(1014,0,l)
);
}
);
width = 1345;
},
{
layerId = "6C81FF26-15E7-4A5E-89E1-0A5A89E23E00";
leftMetricsKey = "=152";
rightMetricsKey = "=150";
shapes = (
{
closed = 1;
nodes = (
(152,375,l),
(152,409,l),
(845,1490,l),
(899,1490,l),
(217,425,l),
(217,421,l),
(1081,421,l),
(1081,375,l)
);
},
{
closed = 1;
nodes = (
(849,0,l),
(849,389,l),
(849,403,l),
(849,930,l),
(895,930,l),
(895,0,l)
);
}
);
width = 1231;
}
);
rightKerningGroup = four;
unicode = (52,57454);
}
{
glyphname = five;
layers = (
{
layerId = "5004196B-162C-4C82-BCAB-67337630B14F";
shapes = (
{
closed = 1;
nodes = (
(581,-20,o),
(479,0,o),
(391,41,cs),
(303,81,o),
(233,137,o),
(183,208,cs),
(132,279,o),
(105,361,o),
(105,454,c),
(497,454,l),
(499,402,o),
(519,361,o),
(558,331,cs),
(596,300,o),
(642,285,o),
(695,285,cs),
(737,285,o),
(773,294,o),
(804,312,cs),
(836,329,o),
(860,354,o),
(879,387,cs),
(897,420,o),
(905,457,o),
(905,500,c),
(905,544,o),
(897,582,o),
(879,615,cs),
(860,647,o),
(836,671,o),
(804,689,cs),
(773,707,o),
(737,716,o),
(695,716,cs),
(652,716,o),
(613,705,o),
(577,685,cs),
(541,664,o),
(514,636,o),
(497,600,c),
(137,600,l),
(201,1489,l),
(1201,1489,l),
(1201,1167,l),
(532,1167,l),
(503,838,l),
(512,838,l),
(535,883,o),
(575,921,o),
(633,951,cs),
(690,980,o),
(756,995,o),
(832,995,cs),
(921,995,o),
(1000,975,o),
(1070,933,cs),
(1139,892,o),
(1194,835,o),
(1235,763,cs),
(1275,690,o),
(1295,607,o),
(1295,512,cs),
(1295,408,o),
(1271,316,o),
(1221,236,cs),
(1171,156,o),
(1101,93,o),
(1012,48,cs),
(922,2,o),
(817,-20,o),
(695,-20,cs)
);
}
);
width = 1370;
},
{
layerId = "B1312A1D-33BE-4648-8D8B-BF9AFD6F3133";
shapes = (
{
closed = 1;
nodes = (
(535,-20,o),
(457,-4,o),
(389,31,cs),
(321,65,o),
(266,111,o),
(225,170,cs),
(183,229,o),
(161,297,o),
(157,372,c),
(332,372,l),
(338,305,o),
(369,249,o),
(424,206,cs),
(479,161,o),
(543,140,o),
(620,140,cs),
(681,140,o),
(735,154,o),
(783,183,cs),
(831,211,o),
(868,251,o),
(896,301,cs),
(923,351,o),
(937,408,o),
(937,471,cs),
(937,536,o),
(923,594,o),
(895,646,cs),
(866,697,o),
(827,737,o),
(777,767,cs),
(728,796,o),
(671,811,o),
(608,812,cs),
(562,812,o),
(516,805,o),
(468,791,cs),
(420,777,o),
(378,743,o),
(343,689,c),
(172,689,l),
(271,1489,l),
(1044,1489,l),
(1044,1329,l),
(422,1329,l),
(369,890,l),
(378,890,l),
(409,914,o),
(447,935,o),
(493,951,cs),
(539,967,o),
(587,975,o),
(637,975,cs),
(728,975,o),
(809,953,o),
(881,910,cs),
(953,866,o),
(1009,807,o),
(1050,732,cs),
(1091,657,o),
(1111,571,o),
(1111,474,cs),
(1111,379,o),
(1090,295,o),
(1048,220,cs),
(1005,145,o),
(947,87,o),
(873,44,cs),
(799,1,o),
(714,-20,o),
(620,-20,cs)
);
}
);
width = 1245;
},
{
layerId = "3CB5008A-C4A1-41CB-9BE0-5E5E5E92B0B4";
shapes = (
{
closed = 1;
nodes = (
(487,-20,o),
(419,-4,o),
(360,30,cs),
(301,63,o),
(255,110,o),
(221,169,cs),
(188,228,o),
(171,296,o),
(172,372,c),
(218,372,l),
(217,271,o),
(249,188,o),
(313,123,cs),
(377,58,o),
(460,26,o),
(564,26,cs),
(642,26,o),
(711,45,o),
(771,84,cs),
(831,122,o),
(877,174,o),
(911,240,cs),
(944,306,o),
(961,380,o),
(960,463,cs),
(959,551,o),
(941,627,o),
(905,692,cs),
(868,756,o),
(820,806,o),
(759,841,cs),
(699,876,o),
(633,893,o),
(561,893,cs),
(503,893,o),
(449,882,o),
(402,860,cs),
(355,837,o),
(305,799,o),
(252,745,c),
(202,745,l),
(297,1489,l),
(957,1489,l),
(957,1443,l),
(337,1443,l),
(262,826,l),
(268,826,l),
(305,860,o),
(348,888,o),
(398,909,cs),
(447,929,o),
(502,940,o),
(561,940,cs),
(641,940,o),
(716,920,o),
(783,881,cs),
(851,841,o),
(905,785,o),
(946,714,cs),
(987,642,o),
(1007,559,o),
(1007,463,cs),
(1006,370,o),
(987,288,o),
(949,215,cs),
(911,143,o),
(859,85,o),
(793,43,cs),
(727,1,o),
(650,-20,o),
(564,-20,cs)
);
}
);
width = 1169;
}
);
unicode = 53;
}
{
glyphname = six.ss01;
layers = (
{
layerId = "5004196B-162C-4C82-BCAB-67337630B14F";
shapes = (
{
closed = 1;
nodes = (
(561,-20,o),
(464,-1,o),
(374,37,cs),
(283,75,o),
(210,132,o),
(154,208,cs),
(98,284,o),
(70,379,o),
(70,492,cs),
(70,576,o),
(86,657,o),
(118,734,cs),
(149,811,o),
(191,889,o),
(244,968,cs),
(596,1490,l),
(992,1490,l),
(550,840,l),
(412,840,l),
(427,861,o),
(451,882,o),
(485,903,cs),
(553,945,o),
(653,976,o),
(774,976,cs),
(867,976,o),
(948,958,o),
(1019,922,cs),
(1090,885,o),
(1145,832,o),
(1186,763,cs),
(1226,694,o),
(1246,610,o),
(1246,512,cs),
(1246,403,o),
(1221,309,o),
(1171,230,cs),
(1121,150,o),
(1052,88,o),
(965,45,cs),
(878,2,o),
(778,-20,o),
(666,-20,cs)
);
},
{
closed = 1;
nodes = (
(703,286,o),
(739,295,o),
(770,314,cs),
(801,332,o),
(825,357,o),
(843,389,cs),
(861,421,o),
(870,457,o),
(870,498,cs),
(870,539,o),
(861,575,o),
(843,607,cs),
(825,639,o),
(801,664,o),
(770,683,cs),
(739,701,o),
(703,710,o),
(662,710,cs),
(623,710,o),
(588,701,o),
(557,683,cs),
(526,664,o),
(501,639,o),
(483,607,cs),
(465,575,o),
(456,539,o),
(456,498,cs),
(456,457,o),
(465,421,o),
(483,389,cs),
(501,357,o),
(526,332,o),
(557,314,cs),
(588,295,o),
(623,286,o),
(662,286,cs)
);
}
);
width = 1316;
},
{
layerId = "B1312A1D-33BE-4648-8D8B-BF9AFD6F3133";
shapes = (
{
closed = 1;
nodes = (
(504,-20,o),
(422,1,o),
(351,43,cs),
(280,85,o),
(224,143,o),
(183,218,cs),
(142,292,o),
(122,377,o),
(122,473,cs),
(122,544,o),
(137,619,o),
(168,698,cs),
(199,777,o),
(254,875,o),
(334,993,cs),
(671,1490,l),
(876,1490,l),
(378,763,l),
(360,763,l),
(373,791,o),
(393,817,o),
(419,840,cs),
(470,886,o),
(540,915,o),
(620,915,cs),
(711,915,o),
(790,896,o),
(857,859,cs),
(924,821,o),
(976,768,o),
(1013,700,cs),
(1050,631,o),
(1069,551,o),
(1069,458,cs),
(1069,366,o),
(1049,284,o),
(1008,212,cs),
(967,140,o),
(911,83,o),
(840,42,cs),
(769,1,o),
(687,-20,o),
(596,-20,cs)
);
},
{
closed = 1;
nodes = (
(653,143,o),
(704,157,o),
(748,184,cs),
(791,211,o),
(826,249,o),
(851,296,cs),
(876,343,o),
(888,397,o),
(888,458,cs),
(888,521,o),
(876,576,o),
(851,623,cs),
(826,670,o),
(791,706,o),
(748,733,cs),
(704,760,o),
(653,773,o),
(596,773,cs),
(539,773,o),
(488,760,o),
(444,734,cs),
(399,707,o),
(365,671,o),
(340,624,cs),
(315,577,o),
(302,523,o),
(302,462,cs),
(302,400,o),
(315,345,o),
(340,297,cs),
(365,249,o),
(399,211,o),
(444,184,cs),
(488,157,o),
(539,143,o),
(596,143,cs)
);
}
);
width = 1191;
},
{
layerId = "3CB5008A-C4A1-41CB-9BE0-5E5E5E92B0B4";
shapes = (
{
closed = 1;
nodes = (
(499,-20,o),
(427,1,o),
(362,43,cs),
(297,85,o),
(245,141,o),
(206,212,cs),
(167,282,o),
(148,360,o),
(148,446,cs),
(148,502,o),
(157,555,o),
(176,605,cs),
(194,654,o),
(217,700,o),
(246,742,cs),
(762,1490,l),
(818,1490,l),
(346,808,l),
(336,808,l),
(345,823,o),
(361,838,o),
(383,854,cs),
(426,885,o),
(493,910,o),
(578,910,cs),
(657,910,o),
(730,889,o),
(795,848,cs),
(860,806,o),
(911,750,o),
(950,680,cs),
(989,609,o),
(1008,531,o),
(1008,446,cs),
(1008,360,o),
(989,282,o),
(950,212,cs),
(911,141,o),
(860,85,o),
(795,43,cs),
(730,1,o),
(657,-20,o),
(578,-20,cs)
);
},
{
closed = 1;
nodes = (
(649,26,o),
(713,45,o),
(771,83,cs),
(829,120,o),
(875,171,o),
(910,235,cs),
(945,298,o),
(962,369,o),
(962,446,cs),
(962,523,o),
(945,593,o),
(910,656,cs),
(875,719,o),
(829,770,o),
(771,808,cs),
(713,845,o),
(649,864,o),
(578,864,cs),
(507,864,o),
(443,845,o),
(385,808,cs),
(327,770,o),
(281,719,o),
(246,656,cs),
(211,593,o),
(194,523,o),
(194,446,cs),
(194,369,o),
(211,298,o),
(246,235,cs),
(281,171,o),
(327,120,o),
(385,83,cs),
(443,45,o),
(507,26,o),
(578,26,cs)
);
}
);
width = 1156;
}
);
unicode = (54,57455);
}
{
glyphname = seven;
layers = (
{
layerId = "6E2892C3-3C02-46A0-9D36-E256ACFD9F2E";
shapes = (
{
closed = 1;
nodes = (
(166,0,l),
(750,1158,l),
(750,1166,l),
(64,1166,l),
(64,1490,l),
(1170,1490,l),
(1170,1166,l),
(582,0,l)
);
}
);
width = 1226;
},
{
layerId = "F267B978-EB02-4A9B-884E-61DA4654DD4B";
shapes = (
{
closed = 1;
nodes = (
(200,0,l),
(862,1311,l),
(862,1323,l),
(98,1323,l),
(98,1490,l),
(1061,1490,l),
(1061,1313,l),
(400,0,l)
);
}
);
width = 1159;
},
{
layerId = "5994B614-1BA3-4C22-AA0B-9CE5DDB3E1DA";
shapes = (
{
closed = 1;
nodes = (
(227,0,l),
(931,1438,l),
(931,1444,l),
(120,1444,l),
(120,1490,l),
(984,1490,l),
(984,1442,l),
(276,0,l)
);
}
);
width = 1112;
}
);
unicode = 55;
}
{
glyphname = eight;
layers = (
{
layerId = "C2BA7105-123B-4065-95E4-2C8249C8089A";
shapes = (
{
closed = 1;
nodes = (
(574,-20,o),
(467,-1,o),
(373,36,cs),
(279,73,o),
(205,124,o),
(151,188,cs),
(97,252,o),
(70,324,o),
(70,404,cs),
(70,465,o),
(85,522,o),
(116,573,cs),
(177,675,o),
(287,746,o),
(416,766,c),
(416,776,l),
(331,791,o),
(262,830,o),
(207,891,cs),
(152,952,o),
(124,1023,o),
(124,1106,cs),
(124,1184,o),
(149,1253,o),
(198,1314,cs),
(247,1375,o),
(315,1423,o),
(401,1458,cs),
(487,1493,o),
(585,1510,o),
(694,1510,cs),
(804,1510,o),
(902,1493,o),
(989,1458,cs),
(1075,1423,o),
(1143,1375,o),
(1192,1314,cs),
(1241,1253,o),
(1266,1183,o),
(1266,1106,cs),
(1266,1023,o),
(1238,951,o),
(1183,890,cs),
(1127,829,o),
(1057,791,o),
(974,776,c),
(974,766,l),
(1038,756,o),
(1096,734,o),
(1149,700,cs),
(1253,632,o),
(1320,527,o),
(1320,404,cs),
(1320,324,o),
(1293,252,o),
(1239,188,cs),
(1185,124,o),
(1111,73,o),
(1017,36,cs),
(922,-1,o),
(815,-20,o),
(694,-20,cs)
);
},
{
closed = 1;
nodes = (
(733,258,o),
(767,266,o),
(797,282,cs),
(826,297,o),
(850,319,o),
(867,347,cs),
(884,374,o),
(892,405,o),
(892,440,cs),
(892,474,o),
(884,504,o),
(867,531,cs),
(833,583,o),
(771,616,o),
(694,616,cs),
(657,616,o),
(623,609,o),
(594,594,cs),
(534,564,o),
(498,509,o),
(498,440,cs),
(498,405,o),
(507,374,o),
(524,347,cs),
(541,320,o),
(564,298,o),
(594,282,cs),
(623,266,o),
(657,258,o),
(694,258,cs)
);
},
{
closed = 1;
nodes = (
(728,896,o),
(758,903,o),
(785,917,cs),
(811,931,o),
(832,950,o),
(847,975,cs),
(862,1000,o),
(870,1027,o),
(870,1058,cs),
(870,1089,o),
(862,1117,o),
(847,1141,cs),
(816,1189,o),
(762,1218,o),
(694,1218,cs),
(661,1218,o),
(631,1211,o),
(605,1198,cs),
(552,1170,o),
(520,1121,o),
(520,1058,cs),
(520,1027,o),
(528,1000,o),
(543,976,cs),
(558,951,o),
(578,932,o),
(605,918,c),
(631,903,o),
(661,896,o),
(694,896,cs)
);
}
);
width = 1390;
},
{
layerId = "9CF24730-065A-453E-8BED-A6F959227B57";
shapes = (
{
closed = 1;
nodes = (
(532,-20,o),
(444,-2,o),
(367,34,cs),
(290,69,o),
(230,118,o),
(187,181,cs),
(144,244,o),
(122,315,o),
(122,396,cs),
(122,459,o),
(135,517,o),
(160,571,cs),
(211,678,o),
(302,754,o),
(413,774,c),
(413,782,l),
(340,801,o),
(283,841,o),
(240,903,cs),
(197,965,o),
(176,1035,o),
(176,1114,cs),
(176,1190,o),
(196,1258,o),
(235,1318,cs),
(274,1377,o),
(328,1424,o),
(397,1459,cs),
(466,1493,o),
(544,1510,o),
(633,1510,cs),
(720,1510,o),
(798,1493,o),
(867,1459,cs),
(936,1424,o),
(990,1377,o),
(1030,1318,cs),
(1069,1258,o),
(1089,1190,o),
(1089,1114,cs),
(1089,1035,o),
(1068,965,o),
(1025,903,cs),
(982,841,o),
(925,801,o),
(854,782,c),
(854,774,l),
(908,764,o),
(957,741,o),
(1001,705,cs),
(1089,633,o),
(1145,521,o),
(1145,396,cs),
(1145,315,o),
(1123,244,o),
(1080,181,cs),
(1036,118,o),
(976,69,o),
(899,34,cs),
(822,-2,o),
(733,-20,o),
(633,-20,cs)
);
},
{
closed = 1;
nodes = (
(699,145,o),
(756,156,o),
(804,178,cs),
(852,199,o),
(889,230,o),
(916,269,cs),
(942,308,o),
(955,353,o),
(955,406,cs),
(955,461,o),
(941,510,o),
(913,553,cs),
(857,637,o),
(756,689,o),
(633,689,cs),
(570,689,o),
(515,677,o),
(466,653,cs),
(369,604,o),
(309,517,o),
(309,406,cs),
(309,353,o),
(322,308,o),
(348,269,cs),
(374,230,o),
(411,199,o),
(460,178,cs),
(509,156,o),
(566,145,o),
(633,145,cs)
);
},
{
closed = 1;
nodes = (
(686,848,o),
(732,859,o),
(773,880,cs),
(814,901,o),
(846,930,o),
(870,968,cs),
(893,1006,o),
(905,1050,o),
(905,1100,cs),
(905,1150,o),
(894,1193,o),
(871,1230,cs),
(826,1303,o),
(741,1346,o),
(633,1346,cs),
(578,1346,o),
(531,1336,o),
(490,1316,cs),
(408,1275,o),
(360,1200,o),
(360,1100,cs),
(360,1050,o),
(372,1006,o),
(395,968,cs),
(418,930,o),
(450,901,o),
(491,880,cs),
(532,859,o),
(580,848,o),
(633,848,cs)
);
}
);
width = 1267;
},
{
layerId = "01511CED-EE56-4E59-B654-85BB35A5B07B";
shapes = (
{
closed = 1;
nodes = (
(525,-20,o),
(448,-2,o),
(378,35,cs),
(308,71,o),
(252,120,o),
(211,181,cs),
(169,242,o),
(148,309,o),
(148,384,cs),
(148,443,o),
(162,500,o),
(189,553,cs),
(243,659,o),
(341,740,o),
(462,768,c),
(462,774,l),
(385,801,o),
(322,847,o),
(273,912,cs),
(223,977,o),
(198,1050,o),
(198,1132,cs),
(198,1203,o),
(217,1267,o),
(254,1324,cs),
(291,1381,o),
(340,1426,o),
(403,1460,cs),
(465,1493,o),
(534,1510,o),
(610,1510,cs),
(685,1510,o),
(754,1493,o),
(817,1460,cs),
(880,1427,o),
(930,1382,o),
(968,1325,cs),
(1005,1268,o),
(1024,1203,o),
(1024,1132,cs),
(1024,1051,o),
(1000,977,o),
(951,912,cs),
(902,846,o),
(838,800,o),
(760,774,c),
(760,768,l),
(821,755,o),
(875,729,o),
(922,691,cs),
(1017,614,o),
(1074,503,o),
(1074,384,cs),
(1074,309,o),
(1053,242,o),
(1012,181,cs),
(970,120,o),
(914,71,o),
(844,35,cs),
(774,-2,o),
(696,-20,o),
(610,-20,cs)
);
},
{
closed = 1;
nodes = (
(688,26,o),
(758,42,o),
(821,75,cs),
(884,108,o),
(934,151,o),
(971,206,cs),
(1008,261,o),
(1026,321,o),
(1026,386,cs),
(1026,453,o),
(1008,513,o),
(971,568,cs),
(897,677,o),
(766,748,o),
(610,748,cs),
(533,748,o),
(463,732,o),
(400,699,cs),
(274,634,o),
(194,519,o),
(194,386,cs),
(194,321,o),
(213,261,o),
(250,206,cs),
(287,151,o),
(338,108,o),
(401,75,cs),
(464,42,o),
(533,26,o),
(610,26,cs)
);
},
{
closed = 1;
nodes = (
(677,788,o),
(739,804,o),
(795,836,cs),
(850,867,o),
(895,909,o),
(928,961,cs),
(961,1013,o),
(978,1070,o),
(978,1132,cs),
(978,1194,o),
(961,1250,o),
(928,1301,cs),
(861,1401,o),
(745,1464,o),
(610,1464,cs),
(543,1464,o),
(482,1449,o),
(427,1420,cs),
(315,1361,o),
(244,1256,o),
(244,1132,cs),
(244,1070,o),
(261,1013,o),
(294,961,cs),
(327,909,o),
(371,867,o),
(427,836,cs),
(482,804,o),
(543,788,o),
(610,788,cs)
);
}
);
width = 1222;
}
);
rightKerningGroup = public.kern1.three;
unicode = 56;
}
{
glyphname = nine.ss01;
layers = (
{
layerId = "DF515781-E436-4A88-B51E-316BD4FA0343";
shapes = (
{
closed = 1;
nodes = (
(779,1510,o),
(876,1491,o),
(967,1453,cs),
(1057,1415,o),
(1130,1358,o),
(1186,1283,cs),
(1242,1207,o),
(1270,1112,o),
(1270,998,cs),
(1270,914,o),
(1254,833,o),
(1223,756,cs),
(1192,679,o),
(1149,601,o),
(1096,522,cs),
(744,0,l),
(348,0,l),
(790,650,l),
(928,650,l),
(913,629,o),
(889,609,o),
(856,588,cs),
(788,546,o),
(687,514,o),
(566,514,cs),
(474,514,o),
(393,532,o),
(322,569,cs),
(251,605,o),
(195,658,o),
(155,727,cs),
(114,796,o),
(94,880,o),
(94,978,cs),
(94,1087,o),
(119,1181,o),
(169,1261,cs),
(219,1340,o),
(288,1402,o),
(376,1445,cs),
(463,1488,o),
(563,1510,o),
(674,1510,cs)
);
},
{
closed = 1;
nodes = (
(638,1204,o),
(602,1195,o),
(571,1177,cs),
(540,1158,o),
(515,1133,o),
(497,1102,cs),
(479,1070,o),
(470,1033,o),
(470,992,cs),
(470,951,o),
(479,915,o),
(497,883,cs),
(515,851,o),
(540,826,o),
(571,808,cs),
(602,789,o),
(638,780,o),
(678,780,cs),
(717,780,o),
(753,789,o),
(784,808,cs),
(815,826,o),
(839,851,o),
(857,883,cs),
(875,915,o),
(884,951,o),
(884,992,cs),
(884,1033,o),
(875,1070,o),
(857,1102,cs),
(839,1133,o),
(815,1158,o),
(784,1177,cs),
(753,1195,o),
(717,1204,o),
(678,1204,cs)
);
}
);
width = 1340;
},
{
layerId = "6C060D37-EA61-4F06-B959-8B1B04C15508";
shapes = (
{
closed = 1;
nodes = (
(687,1510,o),
(769,1489,o),
(840,1447,cs),
(911,1405,o),
(967,1347,o),
(1008,1273,cs),
(1049,1198,o),
(1069,1113,o),
(1069,1017,cs),
(1069,946,o),
(1054,872,o),
(1023,793,cs),
(992,714,o),
(937,615,o),
(857,497,cs),
(520,0,l),
(315,0,l),
(813,727,l),
(831,727,l),
(818,699,o),
(798,674,o),
(773,651,cs),
(721,605,o),
(651,575,o),
(571,575,cs),
(481,575,o),
(402,594,o),
(335,632,cs),
(268,669,o),
(215,722,o),
(178,791,cs),
(141,859,o),
(122,939,o),
(122,1032,cs),
(122,1125,o),
(143,1207,o),
(184,1279,cs),
(225,1350,o),
(281,1407,o),
(352,1448,cs),
(423,1489,o),
(504,1510,o),
(595,1510,cs)
);
},
{
closed = 1;
nodes = (
(538,1347,o),
(488,1333,o),
(444,1306,cs),
(400,1279,o),
(366,1241,o),
(341,1194,cs),
(316,1147,o),
(303,1093,o),
(303,1032,cs),
(303,970,o),
(316,915,o),
(341,868,cs),
(366,821,o),
(400,784,o),
(444,757,cs),
(488,730,o),
(538,717,o),
(595,717,cs),
(652,717,o),
(703,730,o),
(748,757,cs),
(792,783,o),
(827,820,o),
(852,867,cs),
(877,914,o),
(889,967,o),
(889,1028,cs),
(889,1090,o),
(877,1145,o),
(852,1193,cs),
(827,1241,o),
(792,1279,o),
(748,1306,cs),
(704,1333,o),
(653,1347,o),
(595,1347,cs)
);
}
);
width = 1191;
},
{
layerId = "D5D2BA9E-C9D4-4EBC-A272-0297FDC83579";
shapes = (
{
closed = 1;
nodes = (
(657,1510,o),
(730,1489,o),
(795,1448,cs),
(860,1406,o),
(911,1350,o),
(950,1279,cs),
(989,1208,o),
(1008,1130,o),
(1008,1044,cs),
(1008,988,o),
(999,935,o),
(981,886,cs),
(963,836,o),
(939,790,o),
(910,748,cs),
(394,0,l),
(338,0,l),
(810,682,l),
(820,682,l),
(811,667,o),
(796,652,o),
(775,637,cs),
(731,605,o),
(665,580,o),
(578,580,cs),
(499,580,o),
(427,601,o),
(362,643,cs),
(297,684,o),
(245,740,o),
(206,811,cs),
(167,881,o),
(148,959,o),
(148,1044,cs),
(148,1130,o),
(167,1208,o),
(206,1279,cs),
(245,1350,o),
(297,1406,o),
(362,1448,cs),
(427,1489,o),
(499,1510,o),
(578,1510,cs)
);
},
{
closed = 1;
nodes = (
(508,1464,o),
(444,1445,o),
(386,1408,cs),
(327,1370,o),
(281,1319,o),
(246,1256,cs),
(211,1192,o),
(194,1121,o),
(194,1044,cs),
(194,967,o),
(211,897,o),
(246,834,cs),
(281,771,o),
(327,720,o),
(386,683,cs),
(444,645,o),
(508,626,o),
(578,626,cs),
(649,626,o),
(713,645,o),
(771,683,cs),
(829,720,o),
(875,771,o),
(910,834,cs),
(945,897,o),
(962,967,o),
(962,1044,cs),
(962,1121,o),
(945,1192,o),
(910,1256,cs),
(875,1319,o),
(829,1370,o),
(771,1408,cs),
(713,1445,o),
(649,1464,o),
(578,1464,cs)
);
}
);
width = 1156;
}
);
leftKerningGroup = public.kern2.paragraph;
unicode = (57,57456);
}
{
glyphname = less;
layers = (
{
layerId = "6E2892C3-3C02-46A0-9D36-E256ACFD9F2E";
shapes = (
{
closed = 1;
nodes = (
(160,430,l),
(160,780,l),
(1242,1214,l),
(1242,846,l),
(554,608,l),
(566,626,l),
(566,584,l),
(554,602,l),
(1242,364,l),
(1242,-2,l)
);
}
);
width = 1420;
},
{
layerId = "F267B978-EB02-4A9B-884E-61DA4654DD4B";
shapes = (
{
closed = 1;
nodes = (
(174,520,l),
(174,646,l),
(1118,1122,l),
(1118,926,l),
(400,585,l),
(406,597,l),
(406,569,l),
(400,579,l),
(1118,238,l),
(1118,44,l)
);
}
);
width = 1355;
},
{
layerId = "5994B614-1BA3-4C22-AA0B-9CE5DDB3E1DA";
shapes = (
{
closed = 1;
nodes = (
(214,558,l),
(214,606,l),
(1010,1122,l),
(1010,1068,l),
(256,578,l),
(266,594,l),
(266,570,l),
(256,584,l),
(1010,96,l),
(1010,40,l)
);
}
);
width = 1304;
}
);
unicode = 60;
}
{
glyphname = equal;
layers = (
{
layerId = "DD6EF60E-12CE-4CFD-A219-13982E9D034C";
shapes = (
{
closed = 1;
nodes = (
(172,702,l),
(172,1026,l),
(1248,1026,l),
(1248,702,l)
);
},
{
closed = 1;
nodes = (
(172,184,l),
(172,510,l),
(1248,510,l),
(1248,184,l)
);
}
);
width = 1420;
},
{
layerId = "09B6B0AE-BF01-4DA1-8E4B-D236F68CE7ED";
shapes = (
{
closed = 1;
nodes = (
(226,717,l),
(226,883,l),
(1130,883,l),
(1130,717,l)
);
},
{
closed = 1;
nodes = (
(226,283,l),
(226,449,l),
(1130,449,l),
(1130,283,l)
);
}
);
width = 1355;
},
{
layerId = "35B86B34-8686-44F8-9959-14CD414BA805";
shapes = (
{
closed = 1;
nodes = (
(306,754,l),
(306,800,l),
(998,800,l),
(998,754,l)
);
},
{
closed = 1;
nodes = (
(306,364,l),
(306,410,l),
(998,410,l),
(998,364,l)
);
}
);
width = 1304;
}
);
leftKerningGroup = equal2;
rightKerningGroup = equal;
unicode = 61;
}
{
glyphname = greater;
layers = (
{
layerId = "C940992A-BC26-484D-9AD3-39561C0256D5";
shapes = (
{
closed = 1;
nodes = (
(1260,430,l),
(178,-2,l),
(178,364,l),
(868,602,l),
(856,584,l),
(856,626,l),
(868,608,l),
(178,846,l),
(178,1214,l),
(1260,780,l)
);
}
);
width = 1420;
},
{
layerId = "9514E43D-89D9-4083-9B59-14FFE90A8056";
shapes = (
{
closed = 1;
nodes = (
(1181,520,l),
(237,44,l),
(237,238,l),
(956,579,l),
(949,569,l),
(949,597,l),
(956,585,l),
(237,926,l),
(237,1122,l),
(1181,646,l)
);
}
);
width = 1355;
},
{
layerId = "F1B44250-5A04-4AFC-8A77-A7E8F224F396";
shapes = (
{
closed = 1;
nodes = (
(1090,558,l),
(294,40,l),
(294,96,l),
(1046,584,l),
(1038,570,l),
(1038,594,l),
(1046,578,l),
(294,1068,l),
(294,1122,l),
(1090,606,l)
);
}
);
width = 1304;
}
);
unicode = 62;
}
{
glyphname = question;
layers = (
{
layerId = "D8A92F70-7B12-4FFB-B168-20459808C763";
shapes = (
{
closed = 1;
nodes = (
(738,466,l),
(738,500,ls),
(738,616,o),
(793,674,o),
(898,736,cs),
(1041,819,o),
(1138,923,o),
(1138,1100,cs),
(1138,1373,o),
(907,1510,o),
(596,1510,cs),
(313,1510,o),
(76,1376,o),
(76,1056,c),
(448,1056,l),
(448,1140,o),
(515,1198,o),
(594,1198,cs),
(666,1198,o),
(724,1149,o),
(724,1076,cs),
(724,995,o),
(654,945,o),
(562,884,cs),
(453,814,o),
(396,740,o),
(396,500,cs),
(396,466,l)
);
},
{
closed = 1;
nodes = (
(771,0,l),
(771,351,l),
(363,351,l),
(363,0,l)
);
}
);
width = 1230;
},
{
layerId = "F2144881-BF72-4154-AA19-0D7773A1BBB5";
shapes = (
{
closed = 1;
nodes = (
(564,449,l),
(564,460,ls),
(564,637,o),
(613,686,o),
(742,765,cs),
(871,844,o),
(945,956,o),
(945,1117,cs),
(945,1345,o),
(777,1510,o),
(518,1510,cs),
(282,1510,o),
(92,1366,o),
(82,1115,c),
(272,1115,l),
(283,1281,o),
(400,1351,o),
(518,1351,cs),
(653,1351,o),
(761,1263,o),
(761,1124,cs),
(761,1008,o),
(693,927,o),
(605,874,cs),
(467,791,o),
(383,733,o),
(383,460,cs),
(383,449,l)
);
},
{
closed = 1;
nodes = (
(586,0,l),
(586,232,l),
(352,232,l),
(352,0,l)
);
}
);
width = 1047;
},
{
layerId = "6534D9E7-D8F5-49CB-AE3D-9F113790C5C9";
shapes = (
{
closed = 1;
nodes = (
(472,442,l),
(472,544,ls),
(472,662,o),
(510,723,o),
(648,824,cs),
(807,937,o),
(864,1023,o),
(864,1146,cs),
(864,1356,o),
(699,1510,o),
(486,1510,cs),
(263,1510,o),
(96,1341,o),
(96,1118,c),
(142,1118,l),
(142,1315,o),
(288,1464,o),
(486,1464,cs),
(673,1464,o),
(818,1331,o),
(818,1146,cs),
(818,1041,o),
(770,965,o),
(622,862,cs),
(473,756,o),
(424,678,o),
(424,544,cs),
(424,442,l)
);
},
{
closed = 1;
nodes = (
(493,0,l),
(493,90,l),
(403,90,l),
(403,0,l)
);
}
);
width = 980;
}
);
leftKerningGroup = uni203D_2;
rightKerningGroup = uni203D;
unicode = (63,58032);
}
{
glyphname = at;
layers = (
{
layerId = "DD6EF60E-12CE-4CFD-A219-13982E9D034C";
shapes = (
{
closed = 1;
nodes = (
(763,-456,o),
(513,-368,o),
(338,-203,cs),
(163,-38,o),
(70,203,o),
(70,508,cs),
(70,799,o),
(156,1048,o),
(325,1229,cs),
(494,1409,o),
(748,1514,o),
(1081,1514,cs),
(1382,1514,o),
(1635,1429,o),
(1816,1271,cs),
(1996,1113,o),
(2098,886,o),
(2098,605,cs),
(2098,417,o),
(2053,273,o),
(1970,174,cs),
(1929,125,o),
(1879,87,o),
(1821,62,cs),
(1762,37,o),
(1697,24,o),
(1625,24,cs),
(1574,24,o),
(1531,30,o),
(1494,43,cs),
(1457,56,o),
(1427,75,o),
(1405,100,cs),
(1383,125,o),
(1369,155,o),
(1362,191,c),
(1354,191,l),
(1335,135,o),
(1297,92,o),
(1238,62,cs),
(1179,31,o),
(1108,16,o),
(1027,16,cs),
(934,16,o),
(853,36,o),
(786,77,cs),
(718,117,o),
(666,175,o),
(630,250,cs),
(593,325,o),
(575,414,o),
(575,518,cs),
(575,624,o),
(594,716,o),
(631,795,cs),
(668,874,o),
(721,935,o),
(790,978,cs),
(858,1021,o),
(938,1043,o),
(1029,1043,cs),
(1096,1043,o),
(1154,1031,o),
(1205,1008,cs),
(1256,984,o),
(1291,949,o),
(1312,903,c),
(1323,903,l),
(1323,1021,l),
(1571,1021,l),
(1571,333,ls),
(1571,307,o),
(1575,290,o),
(1583,281,cs),
(1590,272,o),
(1604,267,o),
(1625,267,cs),
(1662,267,o),
(1692,278,o),
(1715,300,cs),
(1762,343,o),
(1784,431,o),
(1784,566,cs),
(1784,786,o),
(1727,948,o),
(1615,1055,cs),
(1503,1162,o),
(1336,1214,o),
(1119,1214,cs),
(876,1214,o),
(696,1150,o),
(576,1031,cs),
(456,912,o),
(396,740,o),
(396,524,cs),
(396,303,o),
(458,134,o),
(579,19,cs),
(700,-96,o),
(879,-154,o),
(1114,-154,cs),
(1170,-154,o),
(1223,-151,o),
(1272,-145,cs),
(1371,-132,o),
(1456,-108,o),
(1524,-77,c),
(1634,-342,l),
(1599,-361,o),
(1554,-379,o),
(1499,-397,cs),
(1390,-432,o),
(1247,-456,o),
(1078,-456,cs)
);
},
{
closed = 1;
nodes = (
(1121,280,o),
(1160,290,o),
(1193,309,cs),
(1226,328,o),
(1251,355,o),
(1268,391,cs),
(1285,426,o),
(1294,469,o),
(1294,519,cs),
(1294,570,o),
(1286,612,o),
(1269,647,cs),
(1252,681,o),
(1227,707,o),
(1194,725,cs),
(1161,742,o),
(1121,751,o),
(1074,751,cs),
(1027,751,o),
(988,742,o),
(955,725,cs),
(922,707,o),
(897,681,o),
(880,647,cs),
(863,613,o),
(854,571,o),
(854,520,cs),
(854,469,o),
(863,426,o),
(880,391,cs),
(897,355,o),
(922,328,o),
(955,309,cs),
(988,290,o),
(1027,280,o),
(1074,280,cs)
);
}
);
width = 2168;
},
{
layerId = "09B6B0AE-BF01-4DA1-8E4B-D236F68CE7ED";
shapes = (
{
closed = 1;
nodes = (
(747,-395,o),
(516,-312,o),
(360,-156,cs),
(203,1,o),
(122,232,o),
(122,525,cs),
(122,809,o),
(205,1037,o),
(361,1195,cs),
(516,1353,o),
(740,1438,o),
(1023,1438,cs),
(1298,1438,o),
(1505,1343,o),
(1645,1192,cs),
(1785,1040,o),
(1856,843,o),
(1856,640,cs),
(1856,497,o),
(1846,348,o),
(1800,229,cs),
(1777,169,o),
(1742,121,o),
(1697,85,cs),
(1651,48,o),
(1589,30,o),
(1512,30,cs),
(1477,30,o),
(1440,35,o),
(1399,46,cs),
(1358,57,o),
(1323,74,o),
(1292,99,cs),
(1261,124,o),
(1242,157,o),
(1236,198,c),
(1228,198,l),
(1211,155,o),
(1180,118,o),
(1135,86,cs),
(1090,53,o),
(1030,37,o),
(955,37,cs),
(866,37,o),
(792,59,o),
(733,103,cs),
(673,147,o),
(628,207,o),
(598,282,cs),
(567,357,o),
(552,441,o),
(552,535,cs),
(552,624,o),
(570,704,o),
(606,775,cs),
(641,846,o),
(690,902,o),
(753,943,cs),
(815,984,o),
(886,1004,o),
(965,1004,cs),
(1029,1004,o),
(1083,992,o),
(1126,969,cs),
(1169,946,o),
(1199,921,o),
(1217,896,c),
(1227,896,l),
(1227,980,l),
(1385,980,l),
(1385,321,ls),
(1385,281,o),
(1396,246,o),
(1419,216,cs),
(1441,186,o),
(1473,171,o),
(1516,171,cs),
(1565,171,o),
(1602,188,o),
(1628,221,cs),
(1680,288,o),
(1697,425,o),
(1697,642,cs),
(1697,807,o),
(1642,968,o),
(1530,1092,cs),
(1418,1216,o),
(1248,1294,o),
(1017,1294,cs),
(788,1294,o),
(606,1222,o),
(481,1089,cs),
(356,956,o),
(289,763,o),
(289,520,cs),
(289,275,o),
(355,82,o),
(484,-50,cs),
(613,-181,o),
(803,-250,o),
(1051,-250,cs),
(1104,-250,o),
(1157,-245,o),
(1208,-235,cs),
(1310,-215,o),
(1394,-186,o),
(1433,-173,c),
(1476,-313,l),
(1445,-326,o),
(1406,-338,o),
(1358,-351,cs),
(1261,-376,o),
(1145,-395,o),
(1044,-395,cs)
);
},
{
closed = 1;
nodes = (
(1027,190,o),
(1079,203,o),
(1119,229,cs),
(1158,255,o),
(1187,294,o),
(1206,347,cs),
(1224,399,o),
(1233,464,o),
(1233,543,cs),
(1233,623,o),
(1223,686,o),
(1203,731,cs),
(1183,776,o),
(1153,807,o),
(1114,826,c),
(1074,844,o),
(1025,853,o),
(967,853,cs),
(912,853,o),
(866,839,o),
(827,811,cs),
(788,782,o),
(759,745,o),
(738,698,cs),
(717,651,o),
(707,599,o),
(707,543,cs),
(707,482,o),
(715,424,o),
(732,370,cs),
(749,316,o),
(776,273,o),
(813,240,cs),
(850,207,o),
(900,190,o),
(962,190,cs)
);
}
);
width = 1978;
},
{
layerId = "35B86B34-8686-44F8-9959-14CD414BA805";
shapes = (
{
closed = 1;
nodes = (
(769,-396,o),
(556,-296,o),
(399,-128,cs),
(242,40,o),
(148,266,o),
(148,518,cs),
(148,771,o),
(242,997,o),
(399,1165,cs),
(556,1332,o),
(769,1432,o),
(1006,1432,cs),
(1242,1432,o),
(1454,1332,o),
(1611,1165,cs),
(1768,997,o),
(1862,771,o),
(1862,518,cs),
(1862,386,o),
(1825,271,o),
(1762,188,cs),
(1730,146,o),
(1692,114,o),
(1649,91,cs),
(1606,68,o),
(1558,56,o),
(1506,56,cs),
(1467,56,o),
(1437,63,o),
(1414,77,cs),
(1391,91,o),
(1375,115,o),
(1365,148,cs),
(1355,181,o),
(1350,225,o),
(1350,280,c),
(1344,280,l),
(1309,207,o),
(1260,148,o),
(1197,103,cs),
(1134,57,o),
(1063,34,o),
(986,34,cs),
(909,34,o),
(840,56,o),
(778,99,cs),
(715,142,o),
(666,201,o),
(629,274,cs),
(592,347,o),
(573,429,o),
(573,518,cs),
(573,607,o),
(592,688,o),
(629,761,cs),
(666,834,o),
(715,892,o),
(778,935,cs),
(840,978,o),
(909,1000,o),
(986,1000,cs),
(1063,1000,o),
(1134,978,o),
(1197,933,cs),
(1260,888,o),
(1309,828,o),
(1344,754,c),
(1350,754,l),
(1350,986,l),
(1396,986,l),
(1396,280,ls),
(1396,209,o),
(1404,161,o),
(1419,138,cs),
(1434,114,o),
(1463,102,o),
(1506,102,cs),
(1565,102,o),
(1618,120,o),
(1665,156,cs),
(1758,228,o),
(1816,359,o),
(1816,518,cs),
(1816,758,o),
(1727,973,o),
(1578,1132,cs),
(1429,1291,o),
(1229,1386,o),
(1006,1386,cs),
(782,1386,o),
(581,1291,o),
(432,1132,cs),
(283,973,o),
(194,758,o),
(194,518,cs),
(194,278,o),
(283,63,o),
(432,-96,cs),
(581,-255,o),
(782,-350,o),
(1006,-350,cs),
(1059,-350,o),
(1112,-345,o),
(1163,-334,cs),
(1265,-312,o),
(1361,-269,o),
(1448,-206,c),
(1478,-244,l),
(1431,-277,o),
(1382,-304,o),
(1331,-327,cs),
(1228,-372,o),
(1119,-396,o),
(1006,-396,cs)
);
},
{
closed = 1;
nodes = (
(1053,80,o),
(1115,100,o),
(1170,139,cs),
(1225,178,o),
(1268,231,o),
(1301,298,cs),
(1334,364,o),
(1350,437,o),
(1350,518,cs),
(1350,599,o),
(1334,672,o),
(1301,738,cs),
(1268,803,o),
(1224,856,o),
(1169,895,cs),
(1114,934,o),
(1053,954,o),
(986,954,cs),
(919,954,o),
(858,934,o),
(803,895,cs),
(747,856,o),
(702,803,o),
(669,738,cs),
(636,672,o),
(619,599,o),
(619,518,cs),
(619,437,o),
(636,364,o),
(669,298,cs),
(702,231,o),
(747,178,o),
(803,139,cs),
(858,100,o),
(919,80,o),
(986,80,cs)
);
}
);
width = 2010;
}
);
leftKerningGroup = C2;
rightKerningGroup = D;
unicode = 64;
}
{
glyphname = A;
layers = (
{
anchors = (
{
name = m.uni0326;
position = "{921, 0}";
},
{
name = m.uni030F_1;
position = "{921, 1490}";
},
{
name = m.uni0328_4;
position = "{1829, 0}";
}
);
layerId = "DF515781-E436-4A88-B51E-316BD4FA0343";
shapes = (
{
closed = 1;
nodes = (
(46,0,l),
(529,1490,l),
(1081,1490,l),
(1582,0,l),
(1124,0,l),
(951,578,ls),
(914,703,o),
(879,834,o),
(846,969,cs),
(813,1104,o),
(782,1238,o),
(753,1371,c),
(845,1371,l),
(789,1104,o),
(735,829,o),
(663,578,cs),
(498,0,l)
);
},
{
closed = 1;
nodes = (
(404,286,l),
(404,588,l),
(1224,588,l),
(1224,286,l)
);
}
);
width = 1628;
},
{
anchors = (
{
name = m.uni0326;
position = "{955, 0}";
},
{
name = m.uni030F_1;
position = "{955, 1490}";
},
{
name = m.uni0328_4;
position = "{1872, 0}";
}
);
layerId = "6C060D37-EA61-4F06-B959-8B1B04C15508";
shapes = (
{
closed = 1;
nodes = (
(52,0,l),
(593,1490,l),
(813,1490,l),
(1361,0,l),
(1161,0,l),
(845,884,ls),
(826,939,o),
(803,1007,o),
(778,1089,cs),
(752,1170,o),
(721,1274,o),
(684,1401,c),
(720,1401,l),
(648,1145,o),
(596,985,o),
(561,884,cs),
(254,0,l)
);
},
{
closed = 1;
nodes = (
(324,416,l),
(324,582,l),
(1089,582,l),
(1089,416,l)
);
}
);
width = 1413;
},
{
anchors = (
{
name = m.uni0326;
position = "{875, 0}";
},
{
name = m.uni030F_1;
position = "{875, 1490}";
},
{
name = m.uni0328_4;
position = "{1678, 0}";
}
);
layerId = "D5D2BA9E-C9D4-4EBC-A272-0297FDC83579";
shapes = (
{
closed = 1;
nodes = (
(66,0,l),
(623,1490,l),
(686,1490,l),
(1244,0,l),
(1195,0,l),
(763,1154,ls),
(743,1207,o),
(723,1261,o),
(704,1314,cs),
(684,1367,o),
(664,1421,o),
(645,1474,c),
(663,1474,l),
(624,1367,o),
(585,1261,o),
(545,1154,cs),
(115,0,l)
);
},
{
closed = 1;
nodes = (
(285,496,l),
(285,542,l),
(1025,542,l),
(1025,496,l)
);
}
);
width = 1310;
}
);
leftKerningGroup = public.kern2.A2;
rightKerningGroup = public.kern1.A;
unicode = 65;
}
{
glyphname = B;
layers = (
{
anchors = (
{
name = m.uni0326;
position = "{676, 0}";
},
{
name = m.uni030F_1;
position = "{688, 1490}";
}
);
layerId = "5004196B-162C-4C82-BCAB-67337630B14F";
shapes = (
{
closed = 1;
nodes = (
(96,0,l),
(96,1490,l),
(742,1490,ls),
(855,1490,o),
(951,1475,o),
(1028,1444,cs),
(1183,1383,o),
(1262,1269,o),
(1262,1118,cs),
(1262,1063,o),
(1250,1013,o),
(1226,968,cs),
(1178,877,o),
(1090,815,o),
(974,792,c),
(974,776,l),
(1038,774,o),
(1096,758,o),
(1149,729,cs),
(1201,699,o),
(1243,658,o),
(1274,606,cs),
(1305,553,o),
(1320,492,o),
(1320,422,cs),
(1320,341,o),
(1299,268,o),
(1257,205,cs),
(1173,77,o),
(1014,0,o),
(798,0,cs)
);
},
{
closed = 1;
nodes = (
(500,322,l),
(690,322,ls),
(757,322,o),
(808,335,o),
(843,361,cs),
(877,387,o),
(894,425,o),
(894,474,cs),
(894,509,o),
(886,539,o),
(870,564,cs),
(838,612,o),
(777,638,o),
(696,638,cs),
(500,638,l)
);
},
{
closed = 1;
nodes = (
(500,888,l),
(666,888,ls),
(701,888,o),
(733,894,o),
(760,905,cs),
(814,927,o),
(846,969,o),
(846,1030,cs),
(846,1075,o),
(830,1110,o),
(797,1135,cs),
(764,1160,o),
(722,1172,o),
(672,1172,cs),
(500,1172,l)
);
}
);
width = 1368;
},
{
anchors = (
{
name = m.uni0326;
position = "{691, 0}";
},
{
name = m.uni030F_1;
position = "{703, 1490}";
}
);
layerId = "B1312A1D-33BE-4648-8D8B-BF9AFD6F3133";
shapes = (
{
closed = 1;
nodes = (
(180,0,l),
(180,1490,l),
(708,1490,ls),
(812,1490,o),
(898,1472,o),
(966,1437,cs),
(1101,1365,o),
(1166,1240,o),
(1166,1095,cs),
(1166,1031,o),
(1155,978,o),
(1132,937,cs),
(1087,853,o),
(1009,806,o),
(922,782,c),
(922,768,l),
(969,765,o),
(1015,749,o),
(1062,720,cs),
(1108,691,o),
(1147,649,o),
(1178,595,cs),
(1209,541,o),
(1224,475,o),
(1224,397,cs),
(1224,322,o),
(1207,255,o),
(1173,195,cs),
(1104,75,o),
(960,0,o),
(725,0,cs)
);
},
{
closed = 1;
nodes = (
(370,168,l),
(720,168,ls),
(836,168,o),
(919,190,o),
(968,235,cs),
(1017,280,o),
(1041,334,o),
(1041,399,cs),
(1041,449,o),
(1028,495,o),
(1003,537,cs),
(952,621,o),
(858,676,o),
(730,676,cs),
(370,676,l)
);
},
{
closed = 1;
nodes = (
(370,836,l),
(698,836,ls),
(751,836,o),
(800,847,o),
(843,868,cs),
(930,910,o),
(984,988,o),
(984,1091,cs),
(984,1156,o),
(962,1210,o),
(917,1255,cs),
(872,1300,o),
(801,1322,o),
(704,1322,cs),
(370,1322,l)
);
}
);
width = 1340;
},
{
anchors = (
{
name = m.uni0326;
position = "{654, 0}";
},
{
name = m.uni030F_1;
position = "{646, 1479}";
}
);
layerId = "3CB5008A-C4A1-41CB-9BE0-5E5E5E92B0B4";
shapes = (
{
closed = 1;
nodes = (
(232,0,l),
(232,1490,l),
(696,1490,ls),
(779,1490,o),
(851,1475,o),
(910,1445,cs),
(1029,1384,o),
(1094,1268,o),
(1094,1112,cs),
(1094,1053,o),
(1085,1000,o),
(1068,951,c),
(1032,854,o),
(964,784,o),
(868,760,c),
(868,754,l),
(917,749,o),
(964,731,o),
(1007,698,cs),
(1050,665,o),
(1085,621,o),
(1112,567,cs),
(1139,512,o),
(1152,451,o),
(1152,382,cs),
(1152,305,o),
(1136,238,o),
(1104,181,cs),
(1040,66,o),
(917,0,o),
(746,0,cs)
);
},
{
closed = 1;
nodes = (
(278,46,l),
(746,46,ls),
(855,46,o),
(943,77,o),
(1008,139,cs),
(1073,200,o),
(1106,281,o),
(1106,382,cs),
(1106,451,o),
(1091,512,o),
(1060,565,cs),
(999,671,o),
(886,734,o),
(746,734,cs),
(278,734,l)
);
},
{
closed = 1;
nodes = (
(278,780,l),
(746,780,ls),
(814,780,o),
(870,795,o),
(915,826,cs),
(1004,887,o),
(1048,993,o),
(1048,1112,cs),
(1048,1217,o),
(1017,1299,o),
(954,1357,cs),
(891,1415,o),
(805,1444,o),
(696,1444,cs),
(278,1444,l)
);
}
);
width = 1310;
}
);
leftKerningGroup = B2;
rightKerningGroup = B;
unicode = 66;
}
{
glyphname = D;
layers = (
{
anchors = (
{
name = m.uni0326;
position = "{750, 0}";
},
{
name = m.uni030F_1;
position = "{596, 1490}";
}
);
layerId = "DD6EF60E-12CE-4CFD-A219-13982E9D034C";
shapes = (
{
closed = 1;
nodes = (
(262,0,l),
(262,344,l),
(654,344,ls),
(728,344,o),
(791,356,o),
(844,379,cs),
(948,426,o),
(1004,537,o),
(1004,744,cs),
(1004,848,o),
(990,929,o),
(962,988,cs),
(906,1104,o),
(798,1146,o),
(642,1146,cs),
(256,1146,l),
(256,1490,l),
(664,1490,ls),
(817,1490,o),
(950,1460,o),
(1061,1401,cs),
(1284,1281,o),
(1410,1055,o),
(1410,744,cs),
(1410,589,o),
(1380,456,o),
(1320,345,cs),
(1199,122,o),
(973,0,o),
(670,0,cs)
);
},
{
closed = 1;
nodes = (
(500,1490,l),
(500,0,l),
(96,0,l),
(96,1490,l)
);
}
);
width = 1480;
},
{
anchors = (
{
name = m.uni0326;
position = "{788, 0}";
},
{
name = m.uni030F_1;
position = "{631, 1490}";
}
);
layerId = "09B6B0AE-BF01-4DA1-8E4B-D236F68CE7ED";
shapes = (
{
closed = 1;
nodes = (
(285,0,l),
(285,168,l),
(633,168,ls),
(754,168,o),
(855,191,o),
(935,238,cs),
(1094,330,o),
(1172,507,o),
(1172,748,cs),
(1172,867,o),
(1153,970,o),
(1114,1056,cs),
(1036,1227,o),
(882,1322,o),
(651,1322,cs),
(277,1322,l),
(277,1490,l),
(664,1490,ls),
(809,1490,o),
(934,1460,o),
(1037,1401,cs),
(1243,1282,o),
(1356,1056,o),
(1356,748,cs),
(1356,593,o),
(1328,459,o),
(1273,348,cs),
(1162,124,o),
(948,0,o),
(645,0,cs)
);
},
{
closed = 1;
nodes = (
(370,1490,l),
(370,0,l),
(180,0,l),
(180,1490,l)
);
}
);
width = 1478;
},
{
anchors = (
{
name = m.uni0326;
position = "{724, 0}";
},
{
name = m.uni030F_1;
position = "{663, 1490}";
}
);
layerId = "35B86B34-8686-44F8-9959-14CD414BA805";
shapes = (
{
closed = 1;
nodes = (
(256,0,l),
(256,46,l),
(622,46,ls),
(760,46,o),
(877,74,o),
(974,130,cs),
(1166,242,o),
(1268,457,o),
(1268,750,cs),
(1268,895,o),
(1244,1020,o),
(1197,1123,cs),
(1101,1330,o),
(919,1444,o),
(660,1444,cs),
(256,1444,l),
(256,1490,l),
(660,1490,ls),
(797,1490,o),
(915,1461,o),
(1012,1402,cs),
(1207,1284,o),
(1314,1059,o),
(1314,750,cs),
(1314,592,o),
(1287,457,o),
(1233,345,cs),
(1124,121,o),
(914,0,o),
(622,0,cs)
);
},
{
closed = 1;
nodes = (
(278,1490,l),
(278,0,l),
(232,0,l),
(232,1490,l)
);
}
);
width = 1462;
}
);
leftKerningGroup = B2;
rightKerningGroup = D;
unicode = 68;
}
{
glyphname = E;
layers = (
{
anchors = (
{
name = m.uni0326;
position = "{658, 0}";
},
{
name = m.uni030F_1;
position = "{658, 1490}";
},
{
name = m.uni0327_3;
position = "{647, 0}";
},
{
name = m.uni0328_4;
position = "{1283, 0}";
}
);
layerId = "D8A92F70-7B12-4FFB-B168-20459808C763";
shapes = (
{
closed = 1;
nodes = (
(96,0,l),
(96,1490,l),
(1170,1490,l),
(1170,1164,l),
(500,1164,l),
(500,912,l),
(1114,912,l),
(1114,594,l),
(500,594,l),
(500,326,l),
(1166,326,l),
(1166,0,l)
);
}
);
width = 1255;
},
{
anchors = (
{
name = m.uni0326;
position = "{665, 0}";
},
{
name = m.uni030F_1;
position = "{665, 1490}";
},
{
name = m.uni0327_3;
position = "{643, 0}";
},
{
name = m.uni0328_4;
position = "{1263, 0}";
}
);
layerId = "F2144881-BF72-4154-AA19-0D7773A1BBB5";
shapes = (
{
closed = 1;
nodes = (
(180,0,l),
(180,1490,l),
(1088,1490,l),
(1088,1322,l),
(370,1322,l),
(370,836,l),
(1039,836,l),
(1039,668,l),
(370,668,l),
(370,168,l),
(1097,168,l),
(1097,0,l)
);
}
);
width = 1231;
},
{
anchors = (
{
name = m.uni0326;
position = "{660, 0}";
},
{
name = m.uni030F_1;
position = "{660, 1490}";
},
{
name = m.uni0327_3;
position = "{613, 0}";
},
{
name = m.uni0328_4;
position = "{1147, 0}";
}
);
layerId = "6534D9E7-D8F5-49CB-AE3D-9F113790C5C9";
shapes = (
{
closed = 1;
nodes = (
(232,0,l),
(232,1490,l),
(1026,1490,l),
(1026,1444,l),
(278,1444,l),
(278,768,l),
(984,768,l),
(984,722,l),
(278,722,l),
(278,46,l),
(1048,46,l),
(1048,0,l)
);
}
);
width = 1196;
}
);
leftKerningGroup = B2;
rightKerningGroup = E;
unicode = 69;
}
{
glyphname = F;
layers = (
{
anchors = (
{
name = m.uni0326;
position = "{348, 0}";
},
{
name = m.uni030F_1;
position = "{642, 1490}";
}
);
layerId = "C2BA7105-123B-4065-95E4-2C8249C8089A";
shapes = (
{
closed = 1;
nodes = (
(96,0,l),
(96,1490,l),
(1144,1490,l),
(1144,1164,l),
(500,1164,l),
(500,828,l),
(1080,828,l),
(1080,510,l),
(500,510,l),
(500,0,l)
);
}
);
width = 1196;
},
{
anchors = (
{
name = m.uni0326;
position = "{385, 0}";
},
{
name = m.uni030F_1;
position = "{656, 1490}";
}
);
layerId = "9CF24730-065A-453E-8BED-A6F959227B57";
shapes = (
{
closed = 1;
nodes = (
(180,0,l),
(180,1490,l),
(1081,1490,l),
(1081,1322,l),
(370,1322,l),
(370,812,l),
(1013,812,l),
(1013,644,l),
(370,644,l),
(370,0,l)
);
}
);
width = 1209;
},
{
anchors = (
{
name = m.uni0326;
position = "{355, 0}";
},
{
name = m.uni030F_1;
position = "{654, 1490}";
}
);
layerId = "01511CED-EE56-4E59-B654-85BB35A5B07B";
shapes = (
{
closed = 1;
nodes = (
(232,0,l),
(232,1490,l),
(1030,1490,l),
(1030,1444,l),
(278,1444,l),
(278,768,l),
(960,768,l),
(960,722,l),
(278,722,l),
(278,0,l)
);
}
);
width = 1196;
}
);
leftKerningGroup = public.kern2.B2;
rightKerningGroup = public.kern1.F;
unicode = 70;
}
{
glyphname = G.1;
layers = (
{
layerId = "AA18C446-7083-4EE4-9FA4-5ED387604317";
shapes = (
{
closed = 1;
nodes = (
(647,-20,o),
(532,11,o),
(429,73,cs),
(326,134,o),
(243,222,o),
(182,336,cs),
(121,450,o),
(90,585,o),
(90,742,cs),
(90,906,o),
(123,1045,o),
(189,1160,cs),
(254,1274,o),
(342,1361,o),
(452,1421,cs),
(562,1480,o),
(684,1510,o),
(818,1510,cs),
(994,1510,o),
(1148,1458,o),
(1265,1366,cs),
(1382,1274,o),
(1456,1147,o),
(1472,998,c),
(1064,998,l),
(1052,1049,o),
(1024,1089,o),
(984,1117,c),
(943,1144,o),
(890,1158,o),
(826,1158,cs),
(759,1158,o),
(701,1142,o),
(653,1110,cs),
(605,1077,o),
(569,1030,o),
(544,969,cs),
(519,908,o),
(506,834,o),
(506,748,cs),
(506,661,o),
(518,586,o),
(543,524,cs),
(567,462,o),
(603,415,o),
(652,382,cs),
(700,349,o),
(760,332,o),
(832,332,cs),
(889,332,o),
(937,341,o),
(977,359,cs),
(1056,395,o),
(1100,463,o),
(1100,552,c),
(1258,552,l),
(1258,444,ls),
(1258,308,o),
(1214,193,o),
(1131,110,cs),
(1047,27,o),
(925,-20,o),
(772,-20,cs)
);
},
{
closed = 1;
nodes = (
(1241,0,l),
(1186,336,l),
(1186,544,l),
(830,544,l),
(830,832,l),
(1490,832,l),
(1490,0,l)
);
}
);
width = 1582;
},
{
layerId = "83678DE6-86A5-4DC1-9516-590C67EEE957";
shapes = (
{
closed = 1;
nodes = (
(644,-20,o),
(532,11,o),
(435,73,cs),
(338,135,o),
(261,223,o),
(206,338,cs),
(150,452,o),
(122,587,o),
(122,744,cs),
(122,901,o),
(150,1037,o),
(206,1152,cs),
(261,1267,o),
(338,1355,o),
(436,1417,cs),
(534,1479,o),
(647,1510,o),
(774,1510,cs),
(931,1510,o),
(1069,1462,o),
(1176,1375,cs),
(1283,1288,o),
(1356,1168,o),
(1384,1024,c),
(1198,1024,l),
(1166,1123,o),
(1115,1201,o),
(1043,1257,cs),
(971,1312,o),
(882,1342,o),
(774,1342,cs),
(686,1342,o),
(606,1319,o),
(534,1274,cs),
(461,1228,o),
(404,1161,o),
(361,1072,cs),
(318,983,o),
(296,873,o),
(296,744,cs),
(296,615,o),
(318,507,o),
(361,418,cs),
(404,329,o),
(463,262,o),
(537,217,cs),
(611,171,o),
(694,148,o),
(786,148,cs),
(875,148,o),
(953,167,o),
(1018,206,cs),
(1148,283,o),
(1220,428,o),
(1220,624,c),
(1290,624,l),
(1290,484,ls),
(1290,363,o),
(1250,240,o),
(1166,142,cs),
(1081,44,o),
(951,-20,o),
(770,-20,cs)
);
},
{
closed = 1;
nodes = (
(1250,0,l),
(1220,279,l),
(1220,585,l),
(825,585,l),
(825,745,l),
(1394,745,l),
(1394,0,l)
);
}
);
width = 1544;
},
{
layerId = "011F2186-E3F6-4CD7-BC01-D546573589F3";
shapes = (
{
closed = 1;
nodes = (
(645,-20,o),
(535,12,o),
(442,76,cs),
(349,140,o),
(276,230,o),
(225,345,cs),
(174,460,o),
(148,593,o),
(148,744,cs),
(148,897,o),
(174,1031,o),
(226,1146,cs),
(277,1261,o),
(349,1350,o),
(442,1414,cs),
(535,1478,o),
(643,1510,o),
(766,1510,cs),
(939,1510,o),
(1073,1444,o),
(1168,1347,cs),
(1263,1250,o),
(1319,1131,o),
(1336,1024,c),
(1289,1024,l),
(1272,1125,o),
(1217,1233,o),
(1129,1320,cs),
(1040,1407,o),
(918,1464,o),
(766,1464,cs),
(652,1464,o),
(552,1434,o),
(466,1374,cs),
(380,1314,o),
(313,1230,o),
(266,1122,cs),
(218,1014,o),
(194,888,o),
(194,744,cs),
(194,603,o),
(218,478,o),
(265,370,cs),
(312,262,o),
(379,178,o),
(466,117,cs),
(552,56,o),
(653,26,o),
(770,26,cs),
(879,26,o),
(973,51,o),
(1053,101,cs),
(1212,200,o),
(1303,387,o),
(1303,636,c),
(1342,636,l),
(1342,628,ls),
(1342,432,o),
(1287,270,o),
(1187,157,cs),
(1087,44,o),
(945,-20,o),
(770,-20,cs)
);
},
{
closed = 1;
nodes = (
(1300,0,l),
(1300,279,l),
(1312,626,l),
(784,626,l),
(784,672,l),
(1346,672,l),
(1346,0,l)
);
}
);
width = 1536;
}
);
leftKerningGroup = public.kern2.C2;
rightKerningGroup = public.kern1.R;
unicode = 71;
}
{
glyphname = H;
layers = (
{
anchors = (
{
name = m.uni0326;
position = "{787, 0}";
},
{
name = m.uni030F_1;
position = "{787, 1490}";
},
{
name = m.uni0327_3;
position = "{347, 0}";
}
);
layerId = "DD6EF60E-12CE-4CFD-A219-13982E9D034C";
shapes = (
{
closed = 1;
nodes = (
(96,0,l),
(96,1490,l),
(500,1490,l),
(500,924,l),
(1036,924,l),
(1036,1490,l),
(1440,1490,l),
(1440,0,l),
(1036,0,l),
(1036,598,l),
(500,598,l),
(500,0,l)
);
}
);
width = 1536;
},
{
anchors = (
{
name = m.uni0326;
position = "{822, 0}";
},
{
name = m.uni030F_1;
position = "{822, 1490}";
},
{
name = m.uni0327_3;
position = "{387, 1}";
}
);
layerId = "09B6B0AE-BF01-4DA1-8E4B-D236F68CE7ED";
shapes = (
{
closed = 1;
nodes = (
(180,0,l),
(180,1490,l),
(370,1490,l),
(370,846,l),
(1152,846,l),
(1152,1490,l),
(1342,1490,l),
(1342,0,l),
(1152,0,l),
(1152,678,l),
(370,678,l),
(370,0,l)
);
}
);
width = 1522;
},
{
anchors = (
{
name = m.uni0326;
position = "{812, 0}";
},
{
name = m.uni030F_1;
position = "{812, 1490}";
},
{
name = m.uni0327_3;
position = "{359, 1}";
}
);
layerId = "35B86B34-8686-44F8-9959-14CD414BA805";
shapes = (
{
closed = 1;
nodes = (
(232,0,l),
(232,1490,l),
(278,1490,l),
(278,784,l),
(1226,784,l),
(1226,1490,l),
(1272,1490,l),
(1272,0,l),
(1226,0,l),
(1226,738,l),
(278,738,l),
(278,0,l)
);
}
);
width = 1504;
}
);
leftKerningGroup = B2;
rightKerningGroup = H;
unicode = 72;
}
{
glyphname = I;
layers = (
{
anchors = (
{
name = m.uni0326;
position = "{346, 0}";
},
{
name = m.uni030F_1;
position = "{350, 1490}";
},
{
name = m.uni0328_4;
position = "{668, 0}";
}
);
layerId = "DD6EF60E-12CE-4CFD-A219-13982E9D034C";
shapes = (
{
closed = 1;
nodes = (
(500,1490,l),
(500,0,l),
(96,0,l),
(96,1490,l)
);
}
);
width = 596;
},
{
anchors = (
{
name = m.uni0326;
position = "{383, 0}";
},
{
name = m.uni030F_1;
position = "{387, 1490}";
},
{
name = m.uni0328_4;
position = "{710, 0}";
}
);
layerId = "09B6B0AE-BF01-4DA1-8E4B-D236F68CE7ED";
shapes = (
{
closed = 1;
nodes = (
(370,1490,l),
(370,0,l),
(180,0,l),
(180,1490,l)
);
}
);
width = 550;
},
{
anchors = (
{
name = m.uni0326;
position = "{353, 0}";
},
{
name = m.uni030F_1;
position = "{357, 1490}";
},
{
name = m.uni0328_4;
position = "{546, 0}";
}
);
layerId = "35B86B34-8686-44F8-9959-14CD414BA805";
shapes = (
{
closed = 1;
nodes = (
(278,1490,l),
(278,0,l),
(232,0,l),
(232,1490,l)
);
}
);
width = 510;
}
);
leftKerningGroup = B2;
rightKerningGroup = H;
unicode = 73;
}
{
glyphname = J;
layers = (
{
anchors = (
{
name = m.uni030F_1;
position = "{970, 1490}";
}
);
layerId = "5004196B-162C-4C82-BCAB-67337630B14F";
shapes = (
{
closed = 1;
nodes = (
(411,-20,o),
(277,22,o),
(182,106,cs),
(87,190,o),
(40,310,o),
(40,466,cs),
(40,559,l),
(444,559,l),
(444,458,ls),
(444,403,o),
(456,362,o),
(481,335,cs),
(506,308,o),
(541,294,o),
(586,294,cs),
(631,294,o),
(666,308,o),
(690,335,cs),
(714,362,o),
(726,404,o),
(726,460,cs),
(726,1490,l),
(1124,1490,l),
(1124,468,ls),
(1124,311,o),
(1078,191,o),
(985,107,cs),
(892,22,o),
(759,-20,o),
(586,-20,cs)
);
}
);
width = 1220;
},
{
anchors = (
{
name = m.uni030F_1;
position = "{999, 1490}";
}
);
layerId = "B1312A1D-33BE-4648-8D8B-BF9AFD6F3133";
shapes = (
{
closed = 1;
nodes = (
(414,-20,o),
(307,19,o),
(224,96,cs),
(141,173,o),
(100,283,o),
(100,426,cs),
(100,506,l),
(290,506,l),
(290,426,ls),
(290,335,o),
(313,266,o),
(360,219,cs),
(407,171,o),
(468,147,o),
(545,147,cs),
(621,147,o),
(682,171,o),
(729,219,cs),
(776,266,o),
(799,335,o),
(799,426,cs),
(799,1490,l),
(989,1490,l),
(989,426,ls),
(989,283,o),
(948,173,o),
(866,96,cs),
(783,19,o),
(676,-20,o),
(545,-20,cs)
);
}
);
width = 1169;
},
{
anchors = (
{
name = m.uni030F_1;
position = "{1059, 1490}";
}
);
layerId = "3CB5008A-C4A1-41CB-9BE0-5E5E5E92B0B4";
shapes = (
{
closed = 1;
nodes = (
(431,-20,o),
(336,17,o),
(266,92,cs),
(195,167,o),
(160,268,o),
(160,396,cs),
(160,464,l),
(206,464,l),
(206,396,ls),
(206,281,o),
(237,191,o),
(298,125,cs),
(359,59,o),
(444,26,o),
(552,26,cs),
(660,26,o),
(745,59,o),
(806,125,cs),
(867,191,o),
(898,281,o),
(898,396,cs),
(898,1490,l),
(944,1490,l),
(944,396,ls),
(944,268,o),
(909,167,o),
(839,92,cs),
(768,17,o),
(673,-20,o),
(552,-20,cs)
);
}
);
width = 1144;
}
);
leftKerningGroup = J2;
rightKerningGroup = J;
unicode = 74;
}
{
glyphname = K;
layers = (
{
anchors = (
{
name = m.uni0326;
position = "{820, 0}";
},
{
name = m.uni030F_1;
position = "{820, 1490}";
}
);
layerId = "DF515781-E436-4A88-B51E-316BD4FA0343";
shapes = (
{
closed = 1;
nodes = (
(403,261,l),
(403,603,l),
(430,666,o),
(457,722,o),
(483,773,cs),
(509,823,o),
(540,874,o),
(575,926,cs),
(610,978,o),
(653,1038,o),
(706,1107,cs),
(1002,1490,l),
(1481,1490,l),
(858,723,l),
(820,739,l)
);
},
{
closed = 1;
nodes = (
(96,0,l),
(96,1490,l),
(500,1490,l),
(500,1170,l),
(492,741,l),
(500,544,l),
(500,0,l)
);
},
{
closed = 1;
nodes = (
(1033,0,l),
(674,599,l),
(930,895,l),
(1509,0,l)
);
}
);
width = 1555;
},
{
anchors = (
{
name = m.uni0326;
position = "{860, 0}";
},
{
name = m.uni030F_1;
position = "{860, 1490}";
}
);
layerId = "6C060D37-EA61-4F06-B959-8B1B04C15508";
shapes = (
{
closed = 1;
nodes = (
(310,426,l),
(310,629,l),
(344,676,o),
(378,720,o),
(412,763,cs),
(445,806,o),
(480,847,o),
(515,888,cs),
(550,929,o),
(587,969,o),
(624,1009,cs),
(1069,1490,l),
(1318,1490,l),
(682,808,l),
(672,809,l)
);
},
{
closed = 1;
nodes = (
(180,0,l),
(180,1490,l),
(370,1490,l),
(370,980,l),
(367,659,l),
(370,566,l),
(370,0,l)
);
},
{
closed = 1;
nodes = (
(1094,0,l),
(555,758,l),
(673,906,l),
(1319,0,l)
);
}
);
width = 1376;
},
{
anchors = (
{
name = m.uni0326;
position = "{792, 0}";
},
{
name = m.uni030F_1;
position = "{792, 1490}";
}
);
layerId = "D5D2BA9E-C9D4-4EBC-A272-0297FDC83579";
shapes = (
{
closed = 1;
nodes = (
(273,536,l),
(258,584,l),
(298,627,o),
(336,669,o),
(373,709,cs),
(410,748,o),
(446,788,o),
(483,828,cs),
(520,868,o),
(558,909,o),
(598,952,cs),
(1097,1490,l),
(1158,1490,l),
(545,828,l),
(533,817,l)
);
},
{
closed = 1;
nodes = (
(232,0,l),
(232,1490,l),
(278,1490,l),
(278,960,l),
(278,592,l),
(278,560,l),
(278,0,l)
);
},
{
closed = 1;
nodes = (
(1101,0,l),
(513,826,l),
(550,852,l),
(1156,0,l)
);
}
);
width = 1224;
}
);
leftKerningGroup = public.kern2.B2;
rightKerningGroup = public.kern1.K;
unicode = 75;
}
{
glyphname = L;
layers = (
{
anchors = (
{
name = m.uni0326;
position = "{604, 0}";
},
{
name = m.uni030F_1;
position = "{344, 1490}";
}
);
layerId = "C940992A-BC26-484D-9AD3-39561C0256D5";
shapes = (
{
closed = 1;
nodes = (
(96,0,l),
(96,1490,l),
(500,1490,l),
(500,326,l),
(1102,326,l),
(1102,0,l)
);
}
);
width = 1158;
},
{
anchors = (
{
name = m.uni0326;
position = "{639, 0}";
},
{
name = m.uni030F_1;
position = "{381, 1490}";
}
);
layerId = "9514E43D-89D9-4083-9B59-14FFE90A8056";
shapes = (
{
closed = 1;
nodes = (
(180,0,l),
(180,1490,l),
(370,1490,l),
(370,168,l),
(1060,168,l),
(1060,0,l)
);
}
);
width = 1158;
},
{
anchors = (
{
name = m.uni0326;
position = "{663, 0}";
},
{
name = m.uni030F_1;
position = "{353, 1490}";
}
);
layerId = "F1B44250-5A04-4AFC-8A77-A7E8F224F396";
shapes = (
{
closed = 1;
nodes = (
(232,0,l),
(232,1490,l),
(280,1490,l),
(280,46,l),
(1024,46,l),
(1024,0,l)
);
}
);
width = 1152;
}
);
leftKerningGroup = public.kern2.B2;
rightKerningGroup = public.kern1.L;
unicode = 76;
}
{
glyphname = M;
layers = (
{
anchors = (
{
name = m.uni0326;
position = "{1048, 0}";
},
{
name = m.uni030F_1;
position = "{1048, 1490}";
}
);
layerId = "C940992A-BC26-484D-9AD3-39561C0256D5";
shapes = (
{
closed = 1;
nodes = (
(96,0,l),
(96,1490,l),
(734,1490,l),
(868,1024,ls),
(879,984,o),
(892,931,o),
(907,865,cs),
(922,799,o),
(936,728,o),
(951,653,cs),
(965,577,o),
(978,504,o),
(990,435,cs),
(1002,365,o),
(1011,306,o),
(1018,258,c),
(943,258,l),
(950,306,o),
(959,365,o),
(971,435,cs),
(982,504,o),
(995,577,o),
(1010,653,cs),
(1024,728,o),
(1038,799,o),
(1053,865,cs),
(1067,931,o),
(1080,984,o),
(1091,1024,cs),
(1223,1490,l),
(1862,1490,l),
(1862,0,l),
(1454,0,l),
(1454,576,ls),
(1454,644,o),
(1458,762,o),
(1462,897,cs),
(1466,1032,o),
(1470,1173,o),
(1470,1288,c),
(1493,1288,l),
(1469,1161,o),
(1437,1021,o),
(1405,891,cs),
(1373,761,o),
(1342,648,o),
(1321,576,cs),
(1148,0,l),
(812,0,l),
(636,576,ls),
(615,648,o),
(583,761,o),
(550,891,cs),
(517,1021,o),
(484,1161,o),
(459,1288,c),
(488,1288,l),
(488,1173,o),
(492,1032,o),
(496,897,cs),
(500,762,o),
(504,644,o),
(504,576,cs),
(504,0,l)
);
}
);
width = 1958;
},
{
anchors = (
{
name = m.uni0326;
position = "{1091, 0}";
},
{
name = m.uni030F_1;
position = "{1091, 1490}";
}
);
layerId = "9514E43D-89D9-4083-9B59-14FFE90A8056";
shapes = (
{
closed = 1;
nodes = (
(180,0,l),
(180,1490,l),
(450,1490,l),
(817,550,ls),
(826,528,o),
(836,501,o),
(847,468,cs),
(858,435,o),
(869,399,o),
(882,360,cs),
(894,321,o),
(906,283,o),
(917,245,cs),
(928,206,o),
(938,171,o),
(947,138,c),
(905,138,l),
(914,169,o),
(925,203,o),
(936,241,cs),
(947,278,o),
(959,317,o),
(972,356,cs),
(984,395,o),
(996,431,o),
(1007,465,cs),
(1018,499,o),
(1028,527,o),
(1037,550,cs),
(1399,1490,l),
(1670,1490,l),
(1670,0,l),
(1483,0,l),
(1483,851,ls),
(1483,912,o),
(1484,993,o),
(1486,1080,cs),
(1488,1167,o),
(1490,1258,o),
(1491,1342,c),
(1507,1342,l),
(1479,1250,o),
(1447,1152,o),
(1417,1064,cs),
(1387,975,o),
(1359,899,o),
(1340,851,cs),
(1007,0,l),
(842,0,l),
(504,851,ls),
(485,898,o),
(460,971,o),
(430,1059,cs),
(400,1146,o),
(367,1245,o),
(334,1342,c),
(352,1342,l),
(355,1267,o),
(357,1178,o),
(358,1090,cs),
(359,1001,o),
(361,916,o),
(361,851,cs),
(361,0,l)
);
}
);
width = 1850;
},
{
anchors = (
{
name = m.uni0326;
position = "{1103, 0}";
},
{
name = m.uni030F_1;
position = "{1103, 1490}";
}
);
layerId = "F1B44250-5A04-4AFC-8A77-A7E8F224F396";
shapes = (
{
closed = 1;
nodes = (
(232,0,l),
(232,1490,l),
(296,1490,l),
(811,304,ls),
(821,281,o),
(831,259,o),
(841,236,c),
(850,213,o),
(860,189,o),
(870,166,c),
(879,142,o),
(889,118,o),
(899,95,c),
(908,72,o),
(918,48,o),
(928,24,c),
(904,24,l),
(914,48,o),
(924,72,o),
(934,95,c),
(943,118,o),
(953,142,o),
(963,166,cs),
(973,189,o),
(983,213,o),
(993,236,c),
(1002,259,o),
(1012,281,o),
(1022,304,cs),
(1536,1490,l),
(1600,1490,l),
(1600,0,l),
(1554,0,l),
(1554,1136,ls),
(1554,1189,o),
(1554,1244,o),
(1555,1300,c),
(1555,1356,o),
(1555,1411,o),
(1555,1464,c),
(1569,1464,l),
(1546,1408,o),
(1524,1353,o),
(1501,1298,cs),
(1478,1243,o),
(1455,1189,o),
(1432,1136,cs),
(939,0,l),
(893,0,l),
(400,1136,ls),
(377,1189,o),
(354,1243,o),
(331,1298,cs),
(308,1353,o),
(286,1408,o),
(263,1464,c),
(277,1464,l),
(277,1411,o),
(277,1356,o),
(278,1300,c),
(278,1244,o),
(278,1189,o),
(278,1136,cs),
(278,0,l)
);
}
);
width = 1832;
}
);
leftKerningGroup = public.kern2.B2;
rightKerningGroup = public.kern1.H;
unicode = 77;
}
{
glyphname = N;
layers = (
{
anchors = (
{
name = m.uni0326;
position = "{819, 0}";
},
{
name = m.uni030F_1;
position = "{819, 1490}";
}
);
layerId = "980E6A92-2867-40CE-A48E-C7FE9FEAD785";
shapes = (
{
closed = 1;
nodes = (
(96,0,l),
(96,1490,l),
(536,1490,l),
(891,905,ls),
(922,854,o),
(950,804,o),
(977,753,cs),
(1030,652,o),
(1079,535,o),
(1131,372,c),
(1096,372,l),
(1093,426,o),
(1089,489,o),
(1084,560,cs),
(1079,631,o),
(1074,701,o),
(1070,770,cs),
(1066,839,o),
(1064,897,o),
(1064,944,cs),
(1064,1490,l),
(1480,1490,l),
(1480,0,l),
(1040,0,l),
(709,544,ls),
(672,606,o),
(639,664,o),
(611,718,cs),
(582,771,o),
(555,828,o),
(529,888,cs),
(502,948,o),
(472,1017,o),
(438,1096,c),
(480,1096,l),
(485,1026,o),
(491,956,o),
(496,887,cs),
(506,748,o),
(512,625,o),
(512,544,cs),
(512,0,l)
);
}
);
width = 1576;
},
{
anchors = (
{
name = m.uni0326;
position = "{864, 0}";
},
{
name = m.uni030F_1;
position = "{864, 1490}";
}
);
layerId = "2C2418C1-41DF-4EE0-8E81-595C00A08566";
shapes = (
{
closed = 1;
nodes = (
(180,0,l),
(180,1490,l),
(404,1490,l),
(1010,537,ls),
(1026,512,o),
(1045,481,o),
(1068,442,cs),
(1113,365,o),
(1168,266,o),
(1219,155,c),
(1192,155,l),
(1186,212,o),
(1182,267,o),
(1179,320,cs),
(1176,372,o),
(1175,420,o),
(1174,464,cs),
(1173,508,o),
(1173,545,o),
(1173,576,cs),
(1173,1490,l),
(1363,1490,l),
(1363,0,l),
(1137,0,l),
(597,848,ls),
(572,887,o),
(548,928,o),
(523,970,cs),
(498,1011,o),
(469,1061,o),
(437,1118,cs),
(405,1175,o),
(365,1245,o),
(318,1329,c),
(353,1329,l),
(356,1255,o),
(359,1187,o),
(362,1124,cs),
(367,999,o),
(371,903,o),
(371,850,cs),
(371,0,l)
);
}
);
width = 1543;
},
{
anchors = (
{
name = m.uni0326;
position = "{926, 0}";
},
{
name = m.uni030F_1;
position = "{926, 1490}";
}
);
layerId = "6C81FF26-15E7-4A5E-89E1-0A5A89E23E00";
shapes = (
{
closed = 1;
nodes = (
(232,0,l),
(232,1490,l),
(276,1490,l),
(1099,359,ls),
(1124,324,o),
(1149,290,o),
(1174,255,cs),
(1222,186,o),
(1272,117,o),
(1321,48,c),
(1306,48,l),
(1306,83,o),
(1306,117,o),
(1305,152,cs),
(1304,186,o),
(1304,220,o),
(1303,255,cs),
(1302,290,o),
(1302,324,o),
(1302,359,cs),
(1302,1490,l),
(1348,1490,l),
(1348,0,l),
(1304,0,l),
(483,1129,ls),
(458,1164,o),
(433,1198,o),
(409,1233,cs),
(384,1268,o),
(360,1302,o),
(335,1337,cs),
(310,1372,o),
(285,1406,o),
(260,1441,c),
(274,1441,l),
(274,1406,o),
(274,1372,o),
(275,1337,cs),
(276,1268,o),
(278,1198,o),
(278,1129,cs),
(278,0,l)
);
}
);
width = 1580;
}
);
leftKerningGroup = B2;
rightKerningGroup = H;
unicode = 78;
}
{
glyphname = O;
layers = (
{
anchors = (
{
name = m.uni0326;
position = "{791, 0}";
},
{
name = m.uni030F_1;
position = "{791, 1490}";
},
{
name = m.uni0328_4;
position = "{1562, 744}";
}
);
layerId = "C940992A-BC26-484D-9AD3-39561C0256D5";
shapes = (
{
closed = 1;
nodes = (
(659,-20,o),
(536,9,o),
(427,68,cs),
(317,127,o),
(230,213,o),
(166,327,cs),
(102,440,o),
(70,579,o),
(70,744,cs),
(70,910,o),
(102,1050,o),
(166,1164,cs),
(230,1278,o),
(317,1364,o),
(427,1423,cs),
(536,1481,o),
(659,1510,o),
(794,1510,cs),
(929,1510,o),
(1052,1481,o),
(1161,1423,cs),
(1270,1364,o),
(1357,1278,o),
(1422,1164,cs),
(1486,1050,o),
(1518,910,o),
(1518,744,cs),
(1518,579,o),
(1486,439,o),
(1422,326,cs),
(1357,212,o),
(1270,126,o),
(1161,68,cs),
(1052,9,o),
(929,-20,o),
(794,-20,cs)
);
},
{
closed = 1;
nodes = (
(861,332,o),
(918,348,o),
(964,380,cs),
(1009,411,o),
(1044,458,o),
(1067,519,cs),
(1090,580,o),
(1102,655,o),
(1102,744,cs),
(1102,833,o),
(1090,909,o),
(1067,971,cs),
(1044,1032,o),
(1009,1079,o),
(964,1111,cs),
(918,1142,o),
(861,1158,o),
(794,1158,cs),
(727,1158,o),
(671,1142,o),
(626,1111,cs),
(580,1079,o),
(545,1032,o),
(522,971,cs),
(498,909,o),
(486,833,o),
(486,744,cs),
(486,655,o),
(498,580,o),
(522,519,cs),
(545,458,o),
(580,411,o),
(626,380,cs),
(671,348,o),
(727,332,o),
(794,332,cs)
);
}
);
width = 1588;
},
{
anchors = (
{
name = m.uni0326;
position = "{808, 0}";
},
{
name = m.uni030F_1;
position = "{808, 1490}";
},
{
name = m.uni0328_4;
position = "{1562, 744}";
}
);
layerId = "9514E43D-89D9-4083-9B59-14FFE90A8056";
shapes = (
{
closed = 1;
nodes = (
(657,-20,o),
(543,11,o),
(444,73,cs),
(344,134,o),
(265,222,o),
(208,337,cs),
(151,451,o),
(122,587,o),
(122,744,cs),
(122,902,o),
(151,1038,o),
(208,1153,cs),
(265,1267,o),
(344,1355,o),
(444,1417,cs),
(543,1479,o),
(657,1510,o),
(784,1510,cs),
(911,1510,o),
(1025,1479,o),
(1124,1417,cs),
(1223,1355,o),
(1302,1267,o),
(1359,1153,cs),
(1416,1038,o),
(1444,902,o),
(1444,744,cs),
(1444,587,o),
(1416,451,o),
(1359,337,cs),
(1302,222,o),
(1223,134,o),
(1124,73,cs),
(1025,11,o),
(911,-20,o),
(784,-20,cs)
);
},
{
closed = 1;
nodes = (
(873,156,o),
(953,179,o),
(1025,224,cs),
(1096,269,o),
(1153,335,o),
(1196,423,cs),
(1238,510,o),
(1259,617,o),
(1259,744,cs),
(1259,872,o),
(1238,980,o),
(1196,1068,cs),
(1153,1155,o),
(1096,1222,o),
(1025,1267,cs),
(953,1312,o),
(873,1334,o),
(784,1334,cs),
(695,1334,o),
(614,1311,o),
(542,1266,cs),
(470,1221,o),
(413,1154,o),
(371,1067,cs),
(328,979,o),
(307,871,o),
(307,744,cs),
(307,617,o),
(328,510,o),
(371,423,cs),
(413,336,o),
(470,269,o),
(542,224,cs),
(614,179,o),
(695,156,o),
(784,156,cs)
);
}
);
width = 1566;
},
{
anchors = (
{
name = m.uni0326;
position = "{742, 0}";
},
{
name = m.uni030F_1;
position = "{742, 1490}";
},
{
name = m.uni0328_4;
position = "{1374, 744}";
}
);
layerId = "F1B44250-5A04-4AFC-8A77-A7E8F224F396";
shapes = (
{
closed = 1;
nodes = (
(643,-20,o),
(536,12,o),
(443,77,cs),
(350,141,o),
(277,231,o),
(226,346,cs),
(174,461,o),
(148,593,o),
(148,744,cs),
(148,896,o),
(174,1030,o),
(226,1145,cs),
(278,1260,o),
(350,1349,o),
(443,1414,cs),
(536,1478,o),
(643,1510,o),
(766,1510,cs),
(888,1510,o),
(995,1478,o),
(1088,1414,cs),
(1181,1349,o),
(1253,1260,o),
(1305,1145,cs),
(1356,1030,o),
(1382,896,o),
(1382,744,cs),
(1382,593,o),
(1356,460,o),
(1305,345,cs),
(1253,230,o),
(1181,140,o),
(1088,76,cs),
(995,12,o),
(888,-20,o),
(766,-20,cs)
);
},
{
closed = 1;
nodes = (
(879,26,o),
(978,56,o),
(1064,117,cs),
(1149,177,o),
(1216,261,o),
(1264,369,cs),
(1312,477,o),
(1336,602,o),
(1336,744,cs),
(1336,887,o),
(1312,1012,o),
(1264,1120,cs),
(1216,1228,o),
(1149,1312,o),
(1064,1373,cs),
(978,1434,o),
(879,1464,o),
(766,1464,cs),
(653,1464,o),
(554,1434,o),
(468,1374,cs),
(382,1314,o),
(315,1230,o),
(267,1122,cs),
(218,1014,o),
(194,888,o),
(194,744,cs),
(194,603,o),
(218,478,o),
(266,370,cs),
(313,262,o),
(380,178,o),
(466,117,cs),
(552,56,o),
(652,26,o),
(766,26,cs)
);
}
);
width = 1530;
}
);
leftKerningGroup = public.kern2.C2;
rightKerningGroup = public.kern1.D;
unicode = 79;
}
{
glyphname = P;
layers = (
{
anchors = (
{
name = m.uni030F_1;
position = "{696, 1490}";
}
);
layerId = "DF515781-E436-4A88-B51E-316BD4FA0343";
shapes = (
{
closed = 1;
nodes = (
(96,0,l),
(96,1490,l),
(738,1490,ls),
(849,1490,o),
(946,1468,o),
(1029,1425,cs),
(1195,1337,o),
(1292,1174,o),
(1292,962,cs),
(1292,855,o),
(1268,763,o),
(1221,686,cs),
(1126,530,o),
(951,442,o),
(724,442,cs),
(340,442,l),
(340,756,l),
(642,756,ls),
(690,756,o),
(731,765,o),
(765,782,cs),
(833,816,o),
(870,878,o),
(870,962,cs),
(870,1005,o),
(861,1042,o),
(843,1073,cs),
(807,1133,o),
(738,1166,o),
(642,1166,cs),
(500,1166,l),
(500,0,l)
);
}
);
width = 1344;
},
{
anchors = (
{
name = m.uni030F_1;
position = "{732, 1490}";
}
);
layerId = "6C060D37-EA61-4F06-B959-8B1B04C15508";
shapes = (
{
closed = 1;
nodes = (
(180,0,l),
(180,1490,l),
(690,1490,ls),
(806,1490,o),
(902,1469,o),
(977,1427,cs),
(1127,1342,o),
(1198,1193,o),
(1198,1016,cs),
(1198,927,o),
(1180,847,o),
(1144,775,cs),
(1071,631,o),
(923,539,o),
(691,539,cs),
(330,539,l),
(330,706,l),
(682,706,ls),
(761,706,o),
(824,720,o),
(872,747,cs),
(968,801,o),
(1009,899,o),
(1009,1016,cs),
(1009,1075,o),
(998,1127,o),
(977,1174,c),
(933,1266,o),
(839,1323,o),
(680,1323,cs),
(370,1323,l),
(370,0,l)
);
}
);
width = 1308;
},
{
anchors = (
{
name = m.uni030F_1;
position = "{712, 1490}";
}
);
layerId = "D5D2BA9E-C9D4-4EBC-A272-0297FDC83579";
shapes = (
{
closed = 1;
nodes = (
(232,0,l),
(232,1490,l),
(670,1490,ls),
(753,1490,o),
(827,1471,o),
(891,1434,cs),
(1019,1359,o),
(1096,1223,o),
(1096,1054,cs),
(1096,969,o),
(1078,894,o),
(1042,829,cs),
(969,698,o),
(837,620,o),
(670,620,cs),
(256,620,l),
(256,666,l),
(670,666,ls),
(744,666,o),
(810,683,o),
(867,716,cs),
(981,782,o),
(1050,902,o),
(1050,1054,cs),
(1050,1130,o),
(1034,1197,o),
(1001,1256,cs),
(936,1373,o),
(818,1444,o),
(670,1444,cs),
(278,1444,l),
(278,0,l)
);
}
);
width = 1242;
}
);
leftKerningGroup = public.kern2.B2;
rightKerningGroup = public.kern1.P;
unicode = 80;
}
{
glyphname = R;
layers = (
{
anchors = (
{
name = m.uni0326;
position = "{735, 0}";
},
{
name = m.uni030F_1;
position = "{712, 1490}";
}
);
layerId = "C2BA7105-123B-4065-95E4-2C8249C8089A";
shapes = (
{
closed = 1;
nodes = (
(96,0,l),
(96,1490,l),
(738,1490,ls),
(849,1490,o),
(946,1470,o),
(1029,1430,cs),
(1195,1349,o),
(1292,1195,o),
(1292,984,cs),
(1292,877,o),
(1268,787,o),
(1221,714,cs),
(1126,567,o),
(951,492,o),
(724,492,cs),
(340,492,l),
(340,806,l),
(642,806,ls),
(690,806,o),
(731,812,o),
(765,824,cs),
(833,848,o),
(870,899,o),
(870,984,cs),
(870,1027,o),
(861,1061,o),
(843,1088,cs),
(807,1141,o),
(738,1166,o),
(642,1166,cs),
(500,1166,l),
(500,0,l)
);
},
{
closed = 1;
nodes = (
(902,0,l),
(538,684,l),
(968,684,l),
(1342,0,l)
);
}
);
width = 1368;
},
{
anchors = (
{
name = m.uni0326;
position = "{761, 0}";
},
{
name = m.uni030F_1;
position = "{721, 1490}";
}
);
layerId = "9CF24730-065A-453E-8BED-A6F959227B57";
shapes = (
{
closed = 1;
nodes = (
(180,0,l),
(180,1490,l),
(690,1490,ls),
(806,1490,o),
(902,1470,o),
(977,1431,cs),
(1127,1351,o),
(1198,1207,o),
(1198,1030,cs),
(1198,941,o),
(1180,863,o),
(1144,795,cs),
(1071,659,o),
(923,578,o),
(691,578,cs),
(286,578,l),
(286,747,l),
(682,747,ls),
(761,747,o),
(824,759,o),
(872,782,cs),
(967,828,o),
(1009,914,o),
(1009,1030,cs),
(1009,1089,o),
(998,1141,o),
(976,1185,cs),
(932,1272,o),
(839,1323,o),
(680,1323,cs),
(370,1323,l),
(370,0,l)
);
},
{
closed = 1;
nodes = (
(1036,0,l),
(676,671,l),
(890,671,l),
(1256,0,l)
);
}
);
width = 1318;
},
{
anchors = (
{
name = m.uni0326;
position = "{701, 0}";
},
{
name = m.uni030F_1;
position = "{659, 1490}";
}
);
layerId = "01511CED-EE56-4E59-B654-85BB35A5B07B";
shapes = (
{
closed = 1;
nodes = (
(232,0,l),
(232,1490,l),
(670,1490,ls),
(753,1490,o),
(827,1472,o),
(891,1437,cs),
(1019,1366,o),
(1096,1235,o),
(1096,1064,cs),
(1096,980,o),
(1078,906,o),
(1042,843,cs),
(969,716,o),
(837,642,o),
(670,642,cs),
(256,642,l),
(256,688,l),
(670,688,ls),
(744,688,o),
(810,704,o),
(867,735,cs),
(981,798,o),
(1050,913,o),
(1050,1064,cs),
(1050,1141,o),
(1034,1207,o),
(1001,1264,cs),
(936,1377,o),
(818,1444,o),
(670,1444,cs),
(278,1444,l),
(278,0,l)
);
},
{
closed = 1;
nodes = (
(1114,0,l),
(748,678,l),
(800,678,l),
(1166,0,l)
);
}
);
width = 1260;
}
);
leftKerningGroup = public.kern2.B2;
rightKerningGroup = public.kern1.R;
unicode = 82;
}
{
glyphname = S;
leftMetricsKey = "=116";
rightMetricsKey = "=116";
layers = (
{
layerId = "DD6EF60E-12CE-4CFD-A219-13982E9D034C";
leftMetricsKey = "=58";
rightMetricsKey = "=58";
shapes = (
{
closed = 1;
nodes = (
(506,-24,o),
(217,90,o),
(58,327,o),
(58,512,q),
(443,512,l),
(446,410,o),
(579,304,o),
(696,304,qs),
(760,304,o),
(848,339,o),
(893,398,o),
(893,434,qs),
(893,459,o),
(869,501,o),
(817,535,o),
(732,565,o),
(670,578,qs),
(520,610,ls),
(421,631,o),
(264,700,o),
(154,800,o),
(95,934,o),
(95,1020,qs),
(95,1160,o),
(249,1375,o),
(521,1496,o),
(698,1496,qs),
(878,1496,o),
(1141,1372,o),
(1284,1153,o),
(1285,1008,q),
(899,1008,l),
(892,1080,o),
(796,1168,o),
(698,1168,qs),
(635,1168,o),
(555,1135,o),
(518,1081,o),
(518,1048,qs),
(518,1022,o),
(541,981,o),
(589,949,o),
(666,923,o),
(718,912,qs),
(840,886,ls),
(1005,851,o),
(1209,724,o),
(1305,546,o),
(1305,434,qs),
(1305,289,o),
(1160,84,o),
(888,-24,o),
(700,-24,qs)
);
}
);
width = 1363;
},
{
layerId = "09B6B0AE-BF01-4DA1-8E4B-D236F68CE7ED";
shapes = (
{
closed = 1;
nodes = (
(507,-24,o),
(253,100,o),
(116,326,o),
(116,480,q),
(302,480,l),
(302,323,o),
(509,138,o),
(689,138,qs),
(800,138,o),
(961,204,o),
(1047,324,o),
(1047,404,qs),
(1047,476,o),
(988,561,o),
(890,607,o),
(773,635,o),
(715,650,qs),
(545,694,ls),
(475,712,o),
(335,765,o),
(217,850,o),
(146,978,o),
(146,1070,qs),
(146,1200,o),
(272,1391,o),
(506,1496,o),
(667,1496,qs),
(826,1496,o),
(1057,1384,o),
(1185,1179,o),
(1189,1040,q),
(1009,1040,l),
(1001,1175,o),
(818,1338,o),
(660,1338,qs),
(557,1338,o),
(408,1272,o),
(328,1151,o),
(328,1070,qs),
(328,1005,o),
(408,923,o),
(530,874,o),
(657,844,o),
(705,832,qs),
(837,798,ls),
(938,772,o),
(1118,687,o),
(1231,535,o),
(1231,410,qs),
(1231,278,o),
(1099,83,o),
(853,-24,o),
(683,-24,qs)
);
}
);
width = 1347;
},
{
layerId = "35B86B34-8686-44F8-9959-14CD414BA805";
leftMetricsKey = "=158";
rightMetricsKey = "=158";
shapes = (
{
closed = 1;
nodes = (
(487,-23,o),
(283,71,o),
(165,238,o),
(158,346,q),
(205,346,l),
(216,203,o),
(439,23,o),
(624,24,q),
(751,24,o),
(944,112,o),
(1051,270,o),
(1051,374,qs),
(1051,433,o),
(1011,530,o),
(929,609,o),
(801,674,o),
(711,702,qs),
(541,754,ls),
(453,781,o),
(322,853,o),
(236,943,o),
(193,1052,o),
(193,1116,qs),
(193,1225,o),
(307,1396,o),
(507,1496,o),
(634,1496,qs),
(762,1496,o),
(956,1394,o),
(1070,1218,o),
(1077,1104,q),
(1031,1104,l),
(1020,1255,o),
(808,1449,o),
(634,1450,q),
(521,1450,o),
(342,1363,o),
(239,1213,o),
(239,1116,qs),
(239,1060,o),
(278,965,o),
(355,887,o),
(473,824,o),
(553,800,qs),
(723,748,ls),
(852,709,o),
(1017,604,o),
(1098,465,o),
(1098,374,qs),
(1098,259,o),
(978,79,o),
(765,-23,o),
(624,-24,q)
);
}
);
width = 1256;
}
);
leftKerningGroup = S2;
rightKerningGroup = S;
unicode = 83;
}
{
glyphname = T;
layers = (
{
anchors = (
{
name = m.uni0326;
position = "{748, 0}";
},
{
name = m.uni030F_1;
position = "{750, 1490}";
},
{
name = m.uni0327_3;
position = "{750, 0}";
}
);
layerId = "5004196B-162C-4C82-BCAB-67337630B14F";
shapes = (
{
closed = 1;
nodes = (
(56,1164,l),
(56,1490,l),
(1350,1490,l),
(1350,1164,l),
(905,1164,l),
(905,0,l),
(501,0,l),
(501,1164,l)
);
}
);
width = 1406;
},
{
anchors = (
{
name = m.uni0326;
position = "{784, 0}";
},
{
name = m.uni030F_1;
position = "{786, 1490}";
},
{
name = m.uni0327_3;
position = "{786, 0}";
}
);
layerId = "B1312A1D-33BE-4648-8D8B-BF9AFD6F3133";
shapes = (
{
closed = 1;
nodes = (
(98,1322,l),
(98,1490,l),
(1224,1490,l),
(1224,1322,l),
(757,1322,l),
(757,0,l),
(567,0,l),
(567,1322,l)
);
}
);
width = 1322;
},
{
anchors = (
{
name = m.uni0326;
position = "{766, 0}";
},
{
name = m.uni030F_1;
position = "{766, 1490}";
},
{
name = m.uni0327_3;
position = "{766, 0}";
}
);
layerId = "3CB5008A-C4A1-41CB-9BE0-5E5E5E92B0B4";
shapes = (
{
closed = 1;
nodes = (
(128,1444,l),
(128,1490,l),
(1134,1490,l),
(1134,1444,l),
(654,1444,l),
(654,0,l),
(608,0,l),
(608,1444,l)
);
}
);
width = 1262;
}
);
leftKerningGroup = T2;
rightKerningGroup = T;
unicode = 84;
}
{
glyphname = U;
layers = (
{
anchors = (
{
name = m.uni0326;
position = "{740, 0}";
},
{
name = m.uni030F_1;
position = "{740, 1490}";
},
{
name = m.uni0328_4;
position = "{1446, 560}";
}
);
layerId = "AA18C446-7083-4EE4-9FA4-5ED387604317";
shapes = (
{
closed = 1;
nodes = (
(610,-18,o),
(498,5,o),
(402,50,cs),
(305,95,o),
(230,159,o),
(177,242,cs),
(123,325,o),
(96,423,o),
(96,536,cs),
(96,1490,l),
(500,1490,l),
(500,570,ls),
(500,523,o),
(510,482,o),
(531,447,cs),
(552,411,o),
(580,383,o),
(616,363,c),
(651,342,o),
(692,332,o),
(738,332,cs),
(785,332,o),
(826,342,o),
(862,363,cs),
(898,383,o),
(926,411,o),
(947,447,cs),
(968,482,o),
(978,523,o),
(978,570,cs),
(978,1490,l),
(1382,1490,l),
(1382,536,ls),
(1382,423,o),
(1355,325,o),
(1301,242,cs),
(1247,159,o),
(1172,95,o),
(1075,50,cs),
(978,5,o),
(866,-18,o),
(738,-18,cs)
);
}
);
width = 1478;
},
{
anchors = (
{
name = m.uni0326;
position = "{783, 0}";
},
{
name = m.uni030F_1;
position = "{783, 1490}";
},
{
name = m.uni0328_4;
position = "{1490, 561}";
}
);
layerId = "83678DE6-86A5-4DC1-9516-590C67EEE957";
shapes = (
{
closed = 1;
nodes = (
(646,-24,o),
(543,-1,o),
(456,45,cs),
(368,91,o),
(300,154,o),
(252,234,cs),
(204,314,o),
(180,405,o),
(180,507,cs),
(180,1490,l),
(370,1490,l),
(370,522,ls),
(370,451,o),
(386,387,o),
(418,332,cs),
(449,276,o),
(494,232,o),
(553,200,cs),
(612,168,o),
(682,152,o),
(763,152,cs),
(844,152,o),
(914,168,o),
(973,200,cs),
(1031,232,o),
(1076,276,o),
(1107,332,cs),
(1138,387,o),
(1154,451,o),
(1154,522,cs),
(1154,1490,l),
(1344,1490,l),
(1344,507,ls),
(1344,405,o),
(1320,314,o),
(1272,234,cs),
(1224,154,o),
(1157,91,o),
(1070,45,cs),
(983,-1,o),
(880,-24,o),
(763,-24,cs)
);
}
);
width = 1524;
},
{
anchors = (
{
name = m.uni0326;
position = "{755, 0}";
},
{
name = m.uni030F_1;
position = "{755, 1490}";
},
{
name = m.uni0328_4;
position = "{1374, 563}";
}
);
layerId = "011F2186-E3F6-4CD7-BC01-D546573589F3";
shapes = (
{
closed = 1;
nodes = (
(635,-22,o),
(544,1,o),
(463,47,cs),
(382,92,o),
(318,155,o),
(271,234,cs),
(224,313,o),
(200,403,o),
(200,504,cs),
(200,1490,l),
(246,1490,l),
(246,504,ls),
(246,412,o),
(267,330,o),
(310,258,cs),
(353,185,o),
(411,128,o),
(485,87,cs),
(559,45,o),
(643,24,o),
(736,24,cs),
(830,24,o),
(914,45,o),
(988,87,cs),
(1061,128,o),
(1119,185,o),
(1162,258,cs),
(1205,330,o),
(1226,412,o),
(1226,504,cs),
(1226,1490,l),
(1272,1490,l),
(1272,504,ls),
(1272,403,o),
(1249,313,o),
(1202,234,cs),
(1155,155,o),
(1092,92,o),
(1011,47,cs),
(930,1,o),
(838,-22,o),
(736,-22,cs)
);
}
);
width = 1472;
}
);
leftKerningGroup = public.kern2.U;
rightKerningGroup = public.kern1.J;
unicode = 85;
}
{
glyphname = V;
layers = (
{
anchors = (
{
name = m.uni0326;
position = "{913, 0}";
},
{
name = m.uni030F_1;
position = "{913, 1490}";
}
);
layerId = "DF515781-E436-4A88-B51E-316BD4FA0343";
shapes = (
{
closed = 1;
nodes = (
(546,0,l),
(46,1490,l),
(504,1490,l),
(677,912,ls),
(752,661,o),
(812,402,o),
(871,135,c),
(781,135,l),
(837,402,o),
(893,661,o),
(965,912,cs),
(1130,1490,l),
(1582,1490,l),
(1098,0,l)
);
}
);
width = 1628;
},
{
anchors = (
{
name = m.uni0326;
position = "{950, 0}";
},
{
name = m.uni030F_1;
position = "{950, 1490}";
}
);
layerId = "6C060D37-EA61-4F06-B959-8B1B04C15508";
shapes = (
{
closed = 1;
nodes = (
(600,0,l),
(52,1490,l),
(252,1490,l),
(567,606,ls),
(603,505,o),
(657,338,o),
(729,90,c),
(692,90,l),
(764,345,o),
(817,505,o),
(852,606,cs),
(1159,1490,l),
(1361,1490,l),
(819,0,l)
);
}
);
width = 1413;
},
{
anchors = (
{
name = m.uni0326;
position = "{876, 0}";
},
{
name = m.uni030F_1;
position = "{876, 1490}";
}
);
layerId = "D5D2BA9E-C9D4-4EBC-A272-0297FDC83579";
shapes = (
{
closed = 1;
nodes = (
(624,0,l),
(66,1490,l),
(115,1490,l),
(547,336,ls),
(587,229,o),
(626,123,o),
(665,16,c),
(647,16,l),
(686,123,o),
(725,229,o),
(765,336,cs),
(1195,1490,l),
(1244,1490,l),
(687,0,l)
);
}
);
width = 1310;
}
);
leftKerningGroup = public.kern2.V2;
rightKerningGroup = public.kern1.V;
unicode = 86;
}
{
glyphname = W;
layers = (
{
anchors = (
{
name = m.uni0326;
position = "{1198, 0}";
},
{
name = m.uni030F_1;
position = "{1198, 1490}";
}
);
layerId = "D8A92F70-7B12-4FFB-B168-20459808C763";
shapes = (
{
closed = 1;
nodes = (
(441,0,l),
(46,1490,l),
(498,1490,l),
(617,912,ls),
(632,839,o),
(646,760,o),
(658,674,cs),
(682,501,o),
(705,323,o),
(729,176,c),
(649,176,l),
(663,249,o),
(676,329,o),
(689,415,cs),
(714,587,o),
(741,767,o),
(774,912,cs),
(906,1490,l),
(1310,1490,l),
(1442,912,ls),
(1459,839,o),
(1474,760,o),
(1488,674,cs),
(1515,501,o),
(1539,323,o),
(1567,176,c),
(1486,176,l),
(1499,249,o),
(1511,329,o),
(1522,415,cs),
(1545,587,o),
(1569,767,o),
(1598,912,cs),
(1718,1490,l),
(2170,1490,l),
(1775,0,l),
(1318,0,l),
(1170,607,ls),
(1145,712,o),
(1125,825,o),
(1110,946,cs),
(1095,1067,o),
(1076,1184,o),
(1055,1296,c),
(1161,1296,l),
(1136,1184,o),
(1117,1068,o),
(1105,947,cs),
(1092,826,o),
(1073,713,o),
(1047,607,cs),
(898,0,l)
);
}
);
width = 2216;
},
{
anchors = (
{
name = m.uni0326;
position = "{1235, 0}";
},
{
name = m.uni030F_1;
position = "{1235, 1490}";
}
);
layerId = "F2144881-BF72-4154-AA19-0D7773A1BBB5";
shapes = (
{
closed = 1;
nodes = (
(458,0,l),
(52,1490,l),
(246,1490,l),
(482,576,ls),
(495,527,o),
(507,478,o),
(518,428,cs),
(541,327,o),
(562,224,o),
(581,115,c),
(558,115,l),
(568,170,o),
(578,223,o),
(589,275,cs),
(610,378,o),
(635,479,o),
(660,576,cs),
(901,1490,l),
(1117,1490,l),
(1356,576,ls),
(1369,527,o),
(1382,478,o),
(1394,428,cs),
(1417,327,o),
(1440,224,o),
(1460,115,c),
(1434,115,l),
(1444,170,o),
(1454,223,o),
(1465,275,cs),
(1486,378,o),
(1511,479,o),
(1535,576,cs),
(1770,1490,l),
(1966,1490,l),
(1558,0,l),
(1337,0,l),
(1081,944,ls),
(1064,1005,o),
(1048,1072,o),
(1033,1145,cs),
(1018,1217,o),
(1003,1300,o),
(988,1395,c),
(1028,1395,l),
(1013,1306,o),
(999,1226,o),
(985,1156,cs),
(971,1085,o),
(954,1015,o),
(935,944,cs),
(680,0,l)
);
}
);
width = 2018;
},
{
anchors = (
{
name = m.uni0326;
position = "{1147, 0}";
},
{
name = m.uni030F_1;
position = "{1147, 1490}";
}
);
layerId = "6534D9E7-D8F5-49CB-AE3D-9F113790C5C9";
shapes = (
{
closed = 1;
nodes = (
(488,0,l),
(66,1490,l),
(114,1490,l),
(436,352,ls),
(447,315,o),
(457,277,o),
(468,240,c),
(488,165,o),
(508,91,o),
(528,16,c),
(518,16,l),
(527,53,o),
(537,91,o),
(547,128,cs),
(566,203,o),
(586,277,o),
(606,352,cs),
(916,1490,l),
(986,1490,l),
(1296,352,ls),
(1306,315,o),
(1316,277,o),
(1326,240,cs),
(1346,165,o),
(1365,91,o),
(1384,16,c),
(1374,16,l),
(1384,53,o),
(1394,91,o),
(1404,128,cs),
(1424,203,o),
(1445,277,o),
(1466,352,cs),
(1788,1490,l),
(1836,1490,l),
(1414,0,l),
(1344,0,l),
(1043,1104,ls),
(1026,1165,o),
(1010,1227,o),
(994,1288,cs),
(977,1349,o),
(961,1411,o),
(946,1472,c),
(956,1472,l),
(941,1411,o),
(925,1349,o),
(909,1288,cs),
(892,1227,o),
(876,1165,o),
(859,1104,cs),
(558,0,l)
);
}
);
width = 1902;
}
);
leftKerningGroup = W2;
rightKerningGroup = W;
unicode = 87;
}
{
glyphname = X;
layers = (
{
anchors = (
{
name = m.uni0326;
position = "{901, -6}";
},
{
name = m.uni030F_1;
position = "{901, 1490}";
}
);
layerId = "C940992A-BC26-484D-9AD3-39561C0256D5";
shapes = (
{
closed = 1;
nodes = (
(46,0,l),
(688,911,l),
(688,602,l),
(106,1490,l),
(575,1490,l),
(694,1296,ls),
(723,1249,o),
(748,1204,o),
(767,1161,cs),
(786,1118,o),
(803,1077,o),
(819,1039,c),
(834,1000,o),
(851,964,o),
(870,931,c),
(748,931,l),
(768,964,o),
(786,1000,o),
(802,1039,cs),
(834,1115,o),
(869,1201,o),
(928,1296,cs),
(1049,1490,l),
(1506,1490,l),
(942,626,l),
(942,915,l),
(1564,0,l),
(1081,0,l),
(919,256,ls),
(892,299,o),
(872,335,o),
(857,364,cs),
(827,422,o),
(809,464,o),
(777,515,c),
(831,515,l),
(816,490,o),
(802,465,o),
(791,442,cs),
(768,394,o),
(743,340,o),
(687,256,cs),
(516,0,l)
);
}
);
width = 1610;
},
{
anchors = (
{
name = m.uni0326;
position = "{938, -6}";
},
{
name = m.uni030F_1;
position = "{938, 1490}";
}
);
layerId = "9514E43D-89D9-4083-9B59-14FFE90A8056";
shapes = (
{
closed = 1;
nodes = (
(57,0,l),
(640,833,l),
(640,692,l),
(90,1490,l),
(310,1490,l),
(525,1174,ls),
(557,1127,o),
(583,1088,o),
(604,1056,cs),
(624,1024,o),
(643,993,o),
(660,962,cs),
(677,931,o),
(696,895,o),
(717,852,c),
(684,852,l),
(705,894,o),
(725,930,o),
(742,961,cs),
(776,1022,o),
(814,1081,o),
(878,1174,cs),
(1097,1490,l),
(1312,1490,l),
(763,700,l),
(763,840,l),
(1340,0,l),
(1121,0,l),
(860,378,ls),
(832,419,o),
(808,455,o),
(789,485,cs),
(750,544,o),
(720,597,o),
(679,680,c),
(720,680,l),
(700,641,o),
(682,606,o),
(665,577,cs),
(631,517,o),
(595,462,o),
(536,378,cs),
(273,0,l)
);
}
);
width = 1397;
},
{
anchors = (
{
name = m.uni0326;
position = "{845, -6}";
},
{
name = m.uni030F_1;
position = "{845, 1490}";
}
);
layerId = "F1B44250-5A04-4AFC-8A77-A7E8F224F396";
shapes = (
{
closed = 1;
nodes = (
(66,0,l),
(619,773,l),
(619,741,l),
(82,1490,l),
(138,1490,l),
(472,1024,ls),
(492,997,o),
(512,970,o),
(531,943,cs),
(550,916,o),
(570,888,o),
(589,861,cs),
(608,833,o),
(627,804,o),
(646,775,c),
(625,775,l),
(644,804,o),
(664,833,o),
(683,861,cs),
(721,916,o),
(759,969,o),
(798,1024,cs),
(1132,1490,l),
(1188,1490,l),
(651,739,l),
(651,773,l),
(1204,0,l),
(1148,0,l),
(793,496,ls),
(774,523,o),
(756,549,o),
(737,576,cs),
(700,628,o),
(662,682,o),
(625,738,c),
(645,738,l),
(626,710,o),
(608,683,o),
(590,656,cs),
(553,602,o),
(517,549,o),
(478,496,c),
(122,0,l)
);
}
);
width = 1270;
}
);
leftKerningGroup = public.kern2.X2;
rightKerningGroup = public.kern1.X;
unicode = 88;
}
{
glyphname = Y;
layers = (
{
anchors = (
{
name = m.uni0326;
position = "{895, 0}";
},
{
name = m.uni030F_1;
position = "{884, 1490}";
},
{
name = m.uni0328_4;
position = "{1211, 0}";
}
);
layerId = "C2BA7105-123B-4065-95E4-2C8249C8089A";
shapes = (
{
closed = 1;
nodes = (
(601,0,l),
(601,518,l),
(46,1490,l),
(521,1490,l),
(736,1040,ls),
(755,999,o),
(773,958,o),
(788,915,cs),
(803,872,o),
(819,823,o),
(835,768,c),
(776,768,l),
(791,823,o),
(805,872,o),
(819,915,cs),
(833,958,o),
(849,999,o),
(868,1040,cs),
(1069,1490,l),
(1542,1490,l),
(1003,518,l),
(1003,0,l)
);
}
);
width = 1588;
},
{
anchors = (
{
name = m.uni0326;
position = "{932, 0}";
},
{
name = m.uni030F_1;
position = "{921, 1490}";
},
{
name = m.uni0328_4;
position = "{1253, 0}";
}
);
layerId = "9CF24730-065A-453E-8BED-A6F959227B57";
shapes = (
{
closed = 1;
nodes = (
(600,0,l),
(600,610,l),
(52,1490,l),
(272,1490,l),
(567,1009,ls),
(600,955,o),
(630,904,o),
(656,855,cs),
(681,806,o),
(708,744,o),
(735,669,c),
(659,669,l),
(686,745,o),
(713,808,o),
(739,858,cs),
(765,907,o),
(794,958,o),
(825,1009,cs),
(1119,1490,l),
(1338,1490,l),
(790,610,l),
(790,0,l)
);
}
);
width = 1390;
},
{
anchors = (
{
name = m.uni0326;
position = "{883, 0}";
},
{
name = m.uni030F_1;
position = "{871, 1490}";
},
{
name = m.uni0328_4;
position = "{1071, 0}";
}
);
layerId = "01511CED-EE56-4E59-B654-85BB35A5B07B";
shapes = (
{
closed = 1;
nodes = (
(634,0,l),
(634,706,l),
(66,1490,l),
(122,1490,l),
(483,992,ls),
(514,949,o),
(545,907,o),
(575,864,cs),
(605,821,o),
(635,779,o),
(666,736,c),
(648,736,l),
(679,779,o),
(709,821,o),
(740,864,cs),
(770,907,o),
(800,949,o),
(831,992,cs),
(1190,1490,l),
(1246,1490,l),
(680,706,l),
(680,0,l)
);
}
);
width = 1312;
}
);
leftKerningGroup = public.kern2.Y2;
rightKerningGroup = public.kern1.Y;
unicode = 89;
}
{
glyphname = Z;
layers = (
{
anchors = (
{
name = m.uni0326;
position = "{752, 0}";
},
{
name = m.uni030F_1;
position = "{756, 1490}";
}
);
layerId = "C940992A-BC26-484D-9AD3-39561C0256D5";
shapes = (
{
closed = 1;
nodes = (
(102,0,l),
(102,224,l),
(654,961,ls),
(741,1077,o),
(852,1194,o),
(963,1310,c),
(988,1180,l),
(845,1164,o),
(703,1164,o),
(560,1164,cs),
(104,1164,l),
(104,1490,l),
(1320,1490,l),
(1320,1266,l),
(780,544,ls),
(689,423,o),
(574,301,o),
(459,180,c),
(434,310,l),
(589,326,o),
(743,326,o),
(896,326,cs),
(1318,326,l),
(1318,0,l)
);
}
);
width = 1422;
},
{
anchors = (
{
name = m.uni0326;
position = "{762, 0}";
},
{
name = m.uni030F_1;
position = "{772, 1490}";
}
);
layerId = "9514E43D-89D9-4083-9B59-14FFE90A8056";
shapes = (
{
closed = 1;
nodes = (
(130,0,l),
(130,134,l),
(796,1125,ls),
(856,1214,o),
(926,1305,o),
(994,1393,c),
(1015,1331,l),
(892,1323,o),
(768,1322,o),
(645,1322,cs),
(122,1322,l),
(122,1490,l),
(1158,1490,l),
(1158,1354,l),
(502,379,ls),
(438,284,o),
(365,189,o),
(294,97,c),
(273,159,l),
(396,167,o),
(517,168,o),
(640,168,cs),
(1166,168,l),
(1166,0,l)
);
}
);
width = 1288;
},
{
anchors = (
{
name = m.uni0326;
position = "{735, 0}";
},
{
name = m.uni030F_1;
position = "{745, 1490}";
}
);
layerId = "F1B44250-5A04-4AFC-8A77-A7E8F224F396";
shapes = (
{
closed = 1;
nodes = (
(154,0,l),
(154,46,l),
(892,1222,l),
(943,1301,o),
(992,1381,o),
(1041,1460,c),
(1051,1442,l),
(942,1442,o),
(834,1442,o),
(725,1442,cs),
(160,1442,l),
(160,1490,l),
(1086,1490,l),
(1086,1442,l),
(342,256,ls),
(294,180,o),
(247,104,o),
(199,28,c),
(189,46,l),
(293,46,o),
(398,46,o),
(502,46,cs),
(1090,46,l),
(1090,0,l)
);
}
);
width = 1244;
}
);
leftKerningGroup = public.kern2.Z2;
rightKerningGroup = public.kern1.Z;
unicode = 90;
}
{
glyphname = bracketleft;
layers = (
{
layerId = "DD6EF60E-12CE-4CFD-A219-13982E9D034C";
shapes = (
{
closed = 1;
nodes = (
(144,-279,l),
(144,1581,l),
(710,1581,l),
(710,1289,l),
(534,1289,l),
(534,13,l),
(710,13,l),
(710,-279,l)
);
}
);
width = 794;
},
{
layerId = "09B6B0AE-BF01-4DA1-8E4B-D236F68CE7ED";
shapes = (
{
closed = 1;
nodes = (
(226,-279,l),
(226,1581,l),
(624,1581,l),
(624,1428,l),
(398,1428,l),
(398,-126,l),
(624,-126,l),
(624,-279,l)
);
}
);
width = 747;
},
{
layerId = "35B86B34-8686-44F8-9959-14CD414BA805";
shapes = (
{
closed = 1;
nodes = (
(256,-280,l),
(256,1582,l),
(488,1582,l),
(488,1536,l),
(302,1536,l),
(302,-234,l),
(488,-234,l),
(488,-280,l)
);
}
);
width = 646;
}
);
leftKerningGroup = parenleft2;
unicode = 91;
}
{
glyphname = backslash;
layers = (
{
layerId = "9CF24730-065A-453E-8BED-A6F959227B57";
shapes = (
{
closed = 1;
nodes = (
(526,-224,l),
(46,1560,l),
(212,1560,l),
(692,-224,l)
);
}
);
width = 738;
},
{
layerId = "C2BA7105-123B-4065-95E4-2C8249C8089A";
shapes = (
{
closed = 1;
nodes = (
(492,-224,l),
(12,1560,l),
(352,1560,l),
(832,-224,l)
);
}
);
width = 844;
},
{
layerId = "01511CED-EE56-4E59-B654-85BB35A5B07B";
shapes = (
{
closed = 1;
nodes = (
(546,-224,l),
(66,1560,l),
(114,1560,l),
(594,-224,l)
);
}
);
width = 660;
}
);
leftKerningGroup = public.kern2.V2;
unicode = 92;
}
{
glyphname = bracketright;
layers = (
{
layerId = "C940992A-BC26-484D-9AD3-39561C0256D5";
shapes = (
{
closed = 1;
nodes = (
(84,-279,l),
(84,13,l),
(260,13,l),
(260,1289,l),
(84,1289,l),
(84,1581,l),
(650,1581,l),
(650,-279,l)
);
}
);
width = 794;
},
{
layerId = "9514E43D-89D9-4083-9B59-14FFE90A8056";
shapes = (
{
closed = 1;
nodes = (
(123,-279,l),
(123,-126,l),
(349,-126,l),
(349,1428,l),
(123,1428,l),
(123,1581,l),
(521,1581,l),
(521,-279,l)
);
}
);
width = 747;
},
{
layerId = "F1B44250-5A04-4AFC-8A77-A7E8F224F396";
shapes = (
{
closed = 1;
nodes = (
(158,-280,l),
(158,-234,l),
(344,-234,l),
(344,1534,l),
(158,1534,l),
(158,1582,l),
(390,1582,l),
(390,-280,l)
);
}
);
width = 646;
}
);
leftKerningGroup = public.kern2.parenright2;
rightKerningGroup = public.kern1.parenright;
unicode = 93;
}
{
glyphname = asciicircum;
layers = (
{
layerId = "9514E43D-89D9-4083-9B59-14FFE90A8056";
shapes = (
{
closed = 1;
nodes = (
(456,1360,l),
(508,1360,l),
(508,1285,l),
(456,1285,l)
);
},
{
closed = 1;
nodes = (
(82,814,l),
(383,1443,l),
(582,1443,l),
(883,814,l),
(706,814,l),
(475,1315,l),
(490,1315,l),
(261,814,l)
);
}
);
width = 965;
},
{
layerId = "C940992A-BC26-484D-9AD3-39561C0256D5";
shapes = (
{
closed = 1;
nodes = (
(486,1306,l),
(538,1306,l),
(538,1222,l),
(486,1222,l)
);
},
{
closed = 1;
nodes = (
(58,814,l),
(370,1466,l),
(654,1466,l),
(966,814,l),
(690,814,l),
(506,1250,l),
(518,1250,l),
(334,814,l)
);
}
);
width = 1024;
},
{
layerId = "F1B44250-5A04-4AFC-8A77-A7E8F224F396";
shapes = (
{
closed = 1;
nodes = (
(396,1414,l),
(424,1414,l),
(424,1368,l),
(396,1368,l)
);
},
{
closed = 1;
nodes = (
(96,814,l),
(392,1442,l),
(428,1442,l),
(724,814,l),
(672,814,l),
(398,1396,l),
(422,1396,l),
(148,814,l)
);
}
);
width = 820;
}
);
rightKerningGroup = public.kern1.degree;
unicode = 94;
}
{
glyphname = underscore;
layers = (
{
layerId = "DF515781-E436-4A88-B51E-316BD4FA0343";
shapes = (
{
closed = 1;
nodes = (
(1010,0,l),
(1010,-286,l),
(0,-286,l),
(0,0,l)
);
}
);
width = 1010;
},
{
layerId = "6C060D37-EA61-4F06-B959-8B1B04C15508";
shapes = (
{
closed = 1;
nodes = (
(934,0,l),
(934,-166,l),
(0,-166,l),
(0,0,l)
);
}
);
width = 934;
},
{
layerId = "D5D2BA9E-C9D4-4EBC-A272-0297FDC83579";
shapes = (
{
closed = 1;
nodes = (
(884,0,l),
(884,-46,l),
(0,-46,l),
(0,0,l)
);
}
);
width = 884;
}
);
unicode = 95;
}
{
glyphname = a;
layers = (
{
anchors = (
{
name = bottom;
position = "{602, 0}";
},
{
name = ogonek;
position = "{1120, 0}";
},
{
name = rhalfring;
position = "{625, 1303}";
},
{
name = top;
position = "{617, 1303}";
}
);
guides = (
{
angle = 90;
position = "{553, 0}";
}
);
layerId = "C2BA7105-123B-4065-95E4-2C8249C8089A";
shapes = (
{
closed = 1;
nodes = (
(735,676,l),
(461,665,ls),
(231,656,o),
(49,553,o),
(49,308,cs),
(49,86,o),
(199,-17,o),
(413,-17,cs),
(559,-17,o),
(668,32,o),
(736,157,c),
(745,157,l),
(745,0,l),
(1120,0,l),
(1120,765,ls),
(1120,972,o),
(924,1132,o),
(605,1132,cs),
(271,1132,o),
(107,957,o),
(93,753,c),
(463,753,l),
(472,823,o),
(523,855,o),
(599,855,cs),
(669,855,o),
(718,823,o),
(719,765,cs),
(721,396,ls),
(722,294,o),
(635,236,o),
(544,236,cs),
(476,236,o),
(428,269,o),
(428,332,cs),
(428,389,o),
(468,438,o),
(532,442,cs),
(736,454,l)
);
}
);
width = 1210;
},
{
anchors = (
{
name = bottom;
position = "{572, 0}";
},
{
name = ogonek;
position = "{982, 0}";
},
{
name = rhalfring;
position = "{569, 1303}";
},
{
name = top;
position = "{580, 1303}";
}
);
guides = (
{
angle = 90;
position = "{553, 0}";
}
);
layerId = "9CF24730-065A-453E-8BED-A6F959227B57";
shapes = (
{
closed = 1;
nodes = (
(822,663,l),
(508,646,ls),
(314,635,o),
(89,573,o),
(89,317,cs),
(89,99,o),
(257,-26,o),
(470,-26,cs),
(665,-26,o),
(767,79,o),
(801,151,c),
(810,151,l),
(810,0,l),
(982,0,l),
(982,736,ls),
(982,1091,o),
(704,1132,o),
(563,1132,cs),
(318,1132,o),
(143,1008,o),
(121,828,c),
(300,828,l),
(326,915,o),
(412,980,o),
(554,980,cs),
(725,980,o),
(810,897,o),
(810,753,cs),
(810,404,ls),
(810,265,o),
(700,128,o),
(496,128,cs),
(359,128,o),
(260,189,o),
(260,308,cs),
(260,432,o),
(364,488,o),
(528,499,cs),
(825,519,l)
);
}
);
width = 1123;
},
{
anchors = (
{
name = bottom;
position = "{532, 0}";
},
{
name = ogonek;
position = "{881, 0}";
},
{
name = rhalfring;
position = "{532, 1303}";
},
{
name = top;
position = "{529, 1303}";
}
);
guides = (
{
angle = 90;
position = "{553, 0}";
}
);
layerId = "01511CED-EE56-4E59-B654-85BB35A5B07B";
shapes = (
{
closed = 1;
nodes = (
(851,663,l),
(506,636,ls),
(192,611,o),
(113,454,o),
(113,303,cs),
(113,93,o),
(271,-23,o),
(454,-23,cs),
(623,-23,o),
(759,76,o),
(829,227,c),
(835,227,l),
(835,0,l),
(881,0,l),
(881,803,ls),
(881,992,o),
(742,1135,o),
(518,1135,cs),
(328,1135,o),
(169,1039,o),
(141,876,c),
(189,876,l),
(220,1014,o),
(356,1088,o),
(518,1088,cs),
(708,1088,o),
(835,975,o),
(835,803,cs),
(835,477,ls),
(835,207,o),
(666,23,o),
(454,23,cs),
(288,23,o),
(160,134,o),
(160,303,cs),
(160,445,o),
(238,569,o),
(524,592,cs),
(852,618,l)
);
}
);
width = 1062;
}
);
leftKerningGroup = public.kern2.a2;
rightKerningGroup = public.kern1.a;
unicode = 97;
}
{
glyphname = c;
layers = (
{
anchors = (
{
name = m.uni0327_3;
position = "{613, 0}";
},
{
name = top;
position = "{621, 1303}";
}
);
guides = (
{
angle = 90;
position = "{573, 0}";
}
);
layerId = "E2AB630D-681A-4F59-AC7A-7D360026ACC4";
name = "#instance";
shapes = (
{
closed = 1;
nodes = (
(919.4,-21.2,o),
(1106.4,152.6,o),
(1120.4,409.4,c),
(828.8,409.4,l),
(810.6,290.4,o),
(732,223.4,o),
(625.6,223.4,cs),
(480.4,223.4,o),
(386.6,345,o),
(386.6,559,cs),
(386.6,770,o),
(481.6,890,o),
(625.6,890,cs),
(739.4,890,o),
(811.4,815,o),
(828.8,704.4,c),
(1120.4,704.4,l),
(1107.6,962.6,o),
(912.6,1132,o),
(620.8,1132,cs),
(281.2,1132,o),
(72.2,896.6,o),
(72.2,554.8,cs),
(72.2,214.4,o),
(278,-21.2,o),
(622,-21.2,cs)
);
}
);
width = 1190;
},
{
anchors = (
{
name = m.uni0327_3;
position = "{643, 0}";
},
{
name = top;
position = "{643, 1303}";
}
);
guides = (
{
angle = 90;
position = "{573, 0}";
}
);
layerId = "C940992A-BC26-484D-9AD3-39561C0256D5";
shapes = (
{
closed = 1;
nodes = (
(971,-20,o),
(1174,169,o),
(1178,465,c),
(806,465,l),
(797,348,o),
(734,285,o),
(646,285,cs),
(540,285,o),
(471,375,o),
(471,559,cs),
(471,742,o),
(540,832,o),
(646,832,cs),
(735,832,o),
(795,769,o),
(806,652,c),
(1178,652,l),
(1176,943,o),
(969,1132,o),
(640,1132,cs),
(276,1132,o),
(61,899,o),
(61,556,cs),
(61,212,o),
(276,-20,o),
(640,-20,cs)
);
}
);
width = 1242;
},
{
anchors = (
{
name = m.uni0327_3;
position = "{569, 0}";
},
{
name = top;
position = "{589, 1303}";
}
);
guides = (
{
angle = 90;
position = "{573, 0}";
}
);
layerId = "9514E43D-89D9-4083-9B59-14FFE90A8056";
shapes = (
{
closed = 1;
nodes = (
(842,-23,o),
(1005,128,o),
(1034,326,c),
(863,326,l),
(831,204,o),
(729,131,o),
(595,131,cs),
(391,131,o),
(260,300,o),
(260,559,cs),
(260,812,o),
(394,977,o),
(595,977,cs),
(746,977,o),
(836,884,o),
(863,783,c),
(1034,783,l),
(1005,992,o),
(828,1132,o),
(592,1132,cs),
(289,1132,o),
(89,893,o),
(89,553,cs),
(89,218,o),
(281,-23,o),
(595,-23,cs)
);
}
);
width = 1111;
},
{
anchors = (
{
name = m.uni0327_3;
position = "{564, 0}";
},
{
name = top;
position = "{564, 1303}";
}
);
guides = (
{
angle = 90;
position = "{573, 0}";
}
);
layerId = "F1B44250-5A04-4AFC-8A77-A7E8F224F396";
shapes = (
{
closed = 1;
nodes = (
(780,-23,o),
(945,115,o),
(977,326,c),
(928,326,l),
(901,143,o),
(754,23,o),
(576,23,cs),
(327,23,o),
(154,258,o),
(154,556,cs),
(154,861,o),
(335,1088,o),
(576,1088,cs),
(752,1088,o),
(895,967,o),
(925,791,c),
(975,791,l),
(940,995,o),
(776,1135,o),
(576,1135,cs),
(303,1135,o),
(108,883,o),
(108,556,cs),
(108,225,o),
(305,-23,o),
(576,-23,cs)
);
}
);
width = 1085;
}
);
leftKerningGroup = public.kern2.c;
rightKerningGroup = public.kern1.b;
unicode = 99;
}
{
glyphname = e;
layers = (
{
anchors = (
{
name = m.uni0327_3;
position = "{607, 0}";
},
{
name = ogonek;
position = "{875, 29}";
},
{
name = top;
position = "{607, 1303}";
}
);
guides = (
{
angle = 90;
position = "{573, 0}";
}
);
layerId = "E2AB630D-681A-4F59-AC7A-7D360026ACC4";
name = "#instance";
shapes = (
{
closed = 1;
nodes = (
(902.6,-21.2,o),
(1088.4,112.8,o),
(1132.4,320.2,c),
(838.2,320.2,l),
(807.6,253.8,o),
(734.4,209.6,o),
(631.2,209.6,cs),
(405.4,209.6,o),
(348.2,383.2,o),
(348.2,563.4,cs),
(348.2,730.2,o),
(408.4,900.2,o),
(619,900.2,cs),
(753.4,900.2,o),
(846,805,o),
(847.8,671.8,c),
(196,671.8,l),
(196,479,l),
(1139.2,479,l),
(1139.2,564.6,ls),
(1139.2,944,o),
(909.6,1132,o),
(613.6,1132,cs),
(284.8,1132,o),
(72.2,898.4,o),
(72.2,553.6,cs),
(72.2,199.2,o),
(282.2,-21.2,o),
(625.8,-21.2,cs)
);
}
);
width = 1211;
},
{
anchors = (
{
name = m.uni0327_3;
position = "{623, 0}";
},
{
name = ogonek;
position = "{957, 49}";
},
{
name = top;
position = "{623, 1303}";
}
);
guides = (
{
angle = 90;
position = "{573, 0}";
}
);
layerId = "C940992A-BC26-484D-9AD3-39561C0256D5";
shapes = (
{
closed = 1;
nodes = (
(947,-20,o),
(1146,128,o),
(1184,361,c),
(817,361,l),
(794,297,o),
(728,262,o),
(646,262,cs),
(451,262,o),
(407,416,o),
(407,559,cs),
(407,697,o),
(448,849,o),
(637,849,cs),
(737,849,o),
(812,783,o),
(815,687,c),
(186,687,l),
(186,465,l),
(1184,465,l),
(1184,559,ls),
(1184,914,o),
(966,1132,o),
(628,1132,cs),
(282,1132,o),
(61,902,o),
(61,556,cs),
(61,194,o),
(279,-20,o),
(637,-20,cs)
);
}
);
width = 1245;
},
{
anchors = (
{
name = m.uni0327_3;
position = "{583, 0}";
},
{
name = ogonek;
position = "{752, 0}";
},
{
name = top;
position = "{583, 1303}";
}
);
guides = (
{
angle = 90;
position = "{573, 0}";
}
);
layerId = "9514E43D-89D9-4083-9B59-14FFE90A8056";
shapes = (
{
closed = 1;
nodes = (
(836,-23,o),
(1002,90,o),
(1055,259,c),
(870,259,l),
(828,189,o),
(744,131,o),
(609,131,cs),
(337,131,o),
(260,334,o),
(260,570,cs),
(260,780,o),
(349,977,o),
(592,977,cs),
(778,977,o),
(897,838,o),
(897,649,c),
(211,649,l),
(211,500,l),
(1072,500,l),
(1072,573,ls),
(1072,989,o),
(825,1132,o),
(592,1132,cs),
(289,1132,o),
(89,893,o),
(89,550,cs),
(89,207,o),
(287,-23,o),
(609,-23,cs)
);
}
);
width = 1161;
},
{
anchors = (
{
name = m.uni0327_3;
position = "{567, 0}";
},
{
name = ogonek;
position = "{617, 0}";
},
{
name = top;
position = "{567, 1303}";
}
);
guides = (
{
angle = 90;
position = "{573, 0}";
}
);
layerId = "F1B44250-5A04-4AFC-8A77-A7E8F224F396";
shapes = (
{
closed = 1;
nodes = (
(811,-23,o),
(950,116,o),
(993,230,c),
(943,230,l),
(906,157,o),
(799,23,o),
(593,23,cs),
(312,23,o),
(154,271,o),
(154,564,cs),
(154,861,o),
(340,1088,o),
(570,1088,cs),
(796,1088,o),
(980,873,o),
(980,605,c),
(131,605,l),
(131,559,l),
(1027,559,l),
(1027,605,ls),
(1027,894,o),
(830,1135,o),
(570,1135,cs),
(306,1135,o),
(108,884,o),
(108,556,cs),
(108,227,o),
(300,-23,o),
(593,-23,cs)
);
}
);
width = 1135;
}
);
leftKerningGroup = public.kern2.c;
rightKerningGroup = public.kern1.b;
unicode = 101;
}
{
glyphname = f;
layers = (
{
anchors = (
{
name = m.uni0326;
position = "{524, 0}";
},
{
name = m.uni030F_1;
position = "{558, 1552}";
}
);
layerId = "5004196B-162C-4C82-BCAB-67337630B14F";
shapes = (
{
closed = 1;
nodes = (
(811,1118,l),
(811,826,l),
(20,826,l),
(20,1118,l)
);
},
{
closed = 1;
nodes = (
(198,0,l),
(198,1150,ls),
(198,1242,o),
(214,1318,o),
(247,1379,cs),
(312,1500,o),
(435,1560,o),
(598,1560,cs),
(649,1560,o),
(699,1556,o),
(748,1548,cs),
(796,1540,o),
(831,1533,o),
(854,1528,c),
(796,1240,l),
(767,1248,o),
(725,1254,o),
(694,1254,cs),
(657,1254,o),
(631,1246,o),
(618,1230,cs),
(605,1214,o),
(598,1193,o),
(598,1166,cs),
(598,0,l)
);
}
);
width = 864;
},
{
anchors = (
{
name = m.uni0326;
position = "{566, 0}";
},
{
name = m.uni030F_1;
position = "{599, 1614}";
}
);
layerId = "B1312A1D-33BE-4648-8D8B-BF9AFD6F3133";
shapes = (
{
closed = 1;
nodes = (
(678,1118,l),
(678,964,l),
(20,964,l),
(20,1118,l)
);
},
{
closed = 1;
nodes = (
(240,0,l),
(240,1267,ls),
(240,1332,o),
(255,1386,o),
(286,1429,c),
(346,1516,o),
(450,1560,o),
(558,1560,cs),
(601,1560,o),
(636,1557,o),
(664,1550,cs),
(692,1543,o),
(713,1536,o),
(726,1530,c),
(676,1376,l),
(657,1383,o),
(630,1393,o),
(579,1393,cs),
(524,1393,o),
(483,1379,o),
(458,1351,cs),
(433,1322,o),
(420,1281,o),
(420,1227,cs),
(420,0,l)
);
}
);
width = 758;
},
{
anchors = (
{
name = m.uni0326;
position = "{452, 0}";
},
{
name = m.uni030F_1;
position = "{503, 1676}";
}
);
layerId = "3CB5008A-C4A1-41CB-9BE0-5E5E5E92B0B4";
shapes = (
{
closed = 1;
nodes = (
(548,1118,l),
(548,1072,l),
(10,1072,l),
(10,1118,l)
);
},
{
closed = 1;
nodes = (
(228,0,l),
(228,1300,ls),
(228,1353,o),
(239,1398,o),
(260,1436,cs),
(302,1512,o),
(376,1556,o),
(468,1556,cs),
(489,1556,o),
(509,1555,o),
(526,1552,cs),
(543,1549,o),
(559,1545,o),
(572,1540,c),
(558,1496,l),
(534,1505,o),
(504,1510,o),
(468,1510,cs),
(413,1510,o),
(367,1491,o),
(330,1454,cs),
(293,1417,o),
(274,1365,o),
(274,1300,cs),
(274,0,l)
);
}
);
width = 602;
}
);
leftKerningGroup = f2;
rightKerningGroup = f;
unicode = 102;
}
{
glyphname = g;
layers = (
{
anchors = (
{
name = bottom;
position = "{640, -416}";
},
{
name = cross;
position = "{1024, 567}";
},
{
name = top;
position = "{640, 1303}";
}
);
layerId = "DF515781-E436-4A88-B51E-316BD4FA0343";
shapes = (
{
closed = 1;
nodes = (
(993,-442,o),
(1228,-281,o),
(1228,3,cs),
(1228,1117,l),
(826,1117,l),
(826,922,l),
(817,922,l),
(774,1036,o),
(669,1132,o),
(503,1132,cs),
(282,1132,o),
(67,963,o),
(67,559,cs),
(67,172,o),
(268,15,o),
(506,15,cs),
(657,15,o),
(777,79,o),
(820,192,c),
(832,192,l),
(832,3,ls),
(832,-129,o),
(756,-172,o),
(652,-172,cs),
(559,-172,o),
(492,-144,o),
(480,-73,c),
(93,-73,l),
(108,-288,o),
(304,-442,o),
(640,-442,cs)
);
},
{
closed = 1;
nodes = (
(544,300,o),
(480,393,o),
(480,559,cs),
(480,724,o),
(544,823,o),
(655,823,cs),
(765,823,o),
(832,724,o),
(832,559,cs),
(832,396,o),
(765,300,o),
(655,300,cs)
);
}
);
width = 1329;
},
{
anchors = (
{
name = bottom;
position = "{607, -442}";
},
{
name = cross;
position = "{993, 564}";
},
{
name = top;
position = "{609, 1303}";
}
);
layerId = "6C060D37-EA61-4F06-B959-8B1B04C15508";
shapes = (
{
closed = 1;
nodes = (
(862,-442,o),
(1075,-320,o),
(1075,-32,cs),
(1075,1117,l),
(909,1117,l),
(909,940,l),
(892,940,l),
(854,998,o),
(784,1132,o),
(566,1132,cs),
(284,1132,o),
(89,916,o),
(89,573,cs),
(89,224,o),
(292,17,o),
(563,17,cs),
(781,17,o),
(851,145,o),
(889,207,c),
(903,207,l),
(903,-20,ls),
(903,-207,o),
(785,-291,o),
(592,-291,cs),
(432,-291,o),
(324,-233,o),
(301,-118,c),
(121,-118,l),
(141,-326,o),
(324,-442,o),
(592,-442,cs)
);
},
{
closed = 1;
nodes = (
(371,172,o),
(260,335,o),
(260,567,cs),
(260,794,o),
(368,977,o),
(586,977,cs),
(796,977,o),
(906,809,o),
(906,567,cs),
(906,320,o),
(793,172,o),
(586,172,cs)
);
}
);
width = 1216;
},
{
anchors = (
{
name = bottom;
position = "{538, -436}";
},
{
name = cross;
position = "{945, 559}";
},
{
name = top;
position = "{573, 1303}";
}
);
layerId = "D5D2BA9E-C9D4-4EBC-A272-0297FDC83579";
shapes = (
{
closed = 1;
nodes = (
(811,-442,o),
(969,-299,o),
(969,-23,cs),
(969,1117,l),
(922,1117,l),
(922,832,l),
(916,832,l),
(855,1018,o),
(719,1135,o),
(538,1135,cs),
(273,1135,o),
(108,887,o),
(108,556,cs),
(108,227,o),
(276,0,o),
(538,0,cs),
(704,0,o),
(858,93,o),
(916,279,c),
(922,279,l),
(922,-23,ls),
(922,-274,o),
(785,-396,o),
(553,-396,cs),
(385,-396,o),
(236,-332,o),
(201,-201,c),
(150,-201,l),
(192,-368,o),
(365,-442,o),
(553,-442,cs)
);
},
{
closed = 1;
nodes = (
(303,47,o),
(154,253,o),
(154,556,cs),
(154,858,o),
(301,1088,o),
(538,1088,cs),
(775,1088,o),
(922,858,o),
(922,556,cs),
(922,242,o),
(771,47,o),
(538,47,cs)
);
}
);
width = 1149;
}
);
leftKerningGroup = public.kern2.c;
rightKerningGroup = public.kern1.g;
unicode = 103;
}
{
glyphname = i;
layers = (
{
anchors = (
{
name = m.uni0326;
position = "{417, 0}";
},
{
name = m.uni030F_1;
position = "{412, 1679}";
},
{
name = m.uni0328_4;
position = "{733, 0}";
},
{
name = t.uni030F;
position = "{253, 1496}";
}
);
layerId = "77AA2557-3F0F-43EB-9D4B-67A8E9FB1A04";
name = "#instance";
shapes = (
{
closed = 1;
nodes = (
(155,0,l),
(155,1118,l),
(348,1118,l),
(348,0,l)
);
},
{
closed = 1;
nodes = (
(149,1292,l),
(149,1490,l),
(357,1490,l),
(357,1292,l)
);
}
);
width = 503;
},
{
anchors = (
{
name = m.uni0326;
position = "{381, 0}";
},
{
name = m.uni030F_1;
position = "{376, 1637}";
},
{
name = m.uni0328_4;
position = "{694, 0}";
},
{
name = t.uni030F;
position = "{303, 1586}";
}
);
layerId = "D8A92F70-7B12-4FFB-B168-20459808C763";
shapes = (
{
closed = 1;
nodes = (
(102,0,l),
(102,1118,l),
(504,1118,l),
(504,0,l)
);
},
{
closed = 1;
nodes = (
(102,1256,l),
(102,1490,l),
(504,1490,l),
(504,1256,l)
);
}
);
width = 606;
},
{
anchors = (
{
name = m.uni0326;
position = "{419, 0}";
},
{
name = m.uni030F_1;
position = "{414, 1682}";
},
{
name = m.uni0328_4;
position = "{736, 0}";
},
{
name = t.uni030F;
position = "{250, 1490}";
}
);
layerId = "F2144881-BF72-4154-AA19-0D7773A1BBB5";
shapes = (
{
closed = 1;
nodes = (
(158,0,l),
(158,1118,l),
(338,1118,l),
(338,0,l)
);
},
{
closed = 1;
nodes = (
(152,1294,l),
(152,1490,l),
(348,1490,l),
(348,1294,l)
);
}
);
width = 496;
},
{
anchors = (
{
name = m.uni0326;
position = "{374, 0}";
},
{
name = m.uni030F_1;
position = "{369, 1586}";
},
{
name = m.uni0328_4;
position = "{568, 0}";
},
{
name = t.uni030F;
position = "{220, 1434}";
}
);
layerId = "6534D9E7-D8F5-49CB-AE3D-9F113790C5C9";
shapes = (
{
closed = 1;
nodes = (
(198,0,l),
(198,1118,l),
(244,1118,l),
(244,0,l)
);
},
{
closed = 1;
nodes = (
(188,1319,l),
(188,1490,l),
(252,1490,l),
(252,1319,l)
);
}
);
width = 442;
}
);
leftKerningGroup = i2;
rightKerningGroup = i;
unicode = 105;
}
{
glyphname = j;
layers = (
{
anchors = (
{
name = m.uni0326;
position = "{353, -333}";
},
{
name = m.uni030F_1;
position = "{415, 1176}";
},
{
name = t.uni030F;
position = "{252, 1496}";
}
);
layerId = "77AA2557-3F0F-43EB-9D4B-67A8E9FB1A04";
name = "#instance";
shapes = (
{
closed = 1;
nodes = (
(154,1118,l),
(348,1118,l),
(348,-77,l),
(349,-150,o),
(336,-211,o),
(310,-262,cs),
(259,-364,o),
(158,-418,o),
(10,-418,cs),
(-29,-418,l),
(-29,-244,l),
(5,-244,ls),
(57,-244,o),
(95,-230,o),
(118,-202,cs),
(142,-172,o),
(154,-131,o),
(154,-77,cs)
);
},
{
closed = 1;
nodes = (
(148,1292,l),
(148,1490,l),
(356,1490,l),
(356,1292,l)
);
}
);
width = 503;
},
{
anchors = (
{
name = m.uni0326;
position = "{318, -336}";
},
{
name = m.uni030F_1;
position = "{380, 1118}";
},
{
name = t.uni030F;
position = "{304, 1586}";
}
);
layerId = "D8A92F70-7B12-4FFB-B168-20459808C763";
shapes = (
{
closed = 1;
nodes = (
(102,1118,l),
(504,1118,l),
(504,-38,ls),
(504,-136,o),
(484,-213,o),
(443,-268,cs),
(361,-378,o),
(208,-418,o),
(12,-418,cs),
(-70,-418,l),
(-70,-122,l),
(-24,-122,ls),
(25,-122,o),
(58,-115,o),
(76,-100,cs),
(93,-85,o),
(102,-62,o),
(102,-30,cs)
);
},
{
closed = 1;
nodes = (
(103,1256,l),
(103,1490,l),
(505,1490,l),
(505,1256,l)
);
}
);
width = 606;
},
{
anchors = (
{
name = m.uni0326;
position = "{355, -333}";
},
{
name = m.uni030F_1;
position = "{417, 1180}";
},
{
name = t.uni030F;
position = "{249, 1490}";
}
);
layerId = "F2144881-BF72-4154-AA19-0D7773A1BBB5";
shapes = (
{
closed = 1;
nodes = (
(157,1118,l),
(338,1118,l),
(338,-80,l),
(339,-151,o),
(327,-211,o),
(302,-262,cs),
(253,-363,o),
(155,-418,o),
(10,-418,cs),
(-26,-418,l),
(-26,-252,l),
(7,-252,ls),
(59,-252,o),
(97,-237,o),
(121,-208,cs),
(145,-178,o),
(157,-135,o),
(157,-80,cs)
);
},
{
closed = 1;
nodes = (
(151,1294,l),
(151,1490,l),
(347,1490,l),
(347,1294,l)
);
}
);
width = 496;
},
{
anchors = (
{
name = m.uni0326;
position = "{379, -297}";
},
{
name = m.uni030F_1;
position = "{385, 1242}";
},
{
name = t.uni030F;
position = "{227, 1434}";
}
);
layerId = "6534D9E7-D8F5-49CB-AE3D-9F113790C5C9";
shapes = (
{
closed = 1;
nodes = (
(204,1118,l),
(250,1118,l),
(250,-162,ls),
(250,-215,o),
(238,-260,o),
(215,-299,c),
(167,-375,o),
(86,-418,o),
(-6,-418,cs),
(-24,-418,l),
(-24,-372,l),
(-6,-372,ls),
(49,-372,o),
(98,-353,o),
(141,-316,cs),
(183,-279,o),
(204,-227,o),
(204,-162,cs)
);
},
{
closed = 1;
nodes = (
(195,1319,l),
(195,1490,l),
(259,1490,l),
(259,1319,l)
);
}
);
width = 448;
}
);
leftKerningGroup = j;
rightKerningGroup = i;
unicode = 106;
}
{
glyphname = k;
layers = (
{
anchors = (
{
name = m.uni0326;
position = "{711, 0}";
},
{
name = m.uni030F_1;
position = "{393, 1490}";
}
);
layerId = "E2AB630D-681A-4F59-AC7A-7D360026ACC4";
name = "#instance";
shapes = (
{
closed = 1;
nodes = (
(408,319.2,l),
(408,695.2,l),
(454.8,695.2,l),
(808,1118,l),
(1168.4,1118,l),
(689.2,554,l),
(612.8,554,l)
);
},
{
closed = 1;
nodes = (
(124.4,0,l),
(124.4,1490,l),
(437.6,1490,l),
(437.6,0,l)
);
},
{
closed = 1;
nodes = (
(821.2,0,l),
(496.4,484,l),
(704.8,706.4,l),
(1188.4,0,l)
);
}
);
width = 1195;
},
{
anchors = (
{
name = m.uni0326;
position = "{696, 0}";
},
{
name = m.uni030F_1;
position = "{378, 1490}";
}
);
layerId = "C940992A-BC26-484D-9AD3-39561C0256D5";
shapes = (
{
closed = 1;
nodes = (
(462,264,l),
(462,742,l),
(518,742,l),
(788,1118,l),
(1240,1118,l),
(786,532,l),
(672,532,l)
);
},
{
closed = 1;
nodes = (
(102,0,l),
(102,1490,l),
(504,1490,l),
(504,0,l)
);
},
{
closed = 1;
nodes = (
(792,0,l),
(536,442,l),
(798,728,l),
(1250,0,l)
);
}
);
width = 1242;
},
{
anchors = (
{
name = m.uni0326;
position = "{733, 0}";
},
{
name = m.uni030F_1;
position = "{415, 1490}";
}
);
layerId = "9514E43D-89D9-4083-9B59-14FFE90A8056";
shapes = (
{
closed = 1;
nodes = (
(327,402,l),
(327,625,l),
(360,625,l),
(838,1118,l),
(1061,1118,l),
(544,587,l),
(524,587,l)
);
},
{
closed = 1;
nodes = (
(158,0,l),
(158,1490,l),
(338,1490,l),
(338,0,l)
);
},
{
closed = 1;
nodes = (
(865,0,l),
(437,547,l),
(565,674,l),
(1096,0,l)
);
}
);
width = 1124;
},
{
anchors = (
{
name = m.uni0326;
position = "{657, 0}";
},
{
name = m.uni030F_1;
position = "{371, 1490}";
}
);
layerId = "F1B44250-5A04-4AFC-8A77-A7E8F224F396";
shapes = (
{
closed = 1;
nodes = (
(232,450,l),
(232,531,l),
(250,531,l),
(844,1118,l),
(910,1118,l),
(402,616,l),
(396,610,l)
);
},
{
closed = 1;
nodes = (
(198,0,l),
(198,1490,l),
(244,1490,l),
(244,0,l)
);
},
{
closed = 1;
nodes = (
(869,0,l),
(378,616,l),
(413,645,l),
(928,0,l)
);
}
);
width = 998;
}
);
leftKerningGroup = public.kern2.B2;
rightKerningGroup = public.kern1.k;
unicode = 107;
}
{
glyphname = l.ss02;
layers = (
{
anchors = (
{
name = _left;
position = "{157, 372}";
},
{
name = bottom;
position = "{358, 0}";
},
{
name = cross;
position = "{303, 788}";
},
{
name = raccent;
position = "{620, 1489}";
},
{
name = top;
position = "{303, 1676}";
}
);
layerId = "DF515781-E436-4A88-B51E-316BD4FA0343";
shapes = (
{
closed = 1;
nodes = (
(102,1489,l),
(102,381,ls),
(102,87,o),
(299,0,o),
(593,0,cs),
(623,0,o),
(645,1,o),
(675,3,c),
(675,300,l),
(656,297,o),
(643,297,o),
(628,297,cs),
(532,297,o),
(503,325,o),
(503,390,cs),
(503,1489,l)
);
}
);
width = 691;
},
{
anchors = (
{
name = _left;
position = "{-4, 372}";
},
{
name = bottom;
position = "{289, 0}";
},
{
name = cross;
position = "{228, 768}";
},
{
name = raccent;
position = "{455, 1489}";
},
{
name = top;
position = "{225, 1676}";
}
);
layerId = "6C060D37-EA61-4F06-B959-8B1B04C15508";
shapes = (
{
closed = 1;
nodes = (
(141,1489,l),
(141,337,ls),
(141,131,o),
(246,0,o),
(461,0,cs),
(473,0,o),
(484,0,o),
(496,0,c),
(496,160,l),
(484,160,o),
(476,160,o),
(464,160,cs),
(359,160,o),
(313,224,o),
(313,337,cs),
(313,1489,l)
);
}
);
width = 564;
},
{
anchors = (
{
name = _left;
position = "{-84, 372}";
},
{
name = bottom;
position = "{265, 0}";
},
{
name = cross;
position = "{192, 768}";
},
{
name = raccent;
position = "{352, 1489}";
},
{
name = top;
position = "{192, 1676}";
}
);
layerId = "D5D2BA9E-C9D4-4EBC-A272-0297FDC83579";
shapes = (
{
closed = 1;
nodes = (
(175,1489,l),
(175,256,ls),
(175,99,o),
(294,0,o),
(431,0,cs),
(436,0,o),
(441,0,o),
(448,0,c),
(448,47,l),
(442,47,o),
(436,47,o),
(431,47,cs),
(320,47,o),
(221,126,o),
(221,256,cs),
(221,1489,l)
);
}
);
width = 472;
}
);
unicode = 108;
}
{
glyphname = m;
layers = (
{
anchors = (
{
name = m.uni0326;
position = "{1086, 0}";
},
{
name = m.uni030F_1;
position = "{1084, 1176}";
}
);
layerId = "77AA2557-3F0F-43EB-9D4B-67A8E9FB1A04";
name = "#instance";
shapes = (
{
closed = 1;
nodes = (
(155,0,l),
(155,1118,l),
(341,1118,l),
(344,865,l),
(329,865,l),
(344,927,o),
(369,977,o),
(402,1018,cs),
(468,1098,o),
(561,1138,o),
(657,1138,cs),
(738,1138,o),
(804,1113,o),
(855,1062,cs),
(905,1012,o),
(937,945,o),
(953,861,c),
(928,861,l),
(941,919,o),
(966,968,o),
(1002,1010,cs),
(1073,1092,o),
(1177,1138,o),
(1295,1138,cs),
(1361,1138,o),
(1420,1124,o),
(1473,1095,cs),
(1580,1039,o),
(1648,926,o),
(1648,754,cs),
(1648,0,l),
(1453,0,l),
(1453,743,ls),
(1453,822,o),
(1432,878,o),
(1388,913,cs),
(1344,947,o),
(1293,964,o),
(1234,964,cs),
(1185,964,o),
(1143,954,o),
(1108,934,cs),
(1037,893,o),
(997,819,o),
(997,725,cs),
(997,0,l),
(805,0,l),
(805,760,ls),
(805,821,o),
(785,871,o),
(745,908,cs),
(704,945,o),
(653,964,o),
(591,964,cs),
(549,964,o),
(509,954,o),
(472,935,cs),
(397,895,o),
(348,817,o),
(348,701,cs),
(348,0,l)
);
}
);
width = 1802;
},
{
anchors = (
{
name = m.uni0326;
position = "{1051, 0}";
},
{
name = m.uni030F_1;
position = "{1050, 1118}";
}
);
layerId = "D8A92F70-7B12-4FFB-B168-20459808C763";
shapes = (
{
closed = 1;
nodes = (
(102,0,l),
(102,1118,l),
(469,1118,l),
(495,816,l),
(467,816,l),
(485,892,o),
(511,953,o),
(546,1000,cs),
(615,1092,o),
(711,1132,o),
(814,1132,cs),
(893,1132,o),
(957,1106,o),
(1006,1054,cs),
(1055,1002,o),
(1094,912,o),
(1125,784,c),
(1081,784,l),
(1100,869,o),
(1130,938,o),
(1170,989,cs),
(1250,1091,o),
(1359,1132,o),
(1470,1132,cs),
(1541,1132,o),
(1604,1116,o),
(1658,1085,cs),
(1766,1022,o),
(1830,907,o),
(1830,754,cs),
(1830,0,l),
(1428,0,l),
(1428,652,ls),
(1428,701,o),
(1416,739,o),
(1391,767,cs),
(1366,794,o),
(1333,808,o),
(1292,808,cs),
(1265,808,o),
(1241,802,o),
(1221,789,cs),
(1180,764,o),
(1158,717,o),
(1158,652,cs),
(1158,0,l),
(774,0,l),
(774,652,ls),
(774,701,o),
(762,739,o),
(737,767,cs),
(712,794,o),
(679,808,o),
(638,808,cs),
(610,808,o),
(586,802,o),
(566,789,cs),
(526,764,o),
(504,717,o),
(504,652,cs),
(504,0,l)
);
}
);
width = 1932;
},
{
anchors = (
{
name = m.uni0326;
position = "{1088, 0}";
},
{
name = m.uni030F_1;
position = "{1086, 1180}";
}
);
layerId = "F2144881-BF72-4154-AA19-0D7773A1BBB5";
shapes = (
{
closed = 1;
nodes = (
(158,0,l),
(158,1118,l),
(333,1118,l),
(334,868,l),
(320,868,l),
(335,929,o),
(360,979,o),
(393,1019,cs),
(459,1098,o),
(551,1138,o),
(647,1138,cs),
(728,1138,o),
(794,1113,o),
(845,1063,cs),
(895,1013,o),
(927,947,o),
(942,866,c),
(918,866,l),
(931,922,o),
(956,970,o),
(991,1011,cs),
(1062,1092,o),
(1165,1138,o),
(1284,1138,cs),
(1349,1138,o),
(1408,1124,o),
(1461,1096,cs),
(1568,1040,o),
(1636,927,o),
(1636,754,cs),
(1636,0,l),
(1455,0,l),
(1455,749,ls),
(1455,830,o),
(1433,887,o),
(1388,922,cs),
(1343,957,o),
(1290,974,o),
(1230,974,cs),
(1180,974,o),
(1137,964,o),
(1101,943,cs),
(1028,901,o),
(987,825,o),
(987,730,cs),
(987,0,l),
(807,0,l),
(807,767,ls),
(807,829,o),
(786,879,o),
(745,917,cs),
(704,955,o),
(651,974,o),
(588,974,cs),
(545,974,o),
(504,964,o),
(466,944,cs),
(389,903,o),
(338,823,o),
(338,704,cs),
(338,0,l)
);
}
);
width = 1794;
},
{
anchors = (
{
name = m.uni0326;
position = "{1080, 0}";
},
{
name = m.uni030F_1;
position = "{1076, 1242}";
}
);
layerId = "6534D9E7-D8F5-49CB-AE3D-9F113790C5C9";
shapes = (
{
closed = 1;
nodes = (
(198,0,l),
(198,1118,l),
(244,1118,l),
(244,854,l),
(228,854,l),
(243,920,o),
(269,974,o),
(305,1015,cs),
(377,1097,o),
(477,1134,o),
(576,1134,cs),
(659,1134,o),
(729,1108,o),
(788,1056,cs),
(846,1004,o),
(882,931,o),
(897,838,c),
(879,838,l),
(892,901,o),
(915,954,o),
(949,998,cs),
(1017,1086,o),
(1119,1134,o),
(1236,1134,cs),
(1306,1134,o),
(1366,1119,o),
(1417,1088,cs),
(1518,1026,o),
(1576,909,o),
(1576,750,cs),
(1576,0,l),
(1530,0,l),
(1530,750,ls),
(1530,858,o),
(1504,941,o),
(1451,1000,cs),
(1398,1059,o),
(1326,1088,o),
(1236,1088,cs),
(1176,1088,o),
(1121,1075,o),
(1072,1049,cs),
(973,996,o),
(910,894,o),
(910,750,cs),
(910,0,l),
(864,0,l),
(864,750,ls),
(864,858,o),
(838,941,o),
(786,1000,cs),
(733,1059,o),
(663,1088,o),
(576,1088,cs),
(513,1088,o),
(457,1074,o),
(407,1045,cs),
(307,987,o),
(244,882,o),
(244,750,cs),
(244,0,l)
);
}
);
width = 1774;
}
);
leftKerningGroup = m;
rightKerningGroup = a;
unicode = 109;
}
{
glyphname = n;
layers = (
{
anchors = (
{
name = m.uni0326;
position = "{754, 0}";
},
{
name = m.uni030F_1;
position = "{754, 1143}";
}
);
layerId = "E2AB630D-681A-4F59-AC7A-7D360026ACC4";
name = "#instance";
shapes = (
{
closed = 1;
nodes = (
(437.6,0,l),
(124.4,0,l),
(124.4,1118,l),
(419.8,1118,l),
(425,838,l),
(407.8,838,l),
(436.4,930.2,o),
(481.2,1002.4,o),
(540.6,1054.4,cs),
(600,1105.8,o),
(676.6,1132,o),
(772.4,1132,cs),
(849.8,1132,o),
(918,1115.2,o),
(976.2,1081.2,cs),
(1091.4,1013.2,o),
(1158,884.6,o),
(1158,711.2,cs),
(1158,0,l),
(844.4,0,l),
(844.4,654.8,ls),
(844.4,722.2,o),
(827.2,775.4,o),
(792.4,814.2,cs),
(757.6,852.4,o),
(709.4,871.6,o),
(647.6,871.6,cs),
(606.6,871.6,o),
(570.6,862.6,o),
(539,845,cs),
(475.6,808.8,o),
(437.6,741,o),
(437.6,644.8,cs)
);
}
);
width = 1282;
},
{
anchors = (
{
name = m.uni0326;
position = "{736, 0}";
},
{
name = m.uni030F_1;
position = "{736, 1118}";
}
);
layerId = "C940992A-BC26-484D-9AD3-39561C0256D5";
shapes = (
{
closed = 1;
nodes = (
(504,0,l),
(102,0,l),
(102,1118,l),
(479,1118,l),
(487,832,l),
(475,832,l),
(500,917,o),
(542,988,o),
(599,1046,cs),
(656,1103,o),
(735,1132,o),
(838,1132,cs),
(917,1132,o),
(986,1114,o),
(1045,1078,cs),
(1161,1006,o),
(1228,875,o),
(1228,712,cs),
(1228,0,l),
(826,0,l),
(826,628,ls),
(826,683,o),
(812,727,o),
(784,759,cs),
(756,790,o),
(717,806,o),
(666,806,cs),
(633,806,o),
(605,799,o),
(581,785,cs),
(532,756,o),
(504,703,o),
(504,628,cs)
);
}
);
width = 1330;
},
{
anchors = (
{
name = m.uni0326;
position = "{781, 0}";
},
{
name = m.uni030F_1;
position = "{781, 1180}";
}
);
layerId = "9514E43D-89D9-4083-9B59-14FFE90A8056";
shapes = (
{
closed = 1;
nodes = (
(338,0,l),
(158,0,l),
(158,1118,l),
(331,1118,l),
(332,847,l),
(307,847,l),
(341,950,o),
(390,1024,o),
(453,1067,cs),
(516,1110,o),
(589,1132,o),
(674,1132,cs),
(749,1132,o),
(816,1117,o),
(873,1086,cs),
(987,1024,o),
(1053,899,o),
(1053,710,cs),
(1053,0,l),
(872,0,l),
(872,695,ls),
(872,781,o),
(850,848,o),
(805,897,cs),
(760,946,o),
(698,970,o),
(620,970,cs),
(567,970,o),
(519,958,o),
(476,935,cs),
(391,888,o),
(338,798,o),
(338,670,cs)
);
}
);
width = 1211;
},
{
anchors = (
{
name = m.uni0326;
position = "{793, 0}";
},
{
name = m.uni030F_1;
position = "{797, 1242}";
}
);
layerId = "F1B44250-5A04-4AFC-8A77-A7E8F224F396";
shapes = (
{
closed = 1;
nodes = (
(244,0,l),
(198,0,l),
(198,1118,l),
(244,1118,l),
(244,878,l),
(232,878,l),
(256,963,o),
(304,1027,o),
(375,1070,cs),
(446,1113,o),
(523,1134,o),
(608,1134,cs),
(685,1134,o),
(752,1118,o),
(811,1086,cs),
(927,1021,o),
(998,903,o),
(998,750,cs),
(998,0,l),
(952,0,l),
(952,750,ls),
(952,851,o),
(920,933,o),
(856,995,cs),
(792,1057,o),
(709,1088,o),
(608,1088,cs),
(539,1088,o),
(477,1074,o),
(422,1045,cs),
(312,987,o),
(244,881,o),
(244,750,cs)
);
}
);
width = 1196;
}
);
leftKerningGroup = public.kern2.m;
rightKerningGroup = public.kern1.a;
unicode = 110;
}
{
glyphname = o;
layers = (
{
anchors = (
{
name = m.uni0326;
position = "{720, 0}";
},
{
name = m.uni030F_1;
position = "{720, 1143}";
},
{
name = m.uni0328_4;
position = "{1393, 568}";
}
);
layerId = "E2AB630D-681A-4F59-AC7A-7D360026ACC4";
name = "#instance";
shapes = (
{
closed = 1;
nodes = (
(516.8,-21.6,o),
(418.8,2.4,o),
(336.2,51,cs),
(253.2,99,o),
(190,166,o),
(145.8,253,cs),
(101,339.4,o),
(78.8,439.4,o),
(78.8,554.4,cs),
(78.8,670.2,o),
(101,771,o),
(145.8,858,cs),
(190,944.4,o),
(253.2,1011.4,o),
(336.2,1060,cs),
(418.8,1108,o),
(516.8,1132,o),
(629.8,1132,cs),
(743.2,1132,o),
(841.2,1108,o),
(923.6,1060,cs),
(1006,1011.4,o),
(1069.2,944.4,o),
(1114,858,cs),
(1158.2,771,o),
(1180.4,670.2,o),
(1180.4,554.4,cs),
(1180.4,439.4,o),
(1158.2,339.4,o),
(1114,253,cs),
(1069.2,166,o),
(1006,99,o),
(923.6,51,cs),
(841.2,2.4,o),
(743.2,-21.6,o),
(629.8,-21.6,cs)
);
},
{
closed = 1;
nodes = (
(680.8,222.8,o),
(723.6,237,o),
(758.2,265.8,cs),
(792.8,294.6,o),
(818.6,334.2,o),
(835.6,384.6,cs),
(852.6,434.4,o),
(861.6,491.6,o),
(861.6,555.6,cs),
(861.6,620.6,o),
(852.6,677.6,o),
(835.6,727.8,cs),
(818.6,777.6,o),
(792.8,817,o),
(758.2,845.2,cs),
(723.6,873.4,o),
(680.8,887.6,o),
(629.8,887.6,cs),
(578.8,887.6,o),
(535.8,873.4,o),
(501.6,845.2,cs),
(467.4,817,o),
(441,777.6,o),
(424,727.8,cs),
(407,678,o),
(398,621,o),
(398,555.6,cs),
(398,491.6,o),
(407,434.4,o),
(424,384.6,cs),
(441,334.2,o),
(467.4,294.6,o),
(501.6,265.8,cs),
(535.8,237,o),
(578.8,222.8,o),
(629.8,222.8,cs)
);
}
);
width = 1259;
},
{
anchors = (
{
name = m.uni0326;
position = "{700, 0}";
},
{
name = m.uni030F_1;
position = "{700, 1118}";
},
{
name = m.uni0328_4;
position = "{1364, 558}";
}
);
layerId = "C940992A-BC26-484D-9AD3-39561C0256D5";
shapes = (
{
closed = 1;
nodes = (
(520,-20,o),
(416,4,o),
(329,53,cs),
(242,101,o),
(176,168,o),
(131,255,cs),
(85,341,o),
(62,441,o),
(62,556,cs),
(62,671,o),
(85,771,o),
(131,858,cs),
(176,944,o),
(242,1011,o),
(329,1060,cs),
(416,1108,o),
(520,1132,o),
(641,1132,cs),
(762,1132,o),
(866,1108,o),
(952,1060,cs),
(1038,1011,o),
(1104,944,o),
(1150,858,cs),
(1195,771,o),
(1218,671,o),
(1218,556,cs),
(1218,441,o),
(1195,341,o),
(1150,255,cs),
(1104,168,o),
(1038,101,o),
(952,53,cs),
(866,4,o),
(762,-20,o),
(641,-20,cs)
);
},
{
closed = 1;
nodes = (
(676,280,o),
(706,291,o),
(731,313,cs),
(756,335,o),
(775,367,o),
(788,409,cs),
(801,450,o),
(808,500,o),
(808,558,cs),
(808,617,o),
(801,666,o),
(788,707,cs),
(775,748,o),
(756,779,o),
(731,800,cs),
(706,821,o),
(676,832,o),
(641,832,cs),
(606,832,o),
(575,821,o),
(550,800,cs),
(525,779,o),
(505,748,o),
(492,707,cs),
(479,666,o),
(472,617,o),
(472,558,cs),
(472,500,o),
(479,450,o),
(492,409,cs),
(505,367,o),
(525,335,o),
(550,313,cs),
(575,291,o),
(606,280,o),
(641,280,cs)
);
}
);
width = 1280;
},
{
anchors = (
{
name = m.uni0326;
position = "{751, 0}";
},
{
name = m.uni030F_1;
position = "{751, 1180}";
},
{
name = m.uni0328_4;
position = "{1436, 584}";
}
);
layerId = "9514E43D-89D9-4083-9B59-14FFE90A8056";
shapes = (
{
closed = 1;
nodes = (
(512,-24,o),
(423,0,o),
(347,48,cs),
(270,96,o),
(211,163,o),
(168,250,cs),
(125,337,o),
(104,437,o),
(104,552,cs),
(104,669,o),
(125,771,o),
(168,858,cs),
(211,945,o),
(270,1012,o),
(347,1060,cs),
(423,1108,o),
(512,1132,o),
(613,1132,cs),
(715,1132,o),
(804,1108,o),
(881,1060,cs),
(958,1012,o),
(1017,945,o),
(1060,858,cs),
(1103,771,o),
(1124,669,o),
(1124,552,cs),
(1124,437,o),
(1103,337,o),
(1060,250,cs),
(1017,163,o),
(958,96,o),
(881,48,cs),
(804,0,o),
(715,-24,o),
(613,-24,cs)
);
},
{
closed = 1;
nodes = (
(688,137,o),
(750,156,o),
(799,195,cs),
(848,234,o),
(884,285,o),
(907,348,cs),
(930,411,o),
(942,479,o),
(942,552,cs),
(942,626,o),
(930,695,o),
(907,759,cs),
(884,822,o),
(848,874,o),
(799,913,cs),
(750,952,o),
(688,971,o),
(613,971,cs),
(538,971,o),
(477,952,o),
(429,913,cs),
(381,874,o),
(345,822,o),
(322,759,cs),
(299,696,o),
(287,627,o),
(287,552,cs),
(287,479,o),
(299,411,o),
(322,348,cs),
(345,285,o),
(381,234,o),
(429,195,cs),
(477,156,o),
(538,137,o),
(613,137,cs)
);
}
);
width = 1228;
},
{
anchors = (
{
name = m.uni0326;
position = "{751, 0}";
},
{
name = m.uni030F_1;
position = "{751, 1242}";
},
{
name = m.uni0328_4;
position = "{1380, 616}";
}
);
layerId = "F1B44250-5A04-4AFC-8A77-A7E8F224F396";
shapes = (
{
closed = 1;
nodes = (
(506,-24,o),
(427,2,o),
(357,53,cs),
(287,104,o),
(232,173,o),
(191,260,cs),
(150,347,o),
(130,446,o),
(130,556,cs),
(130,666,o),
(150,765,o),
(191,852,cs),
(232,939,o),
(287,1007,o),
(357,1058,cs),
(427,1109,o),
(506,1134,o),
(594,1134,cs),
(681,1134,o),
(760,1109,o),
(830,1058,cs),
(899,1007,o),
(954,938,o),
(995,851,cs),
(1036,764,o),
(1056,665,o),
(1056,556,cs),
(1056,446,o),
(1036,347,o),
(996,260,cs),
(955,173,o),
(900,104,o),
(831,53,cs),
(761,2,o),
(682,-24,o),
(594,-24,cs)
);
},
{
closed = 1;
nodes = (
(673,22,o),
(744,45,o),
(807,92,cs),
(870,139,o),
(919,202,o),
(956,283,cs),
(992,364,o),
(1010,455,o),
(1010,556,cs),
(1010,657,o),
(992,747,o),
(955,828,cs),
(918,908,o),
(869,971,o),
(806,1018,cs),
(743,1065,o),
(673,1088,o),
(594,1088,cs),
(515,1088,o),
(445,1065,o),
(382,1018,cs),
(319,971,o),
(269,907,o),
(232,827,cs),
(195,747,o),
(176,657,o),
(176,556,cs),
(176,455,o),
(194,364,o),
(231,283,cs),
(268,202,o),
(318,139,o),
(381,92,cs),
(444,45,o),
(515,22,o),
(594,22,cs)
);
}
);
width = 1186;
}
);
leftKerningGroup = public.kern2.c;
rightKerningGroup = public.kern1.b;
unicode = 111;
}
{
glyphname = p;
layers = (
{
anchors = (
{
name = m.uni0326;
position = "{382, -402}";
},
{
name = m.uni030F_1;
position = "{721, 1118}";
}
);
layerId = "DF515781-E436-4A88-B51E-316BD4FA0343";
shapes = (
{
closed = 1;
nodes = (
(102,-418,l),
(102,1118,l),
(500,1118,l),
(500,922,l),
(510,922,l),
(525,960,o),
(546,995,o),
(574,1027,cs),
(602,1059,o),
(637,1085,o),
(679,1104,cs),
(720,1123,o),
(769,1132,o),
(824,1132,cs),
(898,1132,o),
(968,1112,o),
(1035,1073,cs),
(1101,1034,o),
(1155,972,o),
(1197,888,cs),
(1239,803,o),
(1260,693,o),
(1260,558,cs),
(1260,429,o),
(1240,323,o),
(1200,238,cs),
(1120,69,o),
(980,-14,o),
(820,-14,cs),
(768,-14,o),
(722,-5,o),
(681,12,cs),
(640,29,o),
(605,53,o),
(576,83,cs),
(547,112,o),
(525,146,o),
(510,184,c),
(504,184,l),
(504,-418,l)
);
},
{
closed = 1;
nodes = (
(709,294,o),
(741,305,o),
(767,326,cs),
(818,368,o),
(846,449,o),
(846,558,cs),
(846,613,o),
(839,661,o),
(826,701,c),
(798,780,o),
(747,824,o),
(672,824,cs),
(635,824,o),
(604,813,o),
(577,792,cs),
(524,749,o),
(494,669,o),
(494,558,cs),
(494,504,o),
(501,457,o),
(516,418,c),
(544,339,o),
(599,294,o),
(672,294,cs)
);
}
);
width = 1322;
},
{
anchors = (
{
name = m.uni0326;
position = "{419, -401}";
},
{
name = m.uni030F_1;
position = "{739, 1180}";
}
);
layerId = "6C060D37-EA61-4F06-B959-8B1B04C15508";
shapes = (
{
closed = 1;
nodes = (
(158,-418,l),
(158,1118,l),
(332,1118,l),
(332,939,l),
(352,939,l),
(365,959,o),
(382,984,o),
(405,1015,cs),
(428,1045,o),
(460,1072,o),
(503,1096,cs),
(546,1120,o),
(603,1132,o),
(676,1132,cs),
(769,1132,o),
(852,1109,o),
(923,1062,cs),
(994,1015,o),
(1049,949,o),
(1090,863,cs),
(1130,776,o),
(1150,674,o),
(1150,556,cs),
(1150,437,o),
(1130,335,o),
(1090,248,cs),
(1010,75,o),
(864,-24,o),
(677,-24,cs),
(606,-24,o),
(549,-12,o),
(506,13,cs),
(463,37,o),
(429,65,o),
(406,96,cs),
(383,127,o),
(365,152,o),
(352,173,c),
(338,173,l),
(338,-418,l)
);
},
{
closed = 1;
nodes = (
(720,137,o),
(779,156,o),
(826,194,cs),
(920,269,o),
(967,402,o),
(967,558,cs),
(967,635,o),
(955,705,o),
(932,768,cs),
(885,892,o),
(791,971,o),
(650,971,cs),
(581,971,o),
(524,954,o),
(477,919,cs),
(384,850,o),
(336,723,o),
(336,558,cs),
(336,475,o),
(348,402,o),
(372,339,cs),
(420,212,o),
(515,137,o),
(650,137,cs)
);
}
);
width = 1254;
},
{
anchors = (
{
name = m.uni0326;
position = "{378, -401}";
},
{
name = m.uni030F_1;
position = "{663, 1242}";
}
);
layerId = "D5D2BA9E-C9D4-4EBC-A272-0297FDC83579";
shapes = (
{
closed = 1;
nodes = (
(198,-418,l),
(198,1118,l),
(244,1118,l),
(244,832,l),
(250,832,l),
(269,894,o),
(298,948,o),
(335,993,cs),
(372,1038,o),
(415,1073,o),
(466,1098,cs),
(516,1122,o),
(571,1134,o),
(630,1134,cs),
(717,1134,o),
(793,1109,o),
(858,1058,cs),
(922,1007,o),
(972,938,o),
(1007,851,cs),
(1042,764,o),
(1060,665,o),
(1060,556,cs),
(1060,446,o),
(1043,347,o),
(1008,260,cs),
(938,84,o),
(806,-24,o),
(630,-24,cs),
(570,-24,o),
(515,-12,o),
(465,13,cs),
(415,38,o),
(372,73,o),
(335,119,cs),
(298,164,o),
(270,218,o),
(250,280,c),
(244,280,l),
(244,-418,l)
);
},
{
closed = 1;
nodes = (
(709,22,o),
(777,46,o),
(834,93,cs),
(949,187,o),
(1014,355,o),
(1014,556,cs),
(1014,657,o),
(998,747,o),
(967,828,cs),
(904,988,o),
(787,1088,o),
(630,1088,cs),
(551,1088,o),
(483,1065,o),
(426,1018,cs),
(310,925,o),
(244,757,o),
(244,556,cs),
(244,455,o),
(260,365,o),
(291,284,cs),
(354,123,o),
(471,22,o),
(630,22,cs)
);
}
);
width = 1190;
}
);
leftKerningGroup = public.kern2.m;
rightKerningGroup = public.kern1.b;
unicode = 112;
}
{
glyphname = q;
layers = (
{
anchors = (
{
name = m.uni0326;
position = "{1062, -402}";
},
{
name = m.uni030F_1;
position = "{721, 1118}";
}
);
layerId = "5F52F939-73AD-4133-B212-C472907279A8";
shapes = (
{
closed = 1;
nodes = (
(1220,-418,l),
(818,-418,l),
(818,184,l),
(812,184,l),
(797,146,o),
(775,112,o),
(746,83,cs),
(717,53,o),
(683,29,o),
(642,12,cs),
(601,-5,o),
(555,-14,o),
(502,-14,cs),
(423,-14,o),
(350,7,o),
(283,49,cs),
(216,90,o),
(162,153,o),
(122,238,cs),
(82,323,o),
(62,429,o),
(62,558,cs),
(62,693,o),
(83,803,o),
(125,888,cs),
(167,972,o),
(221,1034,o),
(288,1073,cs),
(355,1112,o),
(425,1132,o),
(498,1132,cs),
(553,1132,o),
(602,1123,o),
(644,1104,cs),
(685,1085,o),
(720,1059,o),
(749,1027,cs),
(777,995,o),
(798,960,o),
(812,922,c),
(822,922,l),
(822,1118,l),
(1220,1118,l)
);
},
{
closed = 1;
nodes = (
(687,294,o),
(718,305,o),
(745,327,cs),
(798,370,o),
(828,450,o),
(828,558,cs),
(828,613,o),
(821,661,o),
(807,701,cs),
(778,780,o),
(723,824,o),
(650,824,cs),
(613,824,o),
(582,813,o),
(556,792,cs),
(504,749,o),
(476,669,o),
(476,558,cs),
(476,503,o),
(483,456,o),
(497,417,cs),
(524,337,o),
(577,294,o),
(650,294,cs)
);
}
);
width = 1322;
},
{
anchors = (
{
name = m.uni0326;
position = "{1121, -401}";
},
{
name = m.uni030F_1;
position = "{764, 1180}";
}
);
layerId = "EC53454B-9049-4A8E-9DF5-E39A1CD11388";
shapes = (
{
closed = 1;
nodes = (
(1096,-418,l),
(916,-418,l),
(916,173,l),
(902,173,l),
(890,152,o),
(872,127,o),
(849,96,cs),
(825,65,o),
(792,37,o),
(749,13,cs),
(706,-12,o),
(648,-24,o),
(577,-24,cs),
(484,-24,o),
(402,0,o),
(331,47,cs),
(260,94,o),
(204,161,o),
(164,248,cs),
(124,335,o),
(104,437,o),
(104,556,cs),
(104,674,o),
(124,776,o),
(165,863,cs),
(205,949,o),
(261,1015,o),
(332,1062,cs),
(403,1109,o),
(485,1132,o),
(578,1132,cs),
(651,1132,o),
(708,1120,o),
(751,1096,cs),
(794,1072,o),
(827,1045,o),
(850,1015,cs),
(873,984,o),
(890,959,o),
(902,939,c),
(922,939,l),
(922,1118,l),
(1096,1118,l)
);
},
{
closed = 1;
nodes = (
(672,137,o),
(729,155,o),
(776,191,cs),
(869,262,o),
(918,393,o),
(918,558,cs),
(918,641,o),
(906,713,o),
(883,775,cs),
(835,898,o),
(741,971,o),
(604,971,cs),
(533,971,o),
(475,953,o),
(428,916,cs),
(334,843,o),
(287,713,o),
(287,558,cs),
(287,480,o),
(299,409,o),
(323,346,cs),
(370,218,o),
(465,137,o),
(604,137,cs)
);
}
);
width = 1254;
},
{
anchors = (
{
name = m.uni0326;
position = "{1154, -401}";
},
{
name = m.uni030F_1;
position = "{758, 1242}";
}
);
layerId = "BBB03204-D1F5-4C2C-82D7-85F2E10FE6A0";
shapes = (
{
closed = 1;
nodes = (
(992,-418,l),
(946,-418,l),
(946,280,l),
(940,280,l),
(921,218,o),
(893,164,o),
(856,119,cs),
(819,73,o),
(775,38,o),
(725,13,cs),
(675,-12,o),
(620,-24,o),
(560,-24,cs),
(473,-24,o),
(397,1,o),
(332,52,cs),
(267,103,o),
(218,172,o),
(183,260,cs),
(148,347,o),
(130,446,o),
(130,556,cs),
(130,665,o),
(148,764,o),
(183,851,cs),
(218,938,o),
(268,1007,o),
(333,1058,cs),
(398,1109,o),
(473,1134,o),
(560,1134,cs),
(619,1134,o),
(674,1122,o),
(725,1098,cs),
(775,1073,o),
(819,1038,o),
(856,993,cs),
(893,948,o),
(921,894,o),
(940,832,c),
(946,832,l),
(946,1118,l),
(992,1118,l)
);
},
{
closed = 1;
nodes = (
(639,22,o),
(708,46,o),
(766,93,cs),
(881,187,o),
(946,355,o),
(946,556,cs),
(946,657,o),
(930,747,o),
(899,828,cs),
(835,988,o),
(717,1088,o),
(560,1088,cs),
(482,1088,o),
(414,1065,o),
(357,1018,cs),
(241,925,o),
(176,757,o),
(176,556,cs),
(176,455,o),
(192,365,o),
(223,284,cs),
(286,123,o),
(403,22,o),
(560,22,cs)
);
}
);
width = 1190;
}
);
leftKerningGroup = c;
rightKerningGroup = g;
unicode = 113;
}
{
glyphname = r;
layers = (
{
layerId = "77AA2557-3F0F-43EB-9D4B-67A8E9FB1A04";
name = "#instance";
shapes = (
{
closed = 1;
nodes = (
(154,0,l),
(154,1118,l),
(333,1118,l),
(333,945,l),
(345,945,l),
(364,1002,o),
(401,1048,o),
(453,1083,cs),
(506,1118,o),
(566,1135,o),
(633,1135,cs),
(696,1135,o),
(741,1119,o),
(777,1094,c),
(715,937,l),
(691,950,o),
(659,958,o),
(616,958,cs),
(562,958,o),
(515,948,o),
(474,925,cs),
(391,880,o),
(340,800,o),
(339,700,c),
(339,0,l)
);
}
);
width = 793;
},
{
layerId = "D8A92F70-7B12-4FFB-B168-20459808C763";
shapes = (
{
closed = 1;
nodes = (
(102,0,l),
(102,1118,l),
(492,1118,l),
(492,905,l),
(503,905,l),
(524,984,o),
(557,1041,o),
(601,1078,cs),
(645,1114,o),
(697,1132,o),
(756,1132,cs),
(815,1132,o),
(872,1116,o),
(916,1091,c),
(800,762,l),
(767,778,o),
(732,791,o),
(689,791,cs),
(656,791,o),
(626,783,o),
(598,766,cs),
(541,732,o),
(504,667,o),
(503,582,c),
(503,0,l)
);
}
);
width = 916;
},
{
layerId = "F2144881-BF72-4154-AA19-0D7773A1BBB5";
shapes = (
{
closed = 1;
nodes = (
(157,0,l),
(157,1118,l),
(323,1118,l),
(323,948,l),
(335,948,l),
(354,1003,o),
(391,1048,o),
(444,1083,cs),
(497,1118,o),
(558,1135,o),
(625,1135,cs),
(688,1135,o),
(733,1119,o),
(768,1094,c),
(710,948,l),
(686,961,o),
(654,969,o),
(611,969,cs),
(556,969,o),
(508,958,o),
(466,935,cs),
(381,889,o),
(329,808,o),
(329,707,cs),
(329,0,l)
);
}
);
width = 785;
},
{
layerId = "6534D9E7-D8F5-49CB-AE3D-9F113790C5C9";
shapes = (
{
closed = 1;
nodes = (
(198,0,l),
(198,1118,l),
(244,1118,l),
(244,940,l),
(250,940,l),
(276,998,o),
(319,1045,o),
(379,1080,cs),
(439,1115,o),
(508,1132,o),
(585,1132,cs),
(633,1132,o),
(677,1124,o),
(713,1111,c),
(695,1068,l),
(666,1079,o),
(628,1085,o),
(585,1085,cs),
(519,1085,o),
(460,1071,o),
(409,1042,cs),
(306,985,o),
(244,880,o),
(244,751,cs),
(244,0,l)
);
}
);
width = 742;
}
);
leftKerningGroup = m;
rightKerningGroup = r;
unicode = (114,57439);
}
{
glyphname = s;
layers = (
{
anchors = (
{
name = m.uni0327_3;
position = "{605, 0}";
},
{
name = top;
position = "{605, 1303}";
}
);
guides = (
{
angle = 90;
position = "{515, 0}";
}
);
layerId = "AA18C446-7083-4EE4-9FA4-5ED387604317";
shapes = (
{
closed = 1;
nodes = (
(1123,753,l),
(1113,990,o),
(916,1132,o),
(593,1132,cs),
(274,1132,o),
(77,1001,o),
(79,768,c),
(77,592,o),
(191,479,o),
(419,439,cs),
(617,404,ls),
(704,388,o),
(743,365,o),
(745,323,c),
(743,276,o),
(690,250,o),
(617,250,cs),
(526,250,o),
(462,289,o),
(451,361,c),
(52,361,l),
(74,132,o),
(272,-20,o),
(614,-20,cs),
(923,-20,o),
(1151,130,o),
(1152,369,cs),
(1151,535,o),
(1040,631,o),
(812,672,cs),
(585,713,ls),
(500,728,o),
(476,759,o),
(477,791,c),
(476,838,o),
(533,864,o),
(602,864,cs),
(681,864,o),
(748,822,o),
(753,753,c)
);
}
);
width = 1204;
},
{
anchors = (
{
name = m.uni0327_3;
position = "{531, 0}";
},
{
name = top;
position = "{537, 1303}";
}
);
guides = (
{
angle = 90;
position = "{515, 0}";
}
);
layerId = "83678DE6-86A5-4DC1-9516-590C67EEE957";
shapes = (
{
closed = 1;
nodes = (
(931,828,l),
(906,1009,o),
(763,1132,o),
(534,1132,cs),
(290,1132,o),
(124,993,o),
(124,804,cs),
(124,655,o),
(227,548,o),
(420,503,cs),
(588,464,ls),
(716,434,o),
(772,382,o),
(772,303,cs),
(772,196,o),
(671,128,o),
(511,128,cs),
(369,128,o),
(288,181,o),
(268,291,c),
(89,291,l),
(117,88,o),
(266,-23,o),
(513,-23,cs),
(793,-23,o),
(950,119,o),
(950,311,cs),
(950,467,o),
(852,565,o),
(653,614,cs),
(487,655,ls),
(356,687,o),
(295,738,o),
(295,813,cs),
(295,908,o),
(393,983,o),
(534,983,cs),
(666,983,o),
(737,921,o),
(761,828,c)
);
}
);
width = 1039;
},
{
anchors = (
{
name = m.uni0327_3;
position = "{492, 0}";
},
{
name = top;
position = "{495, 1303}";
}
);
guides = (
{
angle = 90;
position = "{515, 0}";
}
);
layerId = "011F2186-E3F6-4CD7-BC01-D546573589F3";
shapes = (
{
closed = 1;
nodes = (
(844,876,l),
(815,1026,o),
(689,1133,o),
(500,1135,c),
(297,1136,o),
(154,1016,o),
(154,841,cs),
(154,701,o),
(244,601,o),
(416,559,c),
(591,515,ls),
(735,479,o),
(806,394,o),
(806,279,cs),
(806,124,o),
(676,23,o),
(480,23,cs),
(301,23,o),
(186,108,o),
(160,262,c),
(111,262,l),
(138,82,o),
(276,-23,o),
(480,-23,cs),
(702,-23,o),
(852,101,o),
(852,282,cs),
(852,419,o),
(767,521,o),
(602,561,c),
(428,605,ls),
(276,643,o),
(201,725,o),
(201,841,cs),
(201,987,o),
(323,1089,o),
(500,1088,cs),
(656,1087,o),
(767,1007,o),
(794,876,c)
);
}
);
width = 963;
}
);
leftKerningGroup = public.kern2.s2;
rightKerningGroup = public.kern1.s;
unicode = 115;
}
{
glyphname = t;
layers = (
{
anchors = (
{
name = raccent;
position = "{705, 1562}";
}
);
guides = (
{
angle = 90;
position = "{605, 0}";
},
{
angle = 90;
position = "{288, 0}";
}
);
layerId = "6E2892C3-3C02-46A0-9D36-E256ACFD9F2E";
shapes = (
{
closed = 1;
nodes = (
(32,1117,l),
(32,826,l),
(768,826,l),
(768,1117,l)
);
},
{
closed = 1;
nodes = (
(175,321,l),
(172,87,o),
(316,-16,o),
(593,-16,cs),
(684,-16,o),
(746,-9,o),
(783,-3,c),
(783,295,l),
(738,292,o),
(680,288,o),
(652,289,cs),
(599,292,o),
(576,313,o),
(576,359,cs),
(576,1385,l),
(175,1385,l)
);
}
);
width = 829;
},
{
anchors = (
{
name = raccent;
position = "{512, 1562}";
}
);
guides = (
{
angle = 90;
position = "{605, 0}";
},
{
angle = 90;
position = "{288, 0}";
}
);
layerId = "F267B978-EB02-4A9B-884E-61DA4654DD4B";
shapes = (
{
closed = 1;
nodes = (
(48,1117,l),
(48,972,l),
(627,972,l),
(627,1117,l)
);
},
{
closed = 1;
nodes = (
(217,273,ls),
(217,79,o),
(374,-15,o),
(519,-15,cs),
(570,-15,o),
(614,-11,o),
(641,-6,c),
(641,156,l),
(616,153,o),
(569,151,o),
(537,151,cs),
(461,151,o),
(388,175,o),
(388,320,cs),
(388,1385,l),
(217,1385,l)
);
}
);
width = 713;
},
{
anchors = (
{
name = raccent;
position = "{432, 1562}";
}
);
guides = (
{
angle = 90;
position = "{605, 0}";
},
{
angle = 90;
position = "{288, 0}";
}
);
layerId = "5994B614-1BA3-4C22-AA0B-9CE5DDB3E1DA";
shapes = (
{
closed = 1;
nodes = (
(81,1117,l),
(81,1071,l),
(524,1071,l),
(524,1117,l)
);
},
{
closed = 1;
nodes = (
(244,236,ls),
(244,79,o),
(363,-20,o),
(500,-20,cs),
(535,-20,o),
(548,-20,o),
(561,-19,c),
(561,28,l),
(544,27,o),
(514,26,o),
(500,26,cs),
(389,26,o),
(291,105,o),
(291,236,cs),
(291,1385,l),
(244,1385,l)
);
}
);
width = 666;
}
);
leftKerningGroup = public.kern2.t2;
rightKerningGroup = public.kern1.t;
unicode = 116;
}
{
glyphname = u;
layers = (
{
anchors = (
{
name = m.uni0326;
position = "{785, 0}";
},
{
name = m.uni030F_1;
position = "{757, 1143}";
},
{
name = m.uni0328_4;
position = "{1438, 0}";
}
);
layerId = "E2AB630D-681A-4F59-AC7A-7D360026ACC4";
name = "#instance";
shapes = (
{
closed = 1;
nodes = (
(432.6,-14,o),
(365.4,3.2,o),
(307.2,37.2,cs),
(191.4,105.2,o),
(124.4,233.8,o),
(124.4,406.8,cs),
(124.4,1118,l),
(437.6,1118,l),
(437.6,463.2,ls),
(437.6,395.8,o),
(455.2,342.6,o),
(490,304.4,cs),
(524.8,265.6,o),
(573,246.4,o),
(634.8,246.4,cs),
(675.8,246.4,o),
(712.4,255.4,o),
(744,273.6,cs),
(806.4,309.2,o),
(844.4,378.6,o),
(844.4,473.2,cs),
(844.4,1118,l),
(1158,1118,l),
(1158,0,l),
(862.2,0,l),
(857.4,280,l),
(874.2,280,l),
(845.2,187,o),
(801,115.2,o),
(741.6,63.8,cs),
(681.8,11.8,o),
(604.6,-14,o),
(510,-14,cs)
);
}
);
width = 1282;
},
{
anchors = (
{
name = m.uni0326;
position = "{770, 0}";
},
{
name = m.uni030F_1;
position = "{739, 1118}";
},
{
name = m.uni0328_4;
position = "{1414, 0}";
}
);
layerId = "C940992A-BC26-484D-9AD3-39561C0256D5";
shapes = (
{
closed = 1;
nodes = (
(413,-14,o),
(345,4,o),
(286,40,cs),
(169,112,o),
(102,243,o),
(102,406,cs),
(102,1118,l),
(504,1118,l),
(504,490,ls),
(504,435,o),
(518,391,o),
(546,360,cs),
(574,328,o),
(613,312,o),
(664,312,cs),
(697,312,o),
(726,319,o),
(750,334,c),
(798,362,o),
(826,417,o),
(826,490,cs),
(826,1118,l),
(1228,1118,l),
(1228,0,l),
(851,0,l),
(843,286,l),
(855,286,l),
(830,201,o),
(789,130,o),
(732,73,cs),
(675,15,o),
(595,-14,o),
(492,-14,cs)
);
}
);
width = 1330;
},
{
anchors = (
{
name = m.uni0326;
position = "{808, 0}";
},
{
name = m.uni030F_1;
position = "{784, 1180}";
},
{
name = m.uni0328_4;
position = "{1473, 0}";
}
);
layerId = "9514E43D-89D9-4083-9B59-14FFE90A8056";
shapes = (
{
closed = 1;
nodes = (
(462,-14,o),
(396,2,o),
(339,33,cs),
(225,95,o),
(158,220,o),
(158,408,cs),
(158,1118,l),
(338,1118,l),
(338,423,ls),
(338,337,o),
(361,270,o),
(406,221,cs),
(451,172,o),
(513,148,o),
(591,148,cs),
(644,148,o),
(692,160,o),
(735,183,cs),
(819,230,o),
(872,321,o),
(872,448,cs),
(872,1118,l),
(1053,1118,l),
(1053,0,l),
(879,0,l),
(879,271,l),
(903,271,l),
(868,166,o),
(819,93,o),
(756,50,cs),
(692,7,o),
(619,-14,o),
(537,-14,cs)
);
}
);
width = 1211;
},
{
anchors = (
{
name = m.uni0326;
position = "{804, 0}";
},
{
name = m.uni030F_1;
position = "{796, 1242}";
},
{
name = m.uni0328_4;
position = "{1417, 0}";
}
);
layerId = "F1B44250-5A04-4AFC-8A77-A7E8F224F396";
shapes = (
{
closed = 1;
nodes = (
(512,-16,o),
(445,0,o),
(386,33,cs),
(269,97,o),
(198,216,o),
(198,368,cs),
(198,1118,l),
(244,1118,l),
(244,368,ls),
(244,267,o),
(276,185,o),
(340,123,cs),
(404,61,o),
(487,30,o),
(588,30,cs),
(657,30,o),
(720,45,o),
(775,74,cs),
(885,132,o),
(952,237,o),
(952,368,cs),
(952,1118,l),
(998,1118,l),
(998,0,l),
(952,0,l),
(952,240,l),
(964,240,l),
(940,155,o),
(893,91,o),
(822,48,cs),
(751,5,o),
(673,-16,o),
(588,-16,cs)
);
}
);
width = 1196;
}
);
leftKerningGroup = public.kern2.u2;
rightKerningGroup = public.kern1.u;
unicode = 117;
}
{
glyphname = v;
layers = (
{
anchors = (
{
name = m.uni0326;
position = "{727, 0}";
},
{
name = m.uni030F_1;
position = "{727, 1118}";
}
);
layerId = "980E6A92-2867-40CE-A48E-C7FE9FEAD785";
shapes = (
{
closed = 1;
nodes = (
(410,0,l),
(12,1118,l),
(434,1118,l),
(579,608,ls),
(622,457,o),
(652,304,o),
(685,120,c),
(622,120,l),
(654,304,o),
(684,456,o),
(725,608,cs),
(866,1118,l),
(1282,1118,l),
(882,0,l)
);
}
);
width = 1294;
},
{
anchors = (
{
name = m.uni0326;
position = "{778, 0}";
},
{
name = m.uni030F_1;
position = "{778, 1180}";
}
);
layerId = "2C2418C1-41DF-4EE0-8E81-595C00A08566";
shapes = (
{
closed = 1;
nodes = (
(481,0,l),
(54,1118,l),
(251,1118,l),
(489,455,ls),
(540,318,o),
(570,179,o),
(609,51,c),
(543,51,l),
(582,179,o),
(613,318,o),
(662,455,cs),
(900,1118,l),
(1097,1118,l),
(670,0,l)
);
}
);
width = 1151;
},
{
anchors = (
{
name = m.uni0326;
position = "{786, 0}";
},
{
name = m.uni030F_1;
position = "{786, 1242}";
}
);
layerId = "6C81FF26-15E7-4A5E-89E1-0A5A89E23E00";
shapes = (
{
closed = 1;
nodes = (
(527,0,l),
(100,1118,l),
(148,1118,l),
(447,336,ls),
(486,235,o),
(522,131,o),
(563,30,c),
(551,30,l),
(592,131,o),
(628,235,o),
(667,336,cs),
(966,1118,l),
(1014,1118,l),
(587,0,l)
);
}
);
width = 1114;
}
);
leftKerningGroup = v2;
rightKerningGroup = v;
unicode = 118;
}
{
glyphname = w;
layers = (
{
anchors = (
{
name = m.uni0326;
position = "{1078, 0}";
},
{
name = m.uni030F_1;
position = "{1086, 1176}";
}
);
layerId = "77AA2557-3F0F-43EB-9D4B-67A8E9FB1A04";
name = "#instance";
shapes = (
{
closed = 1;
nodes = (
(404,0,l),
(66,1118,l),
(270,1118,l),
(402,638,ls),
(439,504,o),
(483,336,o),
(523,123,c),
(492,123,l),
(531,328,o),
(574,496,o),
(612,638,cs),
(743,1118,l),
(944,1118,l),
(1073,638,ls),
(1109,500,o),
(1152,332,o),
(1191,123,c),
(1159,123,l),
(1201,330,o),
(1242,497,o),
(1281,638,cs),
(1412,1118,l),
(1618,1118,l),
(1279,0,l),
(1086,0,l),
(944,498,ls),
(929,548,o),
(915,600,o),
(901,653,cs),
(888,706,o),
(874,761,o),
(861,817,cs),
(848,873,o),
(835,929,o),
(821,986,c),
(862,986,l),
(849,930,o),
(836,874,o),
(823,818,cs),
(795,705,o),
(768,596,o),
(739,498,cs),
(597,0,l)
);
}
);
width = 1683;
},
{
anchors = (
{
name = m.uni0326;
position = "{1014, 0}";
},
{
name = m.uni030F_1;
position = "{1022, 1118}";
}
);
layerId = "D8A92F70-7B12-4FFB-B168-20459808C763";
shapes = (
{
closed = 1;
nodes = (
(320,0,l),
(-2,1118,l),
(418,1118,l),
(482,768,ls),
(511,608,o),
(551,432,o),
(576,224,c),
(539,224,l),
(570,432,o),
(616,609,o),
(649,768,cs),
(724,1118,l),
(1072,1118,l),
(1143,768,ls),
(1175,608,o),
(1222,432,o),
(1253,224,c),
(1218,224,l),
(1242,432,o),
(1277,608,o),
(1306,768,cs),
(1370,1118,l),
(1798,1118,l),
(1472,0,l),
(1060,0,l),
(954,368,ls),
(944,403,o),
(934,447,o),
(924,499,cs),
(913,550,o),
(903,603,o),
(894,656,cs),
(884,709,o),
(874,754,o),
(864,792,c),
(928,792,l),
(919,754,o),
(909,709,o),
(899,656,cs),
(879,550,o),
(859,439,o),
(838,368,cs),
(732,0,l)
);
}
);
width = 1796;
},
{
anchors = (
{
name = m.uni0326;
position = "{1082, 0}";
},
{
name = m.uni030F_1;
position = "{1090, 1180}";
}
);
layerId = "F2144881-BF72-4154-AA19-0D7773A1BBB5";
shapes = (
{
closed = 1;
nodes = (
(409,0,l),
(70,1118,l),
(261,1118,l),
(397,630,ls),
(434,497,o),
(479,330,o),
(520,117,c),
(489,117,l),
(529,321,o),
(571,489,o),
(610,630,cs),
(744,1118,l),
(936,1118,l),
(1068,630,ls),
(1105,493,o),
(1147,326,o),
(1187,117,c),
(1155,117,l),
(1198,324,o),
(1240,490,o),
(1279,630,cs),
(1415,1118,l),
(1606,1118,l),
(1267,0,l),
(1088,0,l),
(943,506,ls),
(928,557,o),
(914,610,o),
(900,663,cs),
(886,716,o),
(872,771,o),
(859,827,cs),
(846,883,o),
(832,940,o),
(818,998,c),
(858,998,l),
(845,941,o),
(831,884,o),
(818,828,cs),
(790,715,o),
(762,606,o),
(733,506,cs),
(588,0,l)
);
}
);
width = 1676;
},
{
anchors = (
{
name = m.uni0326;
position = "{1109, 0}";
},
{
name = m.uni030F_1;
position = "{1117, 1242}";
}
);
layerId = "6534D9E7-D8F5-49CB-AE3D-9F113790C5C9";
shapes = (
{
closed = 1;
nodes = (
(415,0,l),
(89,1118,l),
(136,1118,l),
(378,288,ls),
(405,197,o),
(427,115,o),
(452,24,c),
(442,24,l),
(470,115,o),
(497,199,o),
(526,288,cs),
(798,1118,l),
(858,1118,l),
(1130,288,l),
(1161,199,o),
(1186,115,o),
(1214,24,c),
(1204,24,l),
(1229,115,o),
(1253,197,o),
(1278,288,cs),
(1520,1118,l),
(1567,1118,l),
(1241,0,l),
(1177,0,l),
(894,864,ls),
(885,891,o),
(877,917,o),
(869,943,c),
(860,968,o),
(852,994,o),
(844,1020,cs),
(836,1045,o),
(828,1071,o),
(819,1098,c),
(837,1098,l),
(829,1071,o),
(821,1045,o),
(813,1020,cs),
(796,968,o),
(779,917,o),
(762,864,cs),
(479,0,l)
);
}
);
width = 1656;
}
);
leftKerningGroup = w2;
rightKerningGroup = w;
unicode = 119;
}
{
glyphname = x;
layers = (
{
anchors = (
{
name = m.uni0326;
position = "{718, 0}";
},
{
name = m.uni030F_1;
position = "{718, 1176}";
}
);
layerId = "77AA2557-3F0F-43EB-9D4B-67A8E9FB1A04";
name = "#instance";
shapes = (
{
closed = 1;
nodes = (
(62,0,l),
(503,648,l),
(502,500,l),
(85,1118,l),
(308,1118,l),
(443,906,ls),
(514,793,o),
(561,696,o),
(617,603,c),
(520,603,l),
(549,649,o),
(575,697,o),
(599,747,cs),
(623,797,o),
(653,849,o),
(689,906,cs),
(827,1118,l),
(1046,1118,l),
(627,492,l),
(627,636,l),
(1063,0,l),
(842,0,l),
(682,247,ls),
(612,356,o),
(566,451,o),
(511,540,c),
(609,540,l),
(582,496,o),
(556,450,o),
(533,401,cs),
(509,353,o),
(480,302,o),
(444,247,cs),
(283,0,l)
);
}
);
width = 1126;
},
{
anchors = (
{
name = m.uni0326;
position = "{680, 0}";
},
{
name = m.uni030F_1;
position = "{680, 1118}";
}
);
layerId = "D8A92F70-7B12-4FFB-B168-20459808C763";
shapes = (
{
closed = 1;
nodes = (
(23,0,l),
(448,731,l),
(448,417,l),
(43,1118,l),
(464,1118,l),
(533,976,ls),
(590,859,o),
(640,728,o),
(689,609,c),
(558,609,l),
(585,668,o),
(611,729,o),
(638,793,cs),
(665,856,o),
(693,917,o),
(724,976,cs),
(798,1118,l),
(1211,1118,l),
(794,418,l),
(794,731,l),
(1225,0,l),
(807,0,l),
(717,176,ls),
(656,295,o),
(603,429,o),
(550,548,c),
(681,548,l),
(656,489,o),
(631,427,o),
(605,362,cs),
(579,297,o),
(551,235,o),
(522,176,cs),
(435,0,l)
);
}
);
width = 1248;
},
{
anchors = (
{
name = m.uni0326;
position = "{720, 0}";
},
{
name = m.uni030F_1;
position = "{720, 1180}";
}
);
layerId = "F2144881-BF72-4154-AA19-0D7773A1BBB5";
shapes = (
{
closed = 1;
nodes = (
(65,0,l),
(506,643,l),
(505,505,l),
(88,1118,l),
(298,1118,l),
(437,901,ls),
(509,789,o),
(556,694,o),
(612,603,c),
(518,603,l),
(547,648,o),
(573,695,o),
(597,744,cs),
(620,793,o),
(650,845,o),
(687,901,cs),
(829,1118,l),
(1035,1118,l),
(616,497,l),
(616,630,l),
(1053,0,l),
(844,0,l),
(680,251,ls),
(609,360,o),
(564,452,o),
(509,539,c),
(604,539,l),
(577,496,o),
(551,451,o),
(528,404,cs),
(505,357,o),
(475,306,o),
(439,251,cs),
(273,0,l)
);
}
);
width = 1118;
},
{
anchors = (
{
name = m.uni0326;
position = "{681, 0}";
},
{
name = m.uni030F_1;
position = "{681, 1242}";
}
);
layerId = "6534D9E7-D8F5-49CB-AE3D-9F113790C5C9";
shapes = (
{
closed = 1;
nodes = (
(60,0,l),
(496,589,l),
(496,555,l),
(79,1118,l),
(136,1118,l),
(371,800,ls),
(422,731,o),
(472,662,o),
(523,591,c),
(501,591,l),
(526,626,o),
(552,661,o),
(577,696,cs),
(602,731,o),
(628,765,o),
(653,800,cs),
(888,1118,l),
(945,1118,l),
(528,555,l),
(528,589,l),
(964,0,l),
(907,0,l),
(635,368,ls),
(590,431,o),
(546,492,o),
(501,553,c),
(523,553,l),
(500,522,o),
(478,492,o),
(456,461,cs),
(434,430,o),
(411,399,o),
(388,368,cs),
(117,0,l)
);
}
);
width = 1024;
}
);
leftKerningGroup = x2;
rightKerningGroup = x;
unicode = 120;
}
{
glyphname = y;
layers = (
{
anchors = (
{
name = bottom;
position = "{1011, 0}";
},
{
name = ogonek;
position = "{810, -419}";
},
{
name = top;
position = "{617, 1303}";
}
);
guides = (
{
angle = 90;
position = "{532, 0}";
}
);
layerId = "DF515781-E436-4A88-B51E-316BD4FA0343";
shapes = (
{
closed = 1;
nodes = (
(627,-419,o),
(759,-278,o),
(820,-93,cs),
(1228,1117,l),
(806,1117,l),
(623,343,l),
(611,343,l),
(431,1117,l),
(12,1117,l),
(404,-49,l),
(397,-67,l),
(377,-113,o),
(338,-119,o),
(285,-119,cs),
(240,-119,o),
(189,-119,o),
(134,-115,c),
(134,-413,l),
(187,-417,o),
(256,-419,o),
(332,-419,cs)
);
}
);
width = 1239;
},
{
anchors = (
{
name = bottom;
position = "{831, -49}";
},
{
name = ogonek;
position = "{707, -419}";
},
{
name = top;
position = "{554, 1303}";
}
);
guides = (
{
angle = 90;
position = "{532, 0}";
}
);
layerId = "6C060D37-EA61-4F06-B959-8B1B04C15508";
shapes = (
{
closed = 1;
nodes = (
(407,-419,o),
(516,-337,o),
(580,-163,cs),
(1055,1117,l),
(868,1117,l),
(560,227,l),
(548,227,l),
(240,1117,l),
(54,1117,l),
(467,-6,l),
(435,-93,ls),
(374,-259,o),
(313,-263,o),
(240,-263,cs),
(213,-263,o),
(173,-262,o),
(157,-260,c),
(156,-415,l),
(177,-417,o),
(214,-419,o),
(252,-419,cs)
);
}
);
width = 1108;
},
{
anchors = (
{
name = bottom;
position = "{716, -86}";
},
{
name = ogonek;
position = "{537, -419}";
},
{
name = top;
position = "{512, 1303}";
}
);
guides = (
{
angle = 90;
position = "{532, 0}";
}
);
layerId = "D5D2BA9E-C9D4-4EBC-A272-0297FDC83579";
shapes = (
{
closed = 1;
nodes = (
(335,-419,o),
(423,-344,o),
(473,-204,cs),
(943,1117,l),
(893,1117,l),
(515,58,l),
(509,58,l),
(131,1117,l),
(81,1117,l),
(489,-20,l),
(429,-186,ls),
(370,-350,o),
(271,-374,o),
(196,-374,cs),
(188,-374,o),
(180,-372,o),
(176,-372,c),
(176,-419,l),
(180,-419,o),
(189,-419,o),
(196,-419,cs)
);
}
);
width = 1024;
}
);
leftKerningGroup = public.kern2.v2;
rightKerningGroup = public.kern1.v;
unicode = 121;
}
{
glyphname = z;
layers = (
{
anchors = (
{
name = m.uni0326;
position = "{695, 0}";
},
{
name = m.uni030F_1;
position = "{690, 1118}";
}
);
layerId = "DF515781-E436-4A88-B51E-316BD4FA0343";
shapes = (
{
closed = 1;
nodes = (
(114,0,l),
(114,222,l),
(602,806,l),
(602,812,l),
(130,812,l),
(130,1118,l),
(1076,1118,l),
(1076,872,l),
(632,312,l),
(632,306,l),
(1094,306,l),
(1094,0,l)
);
}
);
width = 1208;
},
{
anchors = (
{
name = m.uni0326;
position = "{755, 0}";
},
{
name = m.uni030F_1;
position = "{757, 1180}";
}
);
layerId = "6C060D37-EA61-4F06-B959-8B1B04C15508";
shapes = (
{
closed = 1;
nodes = (
(126,0,l),
(126,134,l),
(753,940,l),
(753,951,l),
(146,951,l),
(146,1118,l),
(985,1118,l),
(985,975,l),
(376,178,l),
(376,167,l),
(1005,167,l),
(1005,0,l)
);
}
);
width = 1131;
},
{
anchors = (
{
name = m.uni0326;
position = "{738, 0}";
},
{
name = m.uni030F_1;
position = "{760, 1242}";
}
);
layerId = "D5D2BA9E-C9D4-4EBC-A272-0297FDC83579";
shapes = (
{
closed = 1;
nodes = (
(158,0,l),
(158,46,l),
(827,1066,l),
(827,1072,l),
(200,1072,l),
(200,1118,l),
(884,1118,l),
(884,1070,l),
(216,52,l),
(216,46,l),
(914,46,l),
(914,0,l)
);
}
);
width = 1072;
}
);
leftKerningGroup = public.kern2.z2;
rightKerningGroup = public.kern1.z;
unicode = 122;
}
{
glyphname = braceleft;
layers = (
{
layerId = "DF515781-E436-4A88-B51E-316BD4FA0343";
shapes = (
{
closed = 1;
nodes = (
(137,825,l),
(222,825,o),
(281,842,o),
(314,876,cs),
(347,909,o),
(363,962,o),
(363,1033,cs),
(363,1161,ls),
(363,1266,o),
(379,1347,o),
(412,1405,cs),
(445,1462,o),
(489,1503,o),
(545,1528,cs),
(600,1553,o),
(663,1568,o),
(734,1573,cs),
(804,1578,o),
(876,1581,o),
(951,1581,c),
(951,1289,l),
(864,1289,o),
(806,1274,o),
(779,1245,cs),
(751,1216,o),
(737,1170,o),
(737,1109,cs),
(737,949,ls),
(737,877,o),
(714,797,o),
(631,734,cs),
(589,702,o),
(529,676,o),
(450,657,cs),
(371,637,o),
(266,627,o),
(137,627,c)
);
},
{
closed = 1;
nodes = (
(951,-279,l),
(876,-279,o),
(804,-276,o),
(734,-271,cs),
(663,-266,o),
(600,-251,o),
(545,-226,cs),
(489,-201,o),
(445,-160,o),
(412,-103,cs),
(379,-45,o),
(363,36,o),
(363,141,cs),
(363,269,ls),
(363,340,o),
(347,393,o),
(314,427,cs),
(281,460,o),
(222,477,o),
(137,477,c),
(137,675,l),
(266,675,o),
(371,665,o),
(450,646,cs),
(529,626,o),
(589,600,o),
(631,569,c),
(714,505,o),
(737,425,o),
(737,353,cs),
(737,193,ls),
(737,132,o),
(751,87,o),
(779,58,c),
(806,28,o),
(864,13,o),
(951,13,c)
);
},
{
closed = 1;
nodes = (
(137,477,l),
(137,825,l),
(477,825,l),
(477,477,l)
);
}
);
width = 1035;
},
{
layerId = "6C060D37-EA61-4F06-B959-8B1B04C15508";
shapes = (
{
closed = 1;
nodes = (
(144,741,l),
(225,741,o),
(282,758,o),
(314,792,cs),
(346,825,o),
(362,881,o),
(362,960,cs),
(362,1190,ls),
(362,1258,o),
(369,1317,o),
(383,1366,cs),
(396,1415,o),
(418,1456,o),
(449,1488,cs),
(479,1519,o),
(519,1543,o),
(569,1558,cs),
(618,1573,o),
(679,1581,o),
(750,1581,c),
(750,1430,l),
(665,1431,o),
(607,1412,o),
(576,1373,cs),
(544,1334,o),
(528,1272,o),
(528,1187,cs),
(528,901,ls),
(528,825,o),
(512,762,o),
(457,717,cs),
(430,694,o),
(391,677,o),
(341,665,cs),
(290,652,o),
(225,646,o),
(144,646,c)
);
},
{
closed = 1;
nodes = (
(750,-279,l),
(679,-279,o),
(618,-272,o),
(569,-257,cs),
(519,-242,o),
(479,-218,o),
(449,-187,cs),
(418,-155,o),
(396,-114,o),
(383,-65,cs),
(369,-16,o),
(362,43,o),
(362,112,cs),
(362,340,ls),
(362,419,o),
(346,476,o),
(314,510,cs),
(282,544,o),
(225,561,o),
(144,561,c),
(144,656,l),
(225,656,o),
(290,650,o),
(341,637,cs),
(391,624,o),
(430,607,o),
(457,584,cs),
(512,538,o),
(528,474,o),
(528,399,cs),
(528,115,ls),
(528,30,o),
(544,-32,o),
(576,-71,cs),
(607,-110,o),
(665,-130,o),
(750,-130,c)
);
},
{
closed = 1;
nodes = (
(144,560,l),
(144,742,l),
(323,742,l),
(323,560,l)
);
}
);
width = 873;
},
{
layerId = "D5D2BA9E-C9D4-4EBC-A272-0297FDC83579";
shapes = (
{
closed = 1;
nodes = (
(172,675,l),
(256,675,o),
(313,690,o),
(343,720,cs),
(373,750,o),
(388,806,o),
(388,889,cs),
(388,1271,ls),
(388,1324,o),
(393,1370,o),
(404,1409,cs),
(415,1448,o),
(431,1480,o),
(453,1506,cs),
(474,1531,o),
(502,1550,o),
(535,1563,cs),
(568,1576,o),
(607,1582,o),
(652,1582,c),
(652,1536,l),
(576,1536,o),
(521,1515,o),
(486,1474,cs),
(451,1432,o),
(434,1364,o),
(434,1271,cs),
(434,889,ls),
(434,793,o),
(416,728,o),
(376,688,cs),
(355,667,o),
(328,652,o),
(295,643,cs),
(262,634,o),
(221,629,o),
(172,629,c)
);
},
{
closed = 1;
nodes = (
(652,-280,l),
(607,-280,o),
(568,-274,o),
(535,-261,cs),
(502,-248,o),
(474,-229,o),
(453,-204,cs),
(431,-178,o),
(415,-146,o),
(404,-107,cs),
(393,-68,o),
(388,-22,o),
(388,31,cs),
(388,413,ls),
(388,496,o),
(373,553,o),
(343,584,cs),
(313,614,o),
(256,629,o),
(172,629,c),
(172,675,l),
(221,675,o),
(262,670,o),
(295,661,cs),
(328,652,o),
(355,637,o),
(376,616,cs),
(416,575,o),
(434,509,o),
(434,413,cs),
(434,31,ls),
(434,-62,o),
(451,-129,o),
(486,-171,cs),
(521,-213,o),
(576,-234,o),
(652,-234,c)
);
},
{
closed = 1;
nodes = (
(172,629,l),
(172,675,l),
(328,675,l),
(328,629,l)
);
}
);
width = 810;
}
);
leftKerningGroup = public.kern2.parenleft2;
rightKerningGroup = public.kern1.parenleft;
unicode = 123;
}
{
glyphname = bar;
layers = (
{
layerId = "980E6A92-2867-40CE-A48E-C7FE9FEAD785";
shapes = (
{
closed = 1;
nodes = (
(610,1970,l),
(610,-480,l),
(218,-480,l),
(218,1970,l)
);
}
);
width = 830;
},
{
layerId = "2C2418C1-41DF-4EE0-8E81-595C00A08566";
shapes = (
{
closed = 1;
nodes = (
(419,1970,l),
(419,-480,l),
(262,-480,l),
(262,1970,l)
);
}
);
width = 681;
},
{
layerId = "6C81FF26-15E7-4A5E-89E1-0A5A89E23E00";
shapes = (
{
closed = 1;
nodes = (
(302,1970,l),
(302,-480,l),
(256,-480,l),
(256,1970,l)
);
}
);
width = 558;
}
);
leftKerningGroup = B2;
rightKerningGroup = H;
unicode = 124;
}
{
glyphname = braceright;
layers = (
{
layerId = "DF515781-E436-4A88-B51E-316BD4FA0343";
shapes = (
{
closed = 1;
nodes = (
(898,627,l),
(641,627,o),
(488,670,o),
(405,734,cs),
(321,797,o),
(298,877,o),
(298,949,cs),
(298,1109,ls),
(298,1170,o),
(284,1216,o),
(257,1245,cs),
(229,1274,o),
(171,1289,o),
(84,1289,c),
(84,1581,l),
(159,1581,o),
(232,1578,o),
(302,1573,cs),
(372,1568,o),
(435,1553,o),
(491,1528,cs),
(546,1503,o),
(590,1462,o),
(623,1405,cs),
(656,1347,o),
(672,1266,o),
(672,1161,cs),
(672,1033,ls),
(672,962,o),
(689,909,o),
(722,876,cs),
(755,842,o),
(813,825,o),
(898,825,c)
);
},
{
closed = 1;
nodes = (
(84,13,l),
(171,13,o),
(229,28,o),
(257,58,cs),
(284,87,o),
(298,132,o),
(298,193,cs),
(298,353,ls),
(298,425,o),
(321,505,o),
(405,569,cs),
(488,632,o),
(641,675,o),
(898,675,c),
(898,477,l),
(813,477,o),
(755,460,o),
(722,427,cs),
(689,393,o),
(672,340,o),
(672,269,cs),
(672,141,ls),
(672,36,o),
(656,-45,o),
(623,-103,cs),
(590,-160,o),
(546,-201,o),
(491,-226,cs),
(435,-251,o),
(372,-266,o),
(302,-271,cs),
(232,-276,o),
(159,-279,o),
(84,-279,c)
);
},
{
closed = 1;
nodes = (
(898,477,l),
(558,477,l),
(558,825,l),
(898,825,l)
);
}
);
width = 1035;
},
{
layerId = "6C060D37-EA61-4F06-B959-8B1B04C15508";
shapes = (
{
closed = 1;
nodes = (
(729,646,l),
(568,646,o),
(471,672,o),
(416,717,cs),
(361,762,o),
(345,825,o),
(345,901,cs),
(345,1187,ls),
(345,1271,o),
(329,1333,o),
(298,1372,cs),
(267,1411,o),
(208,1430,o),
(123,1430,c),
(123,1581,l),
(194,1581,o),
(255,1573,o),
(304,1558,cs),
(353,1543,o),
(393,1519,o),
(424,1488,c),
(454,1456,o),
(476,1415,o),
(490,1366,cs),
(503,1317,o),
(510,1258,o),
(510,1190,cs),
(510,960,ls),
(510,881,o),
(526,825,o),
(559,792,c),
(591,758,o),
(648,741,o),
(729,741,c)
);
},
{
closed = 1;
nodes = (
(123,-130,l),
(208,-130,o),
(267,-110,o),
(298,-71,cs),
(329,-32,o),
(345,30,o),
(345,115,cs),
(345,399,ls),
(345,474,o),
(361,538,o),
(416,584,cs),
(471,630,o),
(568,656,o),
(729,656,c),
(729,561,l),
(647,560,o),
(590,543,o),
(558,509,cs),
(526,475,o),
(510,419,o),
(510,340,cs),
(510,112,ls),
(510,43,o),
(503,-16,o),
(490,-65,cs),
(476,-114,o),
(454,-155,o),
(424,-187,c),
(393,-218,o),
(353,-242,o),
(304,-257,cs),
(255,-272,o),
(194,-279,o),
(123,-279,c)
);
},
{
closed = 1;
nodes = (
(729,561,l),
(549,560,l),
(549,742,l),
(729,741,l)
);
}
);
width = 873;
},
{
layerId = "D5D2BA9E-C9D4-4EBC-A272-0297FDC83579";
shapes = (
{
closed = 1;
nodes = (
(638,629,l),
(541,629,o),
(475,647,o),
(435,688,cs),
(394,728,o),
(376,793,o),
(376,889,cs),
(376,1271,ls),
(376,1364,o),
(359,1432,o),
(324,1474,cs),
(289,1515,o),
(234,1536,o),
(158,1536,c),
(158,1582,l),
(203,1582,o),
(243,1576,o),
(276,1563,cs),
(309,1550,o),
(336,1531,o),
(358,1506,c),
(379,1480,o),
(395,1448,o),
(406,1409,cs),
(417,1370,o),
(422,1324,o),
(422,1271,cs),
(422,889,ls),
(422,806,o),
(437,750,o),
(467,720,cs),
(497,690,o),
(554,675,o),
(638,675,c)
);
},
{
closed = 1;
nodes = (
(158,-234,l),
(234,-234,o),
(289,-213,o),
(324,-171,cs),
(359,-129,o),
(376,-62,o),
(376,31,cs),
(376,413,ls),
(376,509,o),
(394,575,o),
(435,616,cs),
(475,657,o),
(541,675,o),
(638,675,c),
(638,629,l),
(554,629,o),
(497,614,o),
(467,584,cs),
(437,553,o),
(422,496,o),
(422,413,cs),
(422,31,ls),
(422,-22,o),
(417,-68,o),
(406,-107,cs),
(395,-146,o),
(379,-178,o),
(358,-204,c),
(336,-229,o),
(309,-248,o),
(276,-261,cs),
(243,-274,o),
(203,-280,o),
(158,-280,c)
);
},
{
closed = 1;
nodes = (
(638,629,l),
(482,629,l),
(482,675,l),
(638,675,l)
);
}
);
width = 810;
}
);
leftKerningGroup = public.kern2.parenright2;
rightKerningGroup = public.kern1.parenright;
unicode = 125;
}
{
glyphname = asciitilde;
layers = (
{
layerId = "5F52F939-73AD-4133-B212-C472907279A8";
shapes = (
{
closed = 1;
nodes = (
(148,376,l),
(144,475,o),
(154,562,o),
(178,635,cs),
(225,781,o),
(327,864,o),
(480,864,cs),
(523,864,o),
(566,856,o),
(608,839,cs),
(650,822,o),
(697,789,o),
(750,742,cs),
(773,722,o),
(794,705,o),
(812,692,cs),
(829,679,o),
(851,672,o),
(876,672,cs),
(905,672,o),
(931,685,o),
(952,710,cs),
(973,735,o),
(982,776,o),
(980,834,c),
(1272,834,l),
(1276,735,o),
(1266,649,o),
(1241,576,cs),
(1191,429,o),
(1088,346,o),
(940,346,cs),
(893,346,o),
(848,356,o),
(805,375,cs),
(762,394,o),
(715,425,o),
(666,468,cs),
(639,492,o),
(619,510,o),
(604,521,cs),
(589,532,o),
(569,538,o),
(544,538,cs),
(513,538,o),
(488,526,o),
(468,501,cs),
(447,476,o),
(438,434,o),
(440,376,c)
);
}
);
width = 1420;
},
{
layerId = "EC53454B-9049-4A8E-9DF5-E39A1CD11388";
shapes = (
{
closed = 1;
nodes = (
(168,439,l),
(167,522,o),
(180,588,o),
(208,638,cs),
(263,738,o),
(359,780,o),
(458,780,cs),
(507,780,o),
(552,770,o),
(593,749,cs),
(634,728,o),
(681,694,o),
(735,647,cs),
(770,616,o),
(799,595,o),
(820,582,cs),
(841,569,o),
(865,563,o),
(890,563,cs),
(931,563,o),
(964,578,o),
(988,608,cs),
(1011,638,o),
(1023,682,o),
(1023,740,c),
(1187,740,l),
(1188,658,o),
(1175,592,o),
(1147,542,cs),
(1091,442,o),
(996,400,o),
(897,400,cs),
(846,400,o),
(800,411,o),
(759,433,cs),
(718,454,o),
(671,487,o),
(620,532,cs),
(584,563,o),
(556,585,o),
(535,598,cs),
(514,610,o),
(490,616,o),
(465,616,cs),
(426,616,o),
(394,602,o),
(369,575,cs),
(344,548,o),
(331,502,o),
(332,439,c)
);
}
);
width = 1355;
},
{
layerId = "BBB03204-D1F5-4C2C-82D7-85F2E10FE6A0";
shapes = (
{
closed = 1;
nodes = (
(192,488,l),
(198,528,o),
(213,563,o),
(237,594,cs),
(285,654,o),
(362,690,o),
(454,690,cs),
(503,690,o),
(546,680,o),
(582,661,cs),
(618,642,o),
(651,622,o),
(680,602,cs),
(709,583,o),
(738,567,o),
(765,552,cs),
(792,537,o),
(823,530,o),
(858,530,cs),
(909,530,o),
(954,545,o),
(991,574,cs),
(1028,603,o),
(1053,640,o),
(1064,686,c),
(1112,674,l),
(1102,637,o),
(1085,604,o),
(1060,575,cs),
(1011,517,o),
(941,482,o),
(858,482,c),
(815,483,o),
(778,493,o),
(746,510,cs),
(714,527,o),
(683,545,o),
(654,564,cs),
(625,584,o),
(595,602,o),
(564,618,cs),
(533,634,o),
(497,642,o),
(454,642,cs),
(396,643,o),
(347,629,o),
(308,599,cs),
(269,568,o),
(245,529,o),
(238,482,c)
);
}
);
width = 1304;
}
);
rightKerningGroup = plus;
unicode = 126;
}
{
glyphname = exclamdown;
layers = (
{
layerId = "5004196B-162C-4C82-BCAB-67337630B14F";
shapes = (
{
closed = 1;
nodes = (
(206,466,l),
(176,1490,l),
(600,1490,l),
(570,466,l)
);
},
{
closed = 1;
nodes = (
(184,0,l),
(184,351,l),
(592,351,l),
(592,0,l)
);
}
);
width = 776;
},
{
layerId = "B1312A1D-33BE-4648-8D8B-BF9AFD6F3133";
shapes = (
{
closed = 1;
nodes = (
(367,639,l),
(379,-372,l),
(175,-372,l),
(188,639,l)
);
},
{
closed = 1;
nodes = (
(394,1118,l),
(394,886,l),
(160,886,l),
(160,1118,l)
);
}
);
width = 554;
},
{
layerId = "3CB5008A-C4A1-41CB-9BE0-5E5E5E92B0B4";
shapes = (
{
closed = 1;
nodes = (
(246,434,l),
(246,1490,l),
(292,1490,l),
(292,434,l)
);
},
{
closed = 1;
nodes = (
(224,0,l),
(224,90,l),
(314,90,l),
(314,0,l)
);
}
);
width = 538;
}
);
unicode = 161;
}
{
color = (153, 251, 255, 255);
glyphname = cent;
layers = (
{
guides = (
{
angle = 90;
position = "{962.909, 0}";
}
);
layerId = "C2BA7105-123B-4065-95E4-2C8249C8089A";
shapes = (
{
closed = 1;
nodes = (
(704.,0,l),
(704.,1489.455,l),
(584.727,1489.455,l),
(584.727,0,l)
);
},
{
closed = 1;
nodes = (
(971,169,o),
(1174,358,o),
(1178,654,c),
(806,654,l),
(797,537,o),
(734,474,o),
(646,474,cs),
(540,474,o),
(471,564,o),
(471,748,cs),
(471,931,o),
(540,1021,o),
(646,1021,cs),
(735,1021,o),
(795,958,o),
(806,841,c),
(1178,841,l),
(1176,1132,o),
(969,1321,o),
(640,1321,cs),
(276,1321,o),
(61,1088,o),
(61,745,cs),
(61,401,o),
(276,169,o),
(640,169,cs)
);
}
);
width = 1242;
},
{
guides = (
{
angle = 90;
position = "{573.091, 0}";
}
);
layerId = "9CF24730-065A-453E-8BED-A6F959227B57";
shapes = (
{
closed = 1;
nodes = (
(644.364,0,l),
(644.364,1489.455,l),
(525.091,1489.455,l),
(525.091,0,l)
);
},
{
closed = 1;
nodes = (
(842,168,o),
(1005,319,o),
(1034,517,c),
(863,517,l),
(831,395,o),
(729,322,o),
(595,322,cs),
(391,322,o),
(260,491,o),
(260,750,cs),
(260,1003,o),
(394,1168,o),
(595,1168,cs),
(746,1168,o),
(836,1075,o),
(863,974,c),
(1034,974,l),
(1005,1183,o),
(828,1323,o),
(592,1323,cs),
(289,1323,o),
(89,1084,o),
(89,744,cs),
(89,409,o),
(281,168,o),
(595,168,cs)
);
}
);
width = 1111;
},
{
layerId = "01511CED-EE56-4E59-B654-85BB35A5B07B";
shapes = (
{
closed = 1;
nodes = (
(594.909,0,l),
(594.909,1489.455,l),
(548.364,1489.455,l),
(548.364,0,l)
);
},
{
closed = 1;
nodes = (
(780,166,o),
(945,304,o),
(977,515,c),
(928,515,l),
(901,332,o),
(754,212,o),
(576,212,cs),
(327,212,o),
(154,447,o),
(154,745,cs),
(154,1050,o),
(335,1277,o),
(576,1277,cs),
(752,1277,o),
(895,1156,o),
(925,980,c),
(975,980,l),
(940,1184,o),
(776,1324,o),
(576,1324,cs),
(303,1324,o),
(108,1072,o),
(108,745,cs),
(108,414,o),
(305,166,o),
(576,166,cs)
);
}
);
width = 1085;
}
);
leftKerningGroup = public.kern2.c;
rightKerningGroup = public.kern1.b;
unicode = 162;
}
{
glyphname = currency;
layers = (
{
layerId = "D8A92F70-7B12-4FFB-B168-20459808C763";
shapes = (
{
closed = 1;
nodes = (
(642,-20,o),
(487,47,o),
(372,161,cs),
(257,275,o),
(189,431,o),
(190,608,cs),
(189,785,o),
(257,941,o),
(372,1054,cs),
(487,1167,o),
(642,1234,o),
(814,1234,cs),
(983,1234,o),
(1137,1167,o),
(1253,1054,cs),
(1368,941,o),
(1437,785,o),
(1438,608,cs),
(1437,431,o),
(1368,275,o),
(1253,161,cs),
(1137,47,o),
(983,-20,o),
(814,-20,cs)
);
},
{
closed = 1;
nodes = (
(891,190,o),
(962,208,o),
(1026,245,cs),
(1090,281,o),
(1141,331,o),
(1179,394,cs),
(1217,457,o),
(1236,529,o),
(1236,608,cs),
(1236,689,o),
(1217,760,o),
(1179,823,cs),
(1141,886,o),
(1090,935,o),
(1026,972,cs),
(962,1008,o),
(891,1026,o),
(814,1026,cs),
(735,1026,o),
(663,1008,o),
(599,972,cs),
(535,935,o),
(485,886,o),
(448,823,cs),
(411,760,o),
(392,689,o),
(392,608,cs),
(392,529,o),
(411,457,o),
(448,394,cs),
(485,331,o),
(535,281,o),
(599,245,cs),
(663,208,o),
(735,190,o),
(814,190,cs)
);
},
{
closed = 1;
nodes = (
(1272,908,l),
(1118,1064,l),
(1326,1272,l),
(1484,1114,l)
);
},
{
closed = 1;
nodes = (
(1326,-32,l),
(1118,174,l),
(1272,328,l),
(1484,126,l)
);
},
{
closed = 1;
nodes = (
(302,-32,l),
(148,126,l),
(358,328,l),
(514,174,l)
);
},
{
closed = 1;
nodes = (
(358,908,l),
(148,1114,l),
(302,1272,l),
(514,1064,l)
);
}
);
width = 1624;
},
{
layerId = "F2144881-BF72-4154-AA19-0D7773A1BBB5";
shapes = (
{
closed = 1;
nodes = (
(573,-20,o),
(425,48,o),
(317,162,cs),
(208,276,o),
(143,431,o),
(143,608,cs),
(143,785,o),
(208,941,o),
(317,1054,cs),
(425,1167,o),
(573,1234,o),
(738,1234,cs),
(902,1234,o),
(1051,1167,o),
(1160,1054,cs),
(1269,941,o),
(1335,785,o),
(1335,608,cs),
(1335,431,o),
(1269,275,o),
(1160,161,cs),
(1051,47,o),
(902,-20,o),
(738,-20,cs)
);
},
{
closed = 1;
nodes = (
(818,142,o),
(891,163,o),
(956,206,cs),
(1021,248,o),
(1072,304,o),
(1111,375,cs),
(1149,446,o),
(1168,523,o),
(1168,608,cs),
(1168,694,o),
(1149,772,o),
(1111,843,cs),
(1072,914,o),
(1021,970,o),
(956,1012,cs),
(891,1053,o),
(818,1074,o),
(738,1074,cs),
(659,1074,o),
(586,1053,o),
(521,1012,cs),
(455,970,o),
(403,914,o),
(364,843,cs),
(325,772,o),
(305,694,o),
(305,608,cs),
(305,523,o),
(325,446,o),
(364,375,cs),
(403,304,o),
(455,248,o),
(521,206,cs),
(586,163,o),
(659,142,o),
(738,142,cs)
);
},
{
closed = 1;
nodes = (
(1162,925,l),
(1044,1049,l),
(1244,1255,l),
(1366,1131,l)
);
},
{
closed = 1;
nodes = (
(1244,-15,l),
(1044,191,l),
(1162,313,l),
(1366,109,l)
);
},
{
closed = 1;
nodes = (
(238,-15,l),
(120,109,l),
(320,313,l),
(442,191,l)
);
},
{
closed = 1;
nodes = (
(320,925,l),
(120,1131,l),
(238,1255,l),
(442,1049,l)
);
}
);
width = 1484;
},
{
layerId = "6534D9E7-D8F5-49CB-AE3D-9F113790C5C9";
shapes = (
{
closed = 1;
nodes = (
(531,-20,o),
(388,47,o),
(283,161,cs),
(178,275,o),
(116,431,o),
(116,608,cs),
(116,785,o),
(178,941,o),
(283,1054,cs),
(388,1167,o),
(531,1234,o),
(694,1234,cs),
(858,1234,o),
(1003,1167,o),
(1108,1054,cs),
(1212,941,o),
(1274,785,o),
(1274,608,cs),
(1274,431,o),
(1212,275,o),
(1108,161,cs),
(1003,47,o),
(858,-20,o),
(694,-20,cs)
);
},
{
closed = 1;
nodes = (
(795,26,o),
(885,52,o),
(966,103,cs),
(1046,154,o),
(1110,224,o),
(1157,312,cs),
(1204,400,o),
(1227,499,o),
(1228,608,c),
(1228,718,o),
(1204,817,o),
(1157,904,cs),
(1110,991,o),
(1046,1060,o),
(965,1111,cs),
(884,1161,o),
(794,1186,o),
(694,1186,cs),
(595,1186,o),
(506,1161,o),
(425,1111,cs),
(344,1060,o),
(280,991,o),
(233,904,cs),
(186,817,o),
(162,718,o),
(162,608,cs),
(162,499,o),
(186,400,o),
(233,312,cs),
(280,224,o),
(344,154,o),
(425,103,cs),
(505,52,o),
(595,26,o),
(694,26,cs)
);
},
{
closed = 1;
nodes = (
(1110,1004,l),
(1080,1038,l),
(1254,1218,l),
(1284,1184,l)
);
},
{
closed = 1;
nodes = (
(1254,0,l),
(1080,180,l),
(1110,214,l),
(1284,34,l)
);
},
{
closed = 1;
nodes = (
(136,0,l),
(104,34,l),
(280,214,l),
(310,180,l)
);
},
{
closed = 1;
nodes = (
(280,1004,l),
(104,1184,l),
(136,1218,l),
(310,1038,l)
);
}
);
width = 1394;
}
);
unicode = 164;
}
{
glyphname = yen;
layers = (
{
layerId = "DD6EF60E-12CE-4CFD-A219-13982E9D034C";
shapes = (
{
closed = 1;
nodes = (
(434,1490,l),
(692,792,l),
(430,562,l),
(30,1490,l)
);
},
{
closed = 1;
nodes = (
(518,802,l),
(770,1490,l),
(1176,1490,l),
(770,562,l)
);
},
{
closed = 1;
nodes = (
(794,786,l),
(794,0,l),
(396,0,l),
(396,786,l)
);
},
{
closed = 1;
nodes = (
(1068,786,l),
(1068,574,l),
(84,574,l),
(84,786,l)
);
},
{
closed = 1;
nodes = (
(1068,498,l),
(1068,286,l),
(84,286,l),
(84,498,l)
);
}
);
width = 1204;
},
{
layerId = "09B6B0AE-BF01-4DA1-8E4B-D236F68CE7ED";
shapes = (
{
closed = 1;
nodes = (
(239,1490,l),
(614,666,l),
(470,600,l),
(30,1490,l)
);
},
{
closed = 1;
nodes = (
(512,666,l),
(888,1490,l),
(1098,1490,l),
(657,600,l)
);
},
{
closed = 1;
nodes = (
(658,782,l),
(658,0,l),
(469,0,l),
(469,782,l)
);
},
{
closed = 1;
nodes = (
(982,744,l),
(982,608,l),
(143,608,l),
(143,744,l)
);
},
{
closed = 1;
nodes = (
(982,456,l),
(982,320,l),
(143,320,l),
(143,456,l)
);
}
);
width = 1126;
},
{
layerId = "35B86B34-8686-44F8-9959-14CD414BA805";
shapes = (
{
closed = 1;
nodes = (
(96,1490,l),
(558,642,l),
(506,642,l),
(44,1490,l)
);
},
{
closed = 1;
nodes = (
(512,642,l),
(974,1490,l),
(1026,1490,l),
(564,642,l)
);
},
{
closed = 1;
nodes = (
(558,692,l),
(558,0,l),
(512,0,l),
(512,692,l)
);
},
{
closed = 1;
nodes = (
(908,666,l),
(908,620,l),
(162,620,l),
(162,666,l)
);
},
{
closed = 1;
nodes = (
(908,488,l),
(908,442,l),
(162,442,l),
(162,488,l)
);
}
);
width = 1070;
}
);
unicode = 165;
}
{
glyphname = brokenbar;
layers = (
{
layerId = "5004196B-162C-4C82-BCAB-67337630B14F";
shapes = (
{
closed = 1;
nodes = (
(230,424,l),
(584,424,l),
(584,-280,l),
(230,-280,l)
);
},
{
closed = 1;
nodes = (
(584,1490,l),
(584,788,l),
(230,788,l),
(230,1490,l)
);
}
);
width = 814;
},
{
layerId = "B1312A1D-33BE-4648-8D8B-BF9AFD6F3133";
shapes = (
{
closed = 1;
nodes = (
(192,403,l),
(361,403,l),
(361,-280,l),
(192,-280,l)
);
},
{
closed = 1;
nodes = (
(361,1490,l),
(361,811,l),
(192,811,l),
(192,1490,l)
);
}
);
width = 553;
},
{
layerId = "3CB5008A-C4A1-41CB-9BE0-5E5E5E92B0B4";
shapes = (
{
closed = 1;
nodes = (
(168,386,l),
(214,386,l),
(214,-280,l),
(168,-280,l)
);
},
{
closed = 1;
nodes = (
(214,1490,l),
(214,826,l),
(168,826,l),
(168,1490,l)
);
}
);
width = 382;
}
);
unicode = 166;
}
